<?xml version="1.0" encoding="UTF-8" standalone="no"?>
<!-- Created with Inkscape (http://www.inkscape.org/) -->

<svg
   xmlns:dc="http://purl.org/dc/elements/1.1/"
   xmlns:cc="http://creativecommons.org/ns#"
   xmlns:rdf="http://www.w3.org/1999/02/22-rdf-syntax-ns#"
   xmlns:svg="http://www.w3.org/2000/svg"
   xmlns="http://www.w3.org/2000/svg"
   version="1.1"
   width="118.63507"
   height="167.64949"
   id="svg4365">
  <defs
     id="defs4367">
    <clipPath
       id="clipPath4252">
      <rect
         width="132.35201"
         height="41.327305"
         x="-1696.6"
         y="50.346539"
         id="rect4254"
         style="opacity:0.33516439;fill:#ffffff;fill-opacity:1;stroke:none" />
    </clipPath>
  </defs>
  <metadata
     id="metadata4370">
    <rdf:RDF>
      <cc:Work
         rdf:about="">
        <dc:format>image/svg+xml</dc:format>
        <dc:type
           rdf:resource="http://purl.org/dc/dcmitype/StillImage" />
        <dc:title></dc:title>
      </cc:Work>
    </rdf:RDF>
  </metadata>
  <g
     transform="translate(-377.82533,-608.53743)"
     id="layer1">
    <g
       transform="translate(1849.5916,577.99386)"
       id="g4316">
      <path
         d="m -1630.4539,103.48232 c -0.256,-0.13152 -0.431,-0.317 -0.4543,-0.4816 -0.033,-0.2334 0.015,-0.2677 0.3739,-0.2677 0.2564,0 0.4378,0.0673 0.4804,0.17846 0.094,0.24464 0.7066,0.22659 1.0095,-0.0297 0.1354,-0.11447 0.2822,-0.36047 0.3263,-0.54658 l 0.08,-0.33837 -0.3667,0.18964 c -0.5869,0.30349 -1.266,0.24957 -1.5597,-0.12384 -0.3021,-0.38409 -0.3068,-0.67271 -0.022,-1.30174 0.1489,-0.32763 0.3565,-0.54955 0.64,-0.68412 0.5267,-0.249918 0.8306,-0.251088 1.3065,-0.005 0.2597,0.13426 0.3894,0.15263 0.4205,0.0595 0.024,-0.0741 0.222,-0.134716 0.4387,-0.134716 l 0.3938,0 -0.2738,1.292906 c -0.1506,0.71108 -0.3457,1.40858 -0.4335,1.54999 -0.1878,0.30248 -0.9854,0.71343 -1.5479,0.79754 -0.2506,0.0375 -0.5495,-0.0194 -0.8129,-0.15463 z m 1.7761,-1.89565 c 0.2736,-0.34777 0.3234,-0.8709 0.1032,-1.09045 -0.418,-0.4181 -1.2908,0.10002 -1.31,0.77788 -0.014,0.49833 0.1,0.62606 0.5589,0.62606 0.2912,0 0.4681,-0.0857 0.6473,-0.31349 z m -58.1267,0.8564 c -0.5298,-0.23059 -0.7588,-0.61908 -0.7588,-1.28707 0,-1.301919 0.7459,-2.202785 1.9805,-2.391668 0.9914,-0.151653 1.7078,0.217465 1.7078,0.879876 0,0.323917 -0.033,0.352304 -0.4203,0.352304 -0.2915,0 -0.4436,-0.06377 -0.497,-0.20821 -0.2281,-0.61839 -1.2147,-0.480994 -1.6332,0.227458 -0.3039,0.51432 -0.3123,1.49742 -0.015,1.71531 0.3574,0.26162 0.8724,0.20686 1.2077,-0.12835 0.2025,-0.20247 0.4286,-0.29744 0.7085,-0.29744 0.5022,0 0.513,0.11343 0.06,0.6297 -0.5466,0.62257 -1.5678,0.84428 -2.3403,0.50809 z m 5.2188,-0.007 c -0.4636,-0.2015 -0.6391,-0.59501 -0.5134,-1.15189 0.2449,-1.08622 1.222,-1.63633 2.3633,-1.330604 0.3668,0.09818 0.6558,0.679144 0.5585,1.122224 l -0.077,0.34826 -1.0613,0 c -0.8405,0 -1.0613,0.0353 -1.0613,0.16996 0,0.46032 0.7731,0.72415 1.0707,0.36544 0.081,-0.0982 0.3309,-0.17847 0.5542,-0.17847 0.3605,0 0.3926,0.0251 0.2863,0.22366 -0.1416,0.26482 -0.9483,0.61113 -1.408,0.60453 -0.1786,-0.002 -0.4992,-0.0804 -0.7124,-0.1731 z m 1.6369,-1.6426 c 0,-0.42211 -0.6658,-0.59026 -1.0028,-0.25325 -0.3115,0.31155 -0.2152,0.40793 0.408,0.40793 0.4087,0 0.5948,-0.0484 0.5948,-0.15468 z m 5.3667,1.62541 c -0.2899,-0.20295 -0.2979,-0.40573 -0.062,-1.55996 0.07,-0.33975 0.048,-0.38668 -0.1737,-0.38668 -0.1736,0 -0.2528,-0.0747 -0.2528,-0.23797 0,-0.17192 0.079,-0.237947 0.2857,-0.237947 0.2047,0 0.3185,-0.0929 0.4007,-0.327196 0.072,-0.205343 0.2568,-0.379923 0.4961,-0.468779 l 0.3811,-0.141594 -0.038,0.439038 c -0.034,0.401612 -0.012,0.442249 0.2889,0.476693 0.2312,0.02661 0.3272,0.105175 0.3272,0.267695 0,0.18269 -0.084,0.23006 -0.4079,0.23006 -0.3986,0 -0.4111,0.015 -0.5435,0.65266 -0.1547,0.74502 -0.1044,0.89405 0.3041,0.89405 0.3348,0 0.3706,0.14085 0.1032,0.40792 -0.2423,0.24243 -0.757,0.23872 -1.1092,-0.008 z m 7.6358,0.0194 c -0.9279,-0.40347 -0.492,-2.07471 0.6385,-2.447821 0.8801,-0.290447 1.9452,0.07834 1.9452,0.673501 0,0.27432 -0.7988,0.21334 -0.9519,-0.0727 -0.1694,-0.31653 -0.6134,-0.30214 -0.9181,0.0297 -0.3174,0.34547 -0.4591,0.99377 -0.2676,1.2244 0.2133,0.25696 0.7988,0.21831 0.9753,-0.0643 0.1732,-0.2773 0.9243,-0.3425 0.9243,-0.0803 0,0.24355 -0.5123,0.66802 -0.9618,0.79694 -0.5442,0.1561 -0.9257,0.13971 -1.3839,-0.0595 z m 3.4605,0.005 c -0.4701,-0.20457 -0.5491,-0.3363 -0.5413,-0.90176 0.014,-0.95339 0.5739,-1.52036 1.6093,-1.627223 1.2035,-0.124205 1.7567,0.351983 1.5694,1.350803 -0.1911,1.01827 -1.5795,1.63854 -2.6374,1.17818 z m 1.4717,-0.56617 c 0.265,-0.21983 0.432,-0.98053 0.2784,-1.26753 -0.1787,-0.33388 -0.8393,-0.34953 -1.1314,-0.0268 -0.3109,0.34368 -0.3799,1.10791 -0.1229,1.36478 0.2157,0.21585 0.6706,0.18301 0.9759,-0.0704 z m 3.9573,0.52916 c -0.3708,-0.18525 -0.4207,-0.26664 -0.4557,-0.74343 -0.076,-1.03158 0.681,-1.784672 1.7927,-1.784672 0.6259,0 0.9981,0.240372 1.1015,0.711342 0.1641,0.74723 0.043,0.83537 -1.1457,0.83537 -1.056,0 -1.0697,0.003 -0.9874,0.26771 0.046,0.14723 0.1433,0.30703 0.2164,0.35511 0.2224,0.14656 0.6304,0.10128 0.787,-0.0874 0.081,-0.0982 0.3355,-0.17847 0.5644,-0.17847 0.4047,0 0.4115,0.008 0.2404,0.2677 -0.3482,0.52975 -1.4089,0.70878 -2.1136,0.35676 z m 1.6657,-1.68253 c 0,-0.3854 -0.6768,-0.50869 -1.0029,-0.18269 -0.3115,0.31154 -0.215,0.40792 0.408,0.40792 0.5043,0 0.5949,-0.0343 0.5949,-0.22523 z m 6.8157,1.72226 c -0.8813,-0.39922 -0.5453,-1.9597 0.5176,-2.40378 1.0534,-0.44014 1.947,-0.0265 1.947,0.90134 l 0,0.48132 -1.0708,0 c -0.9519,0 -1.0708,0.0239 -1.0708,0.21417 0,0.47037 0.6388,0.67674 0.9943,0.32124 0.2149,-0.21493 0.9516,-0.24582 0.882,-0.0369 -0.1747,0.52398 -1.5008,0.83916 -2.1993,0.52269 z m 1.7507,-1.56433 c 0,-0.0371 -0.055,-0.17088 -0.1231,-0.29746 -0.1528,-0.28549 -0.6697,-0.30324 -0.968,-0.0333 -0.3492,0.31601 -0.2593,0.39799 0.4368,0.39799 0.3599,0 0.6543,-0.0303 0.6543,-0.0673 z m 1.8443,1.65379 c -0.1309,-0.035 -0.3636,-0.17865 -0.517,-0.31935 -0.234,-0.21445 -0.2698,-0.3398 -0.2214,-0.77508 0.1067,-0.95852 0.8422,-1.562335 1.9038,-1.562679 0.4472,-1.26e-4 0.6336,0.06297 0.8626,0.291849 0.4165,0.41661 0.3813,0.65979 -0.096,0.65979 -0.2589,0 -0.4371,-0.079 -0.5363,-0.23796 -0.1868,-0.2989 -0.6421,-0.30715 -0.9052,-0.0164 -0.291,0.32159 -0.4482,0.95238 -0.3042,1.22138 0.1641,0.3066 0.7764,0.29703 0.9714,-0.0153 0.1055,-0.16902 0.2774,-0.23796 0.5933,-0.23796 0.4347,0 0.4416,0.007 0.3052,0.30637 -0.077,0.16851 -0.2889,0.38356 -0.4713,0.47792 -0.3723,0.19248 -1.2237,0.30384 -1.5851,0.20731 z m 6.87,-0.0915 c -1.1067,-0.50091 -0.4814,-2.31076 0.8685,-2.513173 1.1995,-0.179892 1.9276,0.298683 1.7874,1.175023 -0.1436,0.8985 -0.68,1.35598 -1.7096,1.45813 -0.3496,0.0346 -0.7039,-0.0103 -0.9463,-0.11998 z m 1.2018,-0.43725 c 0.3539,-0.16129 0.5652,-0.53208 0.579,-1.01653 0.015,-0.50644 -0.098,-0.63601 -0.549,-0.63601 -0.5008,0 -0.7855,0.31365 -0.8724,0.96069 -0.054,0.40243 -0.024,0.5354 0.1518,0.66362 0.2658,0.19435 0.321,0.19661 0.6906,0.0282 z m 4.1829,0.52938 c -0.1309,-0.0352 -0.3636,-0.17919 -0.517,-0.31989 -0.2338,-0.21445 -0.2696,-0.3398 -0.2213,-0.77508 0.1147,-1.02886 0.8718,-1.605486 2.0128,-1.53239 0.8884,0.05689 1.1645,0.29658 1.1645,1.01067 0,0.6206 -0.2559,1.10846 -0.7276,1.3871 -0.3563,0.21043 -1.3083,0.33814 -1.7114,0.22959 z m 1.2827,-0.74399 c 0.2779,-0.26592 0.4014,-1.02229 0.2053,-1.25846 -0.2191,-0.26416 -0.7855,-0.22122 -1.067,0.0809 -0.1334,0.14322 -0.2433,0.31723 -0.2442,0.38669 0,0.0695 -0.032,0.2418 -0.071,0.38298 -0.096,0.35836 0.3488,0.79436 0.7029,0.68878 0.1438,-0.0429 0.357,-0.16931 0.4736,-0.2809 z m 7.6133,0.74488 c -0.3318,-0.0714 -0.746,-0.58471 -0.746,-0.92438 0,-0.46751 0.5145,-1.28941 0.9499,-1.51734 0.8458,-0.442717 2.1435,-0.136671 2.1435,0.5055 0,0.32859 -0.7178,0.32189 -0.9242,-0.009 -0.3919,-0.627428 -1.2574,0.0151 -1.1934,0.88589 0.033,0.44717 0.063,0.48505 0.4172,0.51928 0.27,0.0262 0.4432,-0.0349 0.5916,-0.20822 0.1321,-0.15435 0.3534,-0.24512 0.5973,-0.24512 0.373,0 0.3822,0.0115 0.2478,0.30636 -0.077,0.16851 -0.2888,0.38356 -0.4713,0.47791 -0.3665,0.18955 -1.2004,0.2975 -1.6124,0.20876 z m 3.2425,-0.10839 c -0.4532,-0.23628 -0.5342,-0.37158 -0.5363,-0.89678 0,-0.88772 0.8655,-1.652993 1.8779,-1.65336 1.0107,-3.55e-4 1.4428,0.46542 1.2922,1.39309 -0.1687,1.03968 -1.6288,1.6811 -2.6338,1.15705 z m 1.5119,-0.6176 c 0.2692,-0.23632 0.3869,-0.88944 0.2173,-1.20633 -0.1809,-0.33791 -0.7538,-0.33263 -1.0729,0.0103 -0.1335,0.14322 -0.2433,0.31723 -0.2443,0.38669 0,0.0695 -0.032,0.2418 -0.07,0.38298 -0.096,0.35941 0.349,0.79487 0.7029,0.68714 0.1438,-0.0438 0.3542,-0.16097 0.4675,-0.26037 z m -63.6808,0.63841 c 0,-0.0255 0.1067,-0.56682 0.238,-1.20289 0.1309,-0.63606 0.2379,-1.17736 0.2379,-1.20287 0,-0.0255 0.1933,-0.04646 0.4293,-0.04646 0.3841,0 0.4229,0.02822 0.3678,0.26771 -0.034,0.14723 -0.1545,0.7094 -0.268,1.24927 l -0.2066,0.98157 -0.3991,0 c -0.2197,0 -0.3993,-0.0209 -0.3993,-0.0463 z m 4.9227,-0.16183 c 0.033,-0.11446 0.1514,-0.67669 0.2623,-1.24927 l 0.2017,-1.041058 0.3902,0 c 0.2146,0 0.4079,0.05185 0.4298,0.115338 0.023,0.0677 0.2624,0.0351 0.5787,-0.0789 0.3313,-0.119365 0.6655,-0.16256 0.8669,-0.112059 0.4971,0.124779 0.5813,0.505669 0.3578,1.619659 l -0.1914,0.95449 -0.4144,0 c -0.4049,0 -0.4125,-0.009 -0.3325,-0.38668 0.045,-0.21267 0.1112,-0.65948 0.1485,-0.99292 0.055,-0.50051 0.031,-0.61982 -0.1358,-0.68402 -0.5715,-0.21934 -1.0233,0.22704 -1.1855,1.17129 -0.1467,0.8543 -0.1732,0.89233 -0.6205,0.89233 -0.3404,0 -0.4053,-0.0381 -0.3558,-0.20821 z m 6.025,0 c 0,-0.17935 0.079,-0.55704 0.4171,-2.02262 0.048,-0.21144 0.1446,-0.267708 0.4564,-0.267708 l 0.3946,0 -0.2427,1.249268 -0.2429,1.24927 -0.392,0 c -0.2948,0 -0.3917,-0.0517 -0.3905,-0.20821 z m 1.7871,0.11898 c 0,-0.0491 0.08,-0.43724 0.1744,-0.86259 0.2232,-1.01502 0.2201,-1.0708 -0.06,-1.0708 -0.1586,0 -0.238,-0.0794 -0.238,-0.23796 0,-0.17351 0.079,-0.237958 0.293,-0.237958 0.2407,0 0.3155,-0.0843 0.4203,-0.473894 0.1471,-0.545844 0.4075,-0.722856 1.1081,-0.753538 0.4259,-0.01858 0.4987,0.01273 0.4987,0.214954 0,0.168031 -0.1,0.254398 -0.3451,0.297444 -0.2002,0.03521 -0.3812,0.160496 -0.4312,0.298614 -0.1154,0.318652 -0.041,0.41642 0.3162,0.41642 0.4604,0 0.3243,0.406278 -0.1517,0.452678 -0.3649,0.0356 -0.3757,0.0548 -0.5827,1.04106 l -0.2108,1.0048 -0.3979,0 c -0.2188,0 -0.396,-0.0401 -0.3937,-0.0892 z m 2.1807,-1.12391 0.2543,-1.2259 0.3866,-0.0373 c 0.4611,-0.0445 0.4628,-0.03028 0.1686,1.40553 l -0.2071,1.01131 -0.4283,0.0361 -0.4283,0.0361 0.2542,-1.22589 z m 16.4948,1.10727 c 0,-0.13976 0.4623,-2.393012 0.5458,-2.660371 0.056,-0.181153 -0.022,-0.20821 -0.5973,-0.20821 -0.6797,0 -0.7633,-0.07455 -0.5902,-0.525669 0.061,-0.159888 0.3373,-0.188195 1.8339,-0.188195 l 1.7617,0 -0.087,0.327185 c -0.08,0.301069 -0.1398,0.329996 -0.7479,0.362421 l -0.6608,0.03521 -0.2015,1.035569 c -0.3732,1.91911 -0.3771,1.92792 -0.8449,1.92792 -0.2264,0 -0.4117,-0.0477 -0.4117,-0.10586 z m 8.9679,-0.10231 c 0.033,-0.11447 0.1514,-0.67669 0.2622,-1.24927 l 0.2017,-1.041065 0.3903,0 c 0.2146,0 0.408,0.05187 0.4298,0.115335 0.024,0.0677 0.2624,0.0351 0.5787,-0.0789 0.3313,-0.119363 0.6655,-0.162557 0.8669,-0.112056 0.4971,0.124776 0.5813,0.505666 0.3579,1.619666 l -0.1915,0.95448 -0.4144,0 c -0.4048,0 -0.4124,-0.009 -0.3326,-0.38668 0.045,-0.21267 0.1113,-0.65948 0.1487,-0.99292 0.055,-0.5005 0.031,-0.61982 -0.1358,-0.68402 -0.5716,-0.21933 -1.0234,0.22705 -1.1856,1.17129 -0.1466,0.8543 -0.1731,0.89233 -0.6205,0.89233 -0.3404,0 -0.4053,-0.0381 -0.3558,-0.20821 z m 7.6141,-1.59988 0.3723,-1.82075 0.3868,-0.03728 c 0.4762,-0.04588 0.4749,-0.09623 0.049,2.00043 l -0.3262,1.6062 -0.4271,0.0361 -0.4273,0.0361 0.3723,-1.82073 z m 8.6414,1.69689 c 0,-0.10426 0.2807,-1.52666 0.4183,-2.11964 0.049,-0.21566 0.1442,-0.267705 0.4843,-0.267705 0.3458,0 0.4111,0.03762 0.3615,0.208205 -0.033,0.11447 -0.1514,0.6767 -0.2623,1.24928 l -0.2016,1.04106 -0.4001,0 c -0.2201,0 -0.4001,-0.05 -0.4001,-0.11126 z m -44.7637,-3.223683 c 0.2347,-0.213543 0.5173,-0.352544 0.7138,-0.351179 0.3019,0.0023 0.2846,0.02787 -0.2395,0.356926 -0.7226,0.453834 -0.9762,0.45076 -0.4743,-0.0057 z m 39.3653,-0.0069 c 0.2508,-0.250832 0.4577,-0.354656 0.652,-0.327186 0.2546,0.03601 0.2258,0.07478 -0.2719,0.367433 -0.7237,0.425389 -0.8341,0.41369 -0.3801,-0.04026 z m -50.6404,0.146388 c 0,-0.342738 0.1695,-0.49282 0.5564,-0.49282 0.3592,0 0.4071,0.0343 0.374,0.267692 -0.031,0.215034 -0.1259,0.274964 -0.4843,0.304636 -0.2453,0.0203 -0.4461,-0.01548 -0.4461,-0.07949 z m 14.7242,-0.195387 c 0.049,-0.25808 0.1196,-0.297433 0.5316,-0.297433 0.384,0 0.461,0.03601 0.4026,0.188195 -0.04,0.103457 -0.072,0.237355 -0.072,0.297445 0,0.0601 -0.2066,0.109306 -0.4593,0.109306 -0.426,0 -0.4554,-0.02168 -0.4026,-0.297456 z m 41.9309,0.02971 c 0.031,-0.215023 0.1258,-0.274964 0.4842,-0.304625 0.4455,-0.03682 0.5101,0.02936 0.3739,0.384133 -0.046,0.121464 -0.2182,0.188195 -0.4842,0.188195 -0.3591,0 -0.4071,-0.0343 -0.3739,-0.267703 z m -59.9336,-2.946743 c -0.6131,-0.188448 -0.9094,-0.606967 -0.9042,-1.277073 0.011,-1.183068 0.6859,-2.140399 1.7074,-2.415455 0.9697,-0.261142 1.9994,0.151011 1.9994,0.800334 0,0.243503 -0.057,0.276707 -0.4759,0.276707 -0.3275,0 -0.4759,-0.05173 -0.4759,-0.165737 0,-0.402518 -0.9694,-0.422361 -1.364,-0.02787 -0.2842,0.284288 -0.5378,0.977036 -0.5391,1.472677 0,0.697336 0.9598,0.983815 1.4974,0.446172 0.2056,-0.205457 0.428,-0.297444 0.7194,-0.297444 l 0.422,0 -0.2233,0.382458 c -0.4065,0.696086 -1.5029,1.069689 -2.3632,0.805277 z m 3.5453,-0.05678 c -0.4889,-0.212499 -0.6677,-0.64516 -0.5092,-1.231836 0.246,-0.909836 0.8241,-1.326897 1.8391,-1.326897 1.0191,0 1.4903,0.492945 1.3232,1.384165 -0.193,1.028375 -1.5782,1.641684 -2.6531,1.174568 z m 1.609,-0.809498 c 0.2304,-0.482061 0.2599,-0.678514 0.1465,-0.976922 -0.09,-0.234957 -0.1959,-0.296412 -0.5136,-0.296412 -0.2312,0 -0.4805,0.0882 -0.5887,0.208221 -0.4077,0.452412 -0.4063,1.396129 0,1.485696 0.3372,0.07398 0.8189,-0.138474 0.9536,-0.420583 z m 5.5042,0.854815 c -0.3139,-0.125295 -0.4745,-0.310795 -0.4775,-0.551682 0,-0.210435 0.69,-0.187725 0.9076,0.02971 0.2301,0.230128 0.5672,0.227903 0.7605,-0.0046 0.2076,-0.250143 0.045,-0.388583 -0.6676,-0.564586 -0.6152,-0.15218 -0.7313,-0.321094 -0.5947,-0.865356 0.1554,-0.619445 1.7115,-0.907553 2.21,-0.409182 0.3426,0.342693 0.2947,0.475925 -0.1715,0.475925 -0.2251,0 -0.4425,-0.05356 -0.483,-0.118976 -0.04,-0.06549 -0.231,-0.118986 -0.4234,-0.118986 -0.2639,0 -0.3498,0.05528 -0.3498,0.225127 0,0.175475 0.1508,0.261819 0.684,0.39145 0.6108,0.148464 0.6883,0.201707 0.7226,0.496421 0.054,0.467162 -0.2589,0.877078 -0.7809,1.022044 -0.5435,0.150919 -0.946,0.148843 -1.3363,-0.0069 z m 3.2379,-0.03888 c -0.4886,-0.220494 -0.6671,-0.654313 -0.5091,-1.238271 0.1616,-0.597802 0.4004,-0.904938 0.8808,-1.132922 0.4555,-0.216181 1.2841,-0.255889 1.6174,-0.07753 0.2763,0.147856 0.4996,0.777452 0.4069,1.146903 -0.069,0.27189 -0.1135,0.283337 -1.129,0.283337 -1.1152,0 -1.2913,0.106553 -0.8709,0.526907 0.2341,0.23404 0.5323,0.238444 0.8313,0.01227 0.3238,-0.244833 1.0207,-0.244363 0.9267,5.62e-4 -0.1838,0.479079 -1.5034,0.772279 -2.1541,0.478654 z m 1.6159,-1.689834 c -0.096,-0.489218 -1.0527,-0.497797 -1.1467,-0.01032 -0.033,0.173503 0.056,0.205756 0.5727,0.205756 0.5043,0 0.6056,-0.03452 0.574,-0.195467 z m 6.9608,1.69378 c -0.4981,-0.224658 -0.671,-0.570367 -0.5736,-1.146789 0.1554,-0.919814 0.8506,-1.422325 1.9675,-1.422325 0.5133,0 0.6621,0.05414 0.9557,0.347773 0.1913,0.19128 0.3466,0.472369 0.3452,0.624641 0,0.482302 -0.4356,1.262575 -0.8023,1.452181 -0.5295,0.273817 -1.45,0.344103 -1.8925,0.144519 z m 1.6239,-0.897047 c 0.077,-0.184296 0.1216,-0.515449 0.1009,-0.735886 -0.035,-0.366572 -0.076,-0.403872 -0.4709,-0.436905 -0.3514,-0.02936 -0.4797,0.02386 -0.6842,0.28375 -0.3563,0.453077 -0.3476,1.21173 0.016,1.346063 0.3895,0.144094 0.8793,-0.07134 1.039,-0.457022 z m 7.8817,0.879211 c -0.3436,-0.240703 -0.3369,-0.669075 0.017,-1.080505 0.245,-0.284873 0.3873,-0.333792 1.1005,-0.378374 0.8185,-0.05116 1.0296,-0.156677 0.9143,-0.456977 -0.071,-0.185156 -0.8184,-0.217799 -0.928,-0.04049 -0.04,0.06549 -0.2596,0.118975 -0.4872,0.118975 -0.369,0 -0.4005,-0.02432 -0.2929,-0.225449 0.2505,-0.467987 1.7215,-0.667033 2.2408,-0.303213 0.3067,0.214782 0.33,0.578441 0.1067,1.658946 -0.1356,0.655116 -0.1757,0.71711 -0.4876,0.753147 -0.1869,0.02156 -0.3742,-0.01629 -0.416,-0.08407 -0.051,-0.08281 -0.2315,-0.06813 -0.5484,0.04473 -0.6181,0.220162 -0.8973,0.218636 -1.2189,-0.0069 z m 1.7284,-0.625157 c 0.3566,-0.448122 -0.032,-0.649978 -0.7357,-0.382355 -0.3212,0.122061 -0.4224,0.533079 -0.1566,0.635056 0.2368,0.09084 0.7303,-0.04886 0.8923,-0.252701 z m 2.3498,0.725207 c -0.4148,-0.10036 -0.7732,-0.525588 -0.773,-0.917153 0,-0.523948 0.3515,-1.150848 0.8204,-1.464109 0.5863,-0.391691 1.578,-0.380692 1.9807,0.02202 0.4167,0.416615 0.3814,0.659796 -0.095,0.659796 -0.259,0 -0.4371,-0.07903 -0.5364,-0.237962 -0.4504,-0.721423 -1.6244,0.429369 -1.216,1.19222 0.1705,0.318812 0.7784,0.317287 0.9781,-0.0023 0.1732,-0.277292 0.9242,-0.342486 0.9242,-0.08029 0,0.536427 -1.2434,1.030818 -2.0822,0.827907 z m 4.8783,-0.04163 c -0.4757,-0.141846 -0.6545,-0.414332 -0.654,-0.996454 0,-0.964283 0.7402,-1.613217 1.8378,-1.613217 1.058,0 1.4933,0.457768 1.3189,1.386942 -0.1827,0.974146 -1.3778,1.558081 -2.5027,1.222729 z m 1.2528,-0.588981 c 0.3195,-0.171002 0.5407,-0.956862 0.3626,-1.289277 -0.1722,-0.322024 -0.8387,-0.350366 -1.1118,-0.04725 -0.2466,0.273621 -0.3695,0.789174 -0.2763,1.160036 0.06,0.235852 0.1496,0.297444 0.4371,0.297444 0.1993,0 0.4642,-0.05437 0.5884,-0.120914 z m 5.4991,0.596999 c -0.2718,-0.113206 -0.3602,-0.572339 -0.1938,-1.006147 0.1252,-0.326337 0.7102,-0.54074 1.4752,-0.54074 0.6869,0 0.7259,-0.01514 0.69,-0.267703 -0.028,-0.194951 -0.1308,-0.278302 -0.3796,-0.306746 -0.188,-0.02145 -0.3995,0.01869 -0.47,0.08923 -0.071,0.07054 -0.3383,0.128289 -0.595,0.128289 -0.41,0 -0.4479,-0.0226 -0.3121,-0.186314 0.3962,-0.477278 1.4702,-0.683986 2.1706,-0.417705 0.4037,0.153488 0.4545,0.489069 0.2377,1.570228 l -0.1881,0.937443 -0.3957,0 c -0.3029,0 -0.3796,-0.04186 -0.3272,-0.178469 0.086,-0.223418 -0.012,-0.225861 -0.3479,-0.0092 -0.357,0.22991 -1.0375,0.323411 -1.3641,0.187426 z m 1.6658,-0.737561 c 0.3286,-0.380106 0.257,-0.490273 -0.2724,-0.419264 -0.5177,0.06939 -0.8283,0.25995 -0.8283,0.50812 0,0.357913 0.7679,0.295919 1.1007,-0.08889 z m 5.4713,0.733042 c -0.7613,-0.305783 -0.5411,-1.901932 0.3335,-2.418574 0.4094,-0.241748 1.0647,-0.251279 1.3705,-0.01996 0.3422,0.258746 0.3748,0.232836 0.465,-0.368361 0.1225,-0.81661 0.1653,-0.877124 0.6196,-0.877124 0.3355,0 0.4006,0.03854 0.3522,0.20821 -0.033,0.114468 -0.2075,0.944394 -0.3882,1.844159 l -0.3289,1.63596 -0.393,0 c -0.2701,0 -0.3931,-0.05586 -0.3931,-0.178469 0,-0.222604 0.023,-0.225139 -0.5354,0.05953 -0.5091,0.25956 -0.6938,0.27876 -1.1022,0.114583 z m 1.6346,-0.792306 c 0.3611,-0.458995 0.301,-1.268539 -0.099,-1.325073 -0.7048,-0.09979 -1.0885,0.286674 -1.0885,1.096184 0,0.486924 0.062,0.549629 0.5465,0.549629 0.2797,0 0.4585,-0.08958 0.6403,-0.32074 z m 2.1734,0.744316 c -0.4886,-0.220494 -0.6671,-0.654324 -0.5091,-1.238271 0.1616,-0.597813 0.4004,-0.904949 0.8809,-1.132933 0.4555,-0.216181 1.284,-0.255889 1.6173,-0.07753 0.2763,0.147856 0.4996,0.777464 0.4069,1.146915 -0.069,0.271889 -0.1135,0.283336 -1.1289,0.283336 -1.1152,0 -1.2914,0.106554 -0.871,0.526908 0.2341,0.234028 0.5323,0.238432 0.8314,0.01227 0.3237,-0.244832 1.0207,-0.244362 0.9266,5.62e-4 -0.1838,0.479067 -1.5034,0.772279 -2.1541,0.478655 z m 1.5805,-1.618561 c 0.1113,-0.17973 -0.1698,-0.470705 -0.4545,-0.470705 -0.249,0 -0.6789,0.313066 -0.6789,0.494356 0,0.145585 1.0424,0.123838 1.1334,-0.02363 z m 8.298,1.71212 c -0.146,-0.03143 -0.3786,-0.200801 -0.517,-0.376368 -0.4771,-0.605291 -0.1113,-1.644643 0.7313,-2.073977 0.6579,-0.335489 1.6347,-0.235898 1.9231,0.196098 0.048,0.07203 0.088,0.358451 0.09,0.636569 l 0,0.505654 -1.0708,0 c -0.9954,0 -1.0708,0.01698 -1.0708,0.240509 0,0.143658 0.1248,0.297364 0.3099,0.381712 0.2552,0.116291 0.3723,0.105407 0.664,-0.06205 0.4097,-0.235141 0.9731,-0.273691 0.9024,-0.06171 -0.1441,0.432202 -1.2298,0.771545 -1.9633,0.613595 z m 1.5146,-1.751828 c 0,-0.484022 -0.8593,-0.560858 -1.1611,-0.103801 -0.1761,0.26682 -0.1745,0.267692 0.4922,0.267692 0.4888,0 0.6689,-0.04416 0.6689,-0.163891 z m 1.6061,1.749121 c -0.3506,-0.09451 -0.5353,-0.276936 -0.5353,-0.528995 0,-0.297742 0.6828,-0.311345 0.8974,-0.01789 0.1219,0.166839 0.2139,0.183091 0.4891,0.08637 0.5222,-0.183664 0.4176,-0.440368 -0.2562,-0.628368 -0.3272,-0.0913 -0.6618,-0.220104 -0.7436,-0.28625 -0.2275,-0.18386 -0.1781,-0.519578 0.1286,-0.876126 0.2224,-0.258585 0.4048,-0.332576 0.922,-0.374016 0.79,-0.06331 1.2992,0.109994 1.2992,0.442215 0,0.195994 -0.078,0.240898 -0.4164,0.240898 -0.2291,0 -0.4164,-0.05689 -0.4164,-0.126522 0,-0.07111 -0.1694,-0.110224 -0.3867,-0.08924 -0.6156,0.0593 -0.4823,0.355676 0.256,0.569311 0.3535,0.10231 0.6973,0.272406 0.7639,0.378054 0.1521,0.241151 -0.069,0.821427 -0.3884,1.021138 -0.2622,0.163741 -1.2694,0.282006 -1.6132,0.189411 z m 3.3315,0.0011 c -0.4201,-0.112174 -0.7734,-0.533904 -0.7732,-0.923106 0,-0.937742 0.8207,-1.734188 1.786,-1.734188 0.8099,0 1.1883,0.324869 1.1883,1.019957 l 0,0.526758 -1.0709,0 c -0.985,0 -1.0707,0.0187 -1.0707,0.233764 0,0.128576 0.1125,0.293763 0.2489,0.367054 0.2716,0.145333 0.8218,0.06022 0.8218,-0.127176 0,-0.06423 0.1919,-0.116704 0.4265,-0.116704 0.483,0 0.4965,0.161046 0.042,0.497728 -0.3021,0.223832 -1.1878,0.36562 -1.5986,0.255913 z m 1.4872,-1.741161 c 0,-0.434106 -0.7063,-0.591608 -1.0911,-0.243319 -0.3493,0.316014 -0.2594,0.397988 0.4367,0.397988 0.4577,0 0.6544,-0.04657 0.6544,-0.154669 z m 8.7451,1.693527 c -0.4758,-0.141846 -0.6547,-0.414332 -0.6541,-0.996455 5e-4,-0.964271 0.7402,-1.613205 1.8379,-1.613205 1.0579,0 1.4932,0.457768 1.3189,1.38693 -0.1827,0.974147 -1.378,1.558093 -2.5027,1.22273 z m 1.2527,-0.58897 c 0.3195,-0.171002 0.5406,-0.956873 0.3627,-1.289277 -0.177,-0.330741 -0.839,-0.349723 -1.1264,-0.03235 -0.2713,0.299911 -0.3832,1.03333 -0.1925,1.263023 0.1713,0.206592 0.6275,0.23451 0.9562,0.05849 z m 14.2144,0.593489 c -0.464,-0.144232 -0.6547,-0.418507 -0.6541,-0.941481 0,-0.917531 0.8213,-1.671482 1.8194,-1.67225 0.7564,-5.62e-4 1.1547,0.36671 1.1547,1.06494 l 0,0.481327 -1.0708,0 c -0.9519,0 -1.0708,0.02386 -1.0708,0.214163 0,0.464432 0.6507,0.684042 0.9517,0.321244 0.1786,-0.215058 0.9948,-0.247712 0.9246,-0.03693 -0.1545,0.463296 -1.3392,0.791422 -2.0547,0.569036 z m 1.5226,-1.618504 c 0.159,-0.158982 -0.1718,-0.519762 -0.4764,-0.519762 -0.3056,0 -0.7489,0.292627 -0.7489,0.494357 0,0.115626 1.112,0.13868 1.2253,0.02535 z m 5.4375,1.585219 c -0.323,-0.165187 -0.3489,-0.371734 -0.1785,-1.420858 0.086,-0.526483 0.075,-0.565147 -0.1623,-0.565147 -0.1397,0 -0.254,-0.04921 -0.254,-0.109307 0,-0.288933 0.1704,-0.485639 0.4208,-0.485639 0.192,0 0.2881,-0.07834 0.3145,-0.256371 0.025,-0.173113 0.1799,-0.305301 0.4752,-0.407072 l 0.4372,-0.150712 -0.066,0.407072 c -0.064,0.393239 -0.053,0.407083 0.3192,0.407083 0.3024,0 0.3696,0.04049 0.313,0.188195 -0.04,0.103457 -0.072,0.237366 -0.072,0.297444 0,0.0601 -0.1803,0.109307 -0.4006,0.109307 -0.3884,0 -0.4046,0.01927 -0.5246,0.624641 -0.1352,0.680969 -0.045,0.922073 0.3449,0.922073 0.2921,0 0.2876,0.314202 -0.012,0.471727 -0.3043,0.162893 -0.5969,0.152995 -0.9596,-0.03246 z m 2.4392,0.02879 c -0.4757,-0.141846 -0.6545,-0.414332 -0.6541,-0.996455 6e-4,-0.960199 0.7403,-1.613205 1.8265,-1.613205 1.1282,0 1.6217,0.565469 1.3049,1.495457 -0.2033,0.596253 -0.4572,0.849562 -1.0715,1.068656 -0.5194,0.185214 -0.8964,0.197429 -1.4058,0.04554 z m 1.5342,-0.989596 c 0.3121,-0.639127 0.1635,-1.069701 -0.3875,-1.122783 -0.2505,-0.02409 -0.4781,0.03647 -0.6202,0.165061 -0.2592,0.234613 -0.4075,0.867042 -0.29,1.237308 0.069,0.215183 0.1576,0.249065 0.5765,0.218555 0.4438,-0.03234 0.5192,-0.08442 0.7212,-0.498141 z m -104.9788,0.796778 c 0,-0.118665 0.101,-0.697611 0.2162,-1.286558 l 0.209,-1.070802 0.4541,-0.03785 c 0.3721,-0.03108 0.4411,-0.0046 0.3825,0.148717 -0.089,0.23358 0.037,0.235955 0.4723,0.0092 0.4843,-0.252528 1.0353,-0.225678 1.2967,0.0632 0.2028,0.224049 0.2078,0.311035 0.068,1.148967 -0.2038,1.213256 -0.2111,1.226159 -0.6867,1.226159 -0.3354,0 -0.4008,-0.03854 -0.3524,-0.20821 0.3814,-1.338872 0.331,-1.933393 -0.1636,-1.933393 -0.4438,0 -0.7667,0.429885 -0.9524,1.267955 -0.1743,0.787144 -0.1931,0.815393 -0.5651,0.851443 -0.3079,0.02982 -0.3834,-0.0057 -0.3777,-0.178469 z m 9.9871,0.146377 c 0,-0.02982 0.1605,-0.826669 0.3569,-1.770673 0.1963,-0.943992 0.3569,-1.74943 0.3569,-1.789861 0,-0.04049 0.1875,-0.07352 0.4165,-0.07352 0.2289,0 0.4164,0.01835 0.4164,0.04095 0,0.02248 -0.1606,0.833964 -0.357,1.803247 -0.1963,0.96926 -0.3569,1.780719 -0.3569,1.803235 0,0.02248 -0.1873,0.04095 -0.4164,0.04095 -0.229,0 -0.4164,-0.02443 -0.4164,-0.05425 z m 1.5913,-0.153912 c 0.033,-0.114468 0.2052,-0.944394 0.3819,-1.844171 l 0.3212,-1.635949 0.3995,0 c 0.4411,0 0.4536,0.03751 0.2735,0.818812 -0.067,0.286743 -0.096,0.545007 -0.068,0.57391 0.029,0.0289 0.2156,-0.03166 0.4147,-0.134677 0.3801,-0.19658 0.8148,-0.238845 1.1466,-0.111486 0.3465,0.132969 0.4029,0.545225 0.2146,1.567533 l -0.1796,0.974272 -0.4187,0 c -0.4099,0 -0.417,-0.008 -0.3371,-0.386679 0.045,-0.212671 0.1124,-0.661975 0.1493,-0.998439 0.061,-0.549996 0.041,-0.619869 -0.186,-0.69214 -0.6109,-0.193942 -0.9336,0.182563 -1.194,1.393135 -0.1449,0.674316 -0.153,0.684123 -0.563,0.684123 -0.3399,0 -0.4048,-0.03808 -0.3552,-0.20821 z m 9.1582,0.03383 c 0.037,-0.09589 0.2151,-0.928106 0.3961,-1.84932 l 0.3293,-1.674923 0.646,0.03487 c 0.6376,0.03441 0.6485,0.04129 0.809,0.510804 0.4146,1.212613 0.7853,2.089118 0.8548,2.020907 0.041,-0.04118 0.1848,-0.619789 0.3174,-1.285836 l 0.2411,-1.210984 0.3835,-0.03728 c 0.211,-0.02053 0.3835,0.01227 0.3835,0.07283 0,0.107356 -0.5281,2.785742 -0.6569,3.331632 -0.059,0.248366 -0.1218,0.270456 -0.6804,0.237951 l -0.6158,-0.0359 -0.4464,-1.179041 c -0.2456,-0.648464 -0.4934,-1.226056 -0.5509,-1.283519 -0.06,-0.05999 -0.2218,0.454682 -0.38,1.208782 l -0.2756,1.313271 -0.4108,0 c -0.312,0 -0.3948,-0.04198 -0.3439,-0.174385 z m 11.2994,-0.09336 c 0.036,-0.147237 0.1553,-0.736184 0.2671,-1.308764 l 0.2034,-1.041049 0.4002,0 c 0.2201,0 0.4001,0.0515 0.4001,0.114468 0,0.06297 -0.1147,0.651893 -0.2544,1.308752 l -0.2542,1.194319 -0.4129,0 c -0.3679,0 -0.4061,-0.02925 -0.3493,-0.267703 z m 5.197,0.08304 c 0,-0.101622 0.083,-0.57008 0.184,-1.041061 0.101,-0.470993 0.2093,-0.976796 0.2403,-1.124033 0.046,-0.216754 0.1366,-0.267703 0.4784,-0.267703 0.3681,0 0.4126,0.03051 0.3466,0.237951 -0.091,0.286468 0.025,0.305175 0.3087,0.04943 0.3319,-0.300404 1.1381,-0.360884 1.4192,-0.106439 0.272,0.24614 0.29,0.634826 0.077,1.663269 -0.145,0.700938 -0.1554,0.71453 -0.5736,0.749845 l -0.4258,0.03602 0.1803,-0.90612 c 0.1628,-0.818146 0.1622,-0.924195 -0.011,-1.092444 -0.2462,-0.246164 -0.7406,-0.120891 -0.983,0.249042 -0.1021,0.15499 -0.2456,0.609225 -0.32,1.009438 -0.1335,0.717764 -0.1406,0.727639 -0.5307,0.727639 -0.2781,0 -0.3955,-0.05482 -0.3955,-0.18472 z m 7.0197,0.08453 c 0,-0.05505 0.1607,-0.857923 0.357,-1.784046 0.1963,-0.926122 0.3569,-1.710915 0.3569,-1.743982 0,-0.03303 0.1933,-0.0601 0.4294,-0.0601 0.3853,0 0.4226,0.02741 0.3637,0.267703 -0.037,0.147237 -0.2116,0.977105 -0.39,1.844159 l -0.3246,1.576467 -0.3961,0 c -0.2179,0 -0.3963,-0.04508 -0.3963,-0.100131 z m 12.4173,-0.108044 c 0.033,-0.114468 0.2084,-0.948615 0.3902,-1.853553 l 0.3308,-1.645343 1.3932,0.03911 c 1.2806,0.03602 1.4179,0.06228 1.6981,0.325866 0.4075,0.383284 0.4912,0.921248 0.2641,1.696119 -0.374,1.2758 -1.0205,1.645986 -2.8747,1.645986 -1.1445,0 -1.2556,-0.01927 -1.2017,-0.20821 z m 2.5227,-0.679845 c 0.2833,-0.11839 0.4726,-0.307721 0.5911,-0.591069 0.2453,-0.587204 0.2178,-0.867547 -0.1179,-1.2033 -0.2376,-0.237584 -0.4112,-0.29203 -0.9313,-0.29203 l -0.6392,0 -0.1422,0.771992 c -0.078,0.424598 -0.1746,0.933234 -0.214,1.130295 -0.071,0.357374 -0.07,0.358291 0.4825,0.358291 0.3048,0 0.7416,-0.07834 0.971,-0.174179 z m 11.7112,0.782178 c 0,-0.05827 0.1067,-0.626305 0.238,-1.262381 0.1309,-0.636065 0.2379,-1.177355 0.2379,-1.202875 0,-0.02546 0.1874,-0.04634 0.4164,-0.04634 0.2909,0 0.4165,0.05379 0.4165,0.178469 0,0.220081 0.011,0.220104 0.4325,5.62e-4 0.4651,-0.242585 1.0355,-0.225403 1.2742,0.03842 0.2316,0.25582 0.241,0.649908 0.039,1.626578 -0.1451,0.700926 -0.1555,0.714518 -0.5736,0.749833 l -0.4259,0.03601 0.1785,-0.896737 c 0.1935,-0.972724 0.1147,-1.2573 -0.3496,-1.2573 -0.4232,0 -0.7681,0.500252 -0.9274,1.344986 -0.1504,0.796446 -0.1505,0.796629 -0.5533,0.796629 -0.2216,0 -0.4031,-0.0476 -0.4031,-0.105865 z m 4.1145,-0.755637 c -0.1066,-0.473837 -0.2267,-1.062773 -0.2661,-1.308764 -0.071,-0.446654 -0.071,-0.447239 0.3522,-0.447239 0.4685,0 0.4938,0.04083 0.6261,1.011308 0.139,1.020347 0.2111,1.016803 0.821,-0.04026 0.5314,-0.92134 0.5812,-0.971027 0.9731,-0.971027 0.2952,0 0.3894,0.04244 0.3302,0.148728 -0.046,0.08178 -0.41,0.670738 -0.81,1.308764 l -0.7271,1.160036 -0.5525,0 -0.5523,0 -0.1946,-0.861514 z m 6.4802,0.653304 c 0,-0.114468 0.1524,-0.931009 0.3318,-1.814418 l 0.3263,-1.606208 0.4237,-0.0359 0.4237,-0.0359 -0.3651,1.850284 -0.3652,1.850284 -0.3904,0 c -0.2947,0 -0.3891,-0.05104 -0.3848,-0.20821 z m 1.9167,-1.01132 c -0.1425,-0.670738 -0.2584,-1.262908 -0.2578,-1.315944 5e-4,-0.05299 0.2008,-0.07983 0.4446,-0.05953 0.4258,0.03544 0.4471,0.0585 0.5311,0.572328 0.1888,1.154611 0.231,1.313076 0.3335,1.249741 0.059,-0.03613 0.3271,-0.465912 0.5971,-0.955141 0.4628,-0.838345 0.5146,-0.889489 0.8992,-0.889489 0.2245,0 0.408,0.0273 0.408,0.06079 0,0.03349 -0.3546,0.622381 -0.7879,1.308764 l -0.7881,1.247963 -0.5604,0 -0.5602,0 -0.2591,-1.21953 z m 2.9198,0.832851 c 0.4429,-2.221341 0.4228,-2.1685 0.8392,-2.208632 0.4552,-0.04393 0.4578,-0.02913 0.2085,1.189536 -0.3073,1.501684 -0.2587,1.405775 -0.7135,1.405775 -0.4005,0 -0.4093,-0.01032 -0.3342,-0.386679 z m 1.5013,0.237951 c 0.032,-0.08178 0.1557,-0.670738 0.2755,-1.308753 l 0.2179,-1.160036 0.389,0 c 0.2663,0 0.3888,0.0562 0.3888,0.178469 0,0.219049 0.093,0.219049 0.4759,0 0.4463,-0.255086 1.0255,-0.223889 1.2286,0.06618 l 0.1715,0.244638 0.4004,-0.24419 c 0.7805,-0.475822 1.5369,-0.209288 1.5257,0.537643 0,0.191154 -0.071,0.668799 -0.1529,1.061431 -0.1453,0.701981 -0.1549,0.714471 -0.5763,0.749993 l -0.4286,0.03613 0.161,-0.749994 c 0.2385,-1.112459 0.2216,-1.267713 -0.1487,-1.360641 -0.4628,-0.116154 -0.8048,0.33799 -0.9887,1.31295 -0.1479,0.783577 -0.1488,0.784919 -0.5511,0.784919 -0.2216,0 -0.4011,-0.04014 -0.3988,-0.08923 0,-0.04909 0.078,-0.435311 0.1691,-0.858303 0.2193,-1.023305 0.042,-1.360974 -0.5843,-1.120167 -0.2474,0.09497 -0.487,0.571663 -0.5907,1.17536 -0.1468,0.854884 -0.1729,0.892344 -0.6224,0.892344 -0.286,0 -0.4001,-0.04703 -0.3609,-0.148728 z m 8.8931,-0.05953 c 0,-0.114468 0.1009,-0.690076 0.2161,-1.279012 l 0.2089,-1.070801 0.4541,-0.03785 c 0.3722,-0.03108 0.4411,-0.0046 0.3824,0.148716 -0.089,0.23357 0.037,0.235944 0.4726,0.0092 0.4841,-0.252529 1.0351,-0.225678 1.2966,0.0632 0.2027,0.224038 0.2079,0.311036 0.066,1.148956 -0.2039,1.213267 -0.2111,1.226171 -0.6866,1.226171 -0.3354,0 -0.4008,-0.03854 -0.3525,-0.20821 0.3807,-1.336154 0.331,-1.933405 -0.1607,-1.933405 -0.4798,0 -0.8074,0.445943 -0.9616,1.308925 l -0.1488,0.83269 -0.3974,0 c -0.3019,0 -0.3956,-0.05001 -0.3901,-0.20821 z m -64.1365,-2.987289 c 0,-0.342726 0.1694,-0.492819 0.5564,-0.492819 0.3591,0 0.407,0.03429 0.3739,0.267703 -0.031,0.215034 -0.1258,0.274964 -0.4843,0.304624 -0.2453,0.0203 -0.446,-0.01548 -0.446,-0.07949 z m 54.3008,-0.08614 c 0.04,-0.103457 0.072,-0.237355 0.072,-0.297445 0,-0.0601 0.1874,-0.109191 0.4165,-0.109191 0.3648,0 0.4163,0.03682 0.4163,0.297444 0,0.268988 -0.047,0.297444 -0.4886,0.297444 -0.3967,0 -0.4751,-0.03544 -0.4164,-0.188195 z m -95.3483,-7.485893 0,-4.699642 -2.0821,0 c -1.1453,0 -2.0822,-0.0203 -2.0822,-0.04513 0,-0.04989 0.4109,-0.977066 1.0263,-2.315313 0.2208,-0.480261 0.4014,-0.896356 0.4014,-0.924661 0,-0.02829 0.2142,-0.510707 0.476,-1.072008 0.2618,-0.561306 0.4759,-1.043171 0.4759,-1.070806 0,-0.02763 0.2141,-0.509499 0.4759,-1.070805 0.2617,-0.561306 0.476,-1.041778 0.476,-1.067724 0,-0.02594 0.1923,-0.462335 0.4277,-0.96976 0.6328,-1.364798 0.7331,-1.667269 0.8788,-2.647767 1.1864,-7.989563 4.9271,-12.493333 11.4652,-13.804015 0.6459,-0.129479 1.4332,-0.235418 1.7494,-0.235418 0.3162,0 0.6081,-0.05352 0.6485,-0.118976 0.093,-0.149899 1.4201,-0.156588 1.697,-0.0086 0.1136,0.06074 0.6671,0.168707 1.2299,0.239943 4.4853,0.567659 8.2615,3.221137 10.2613,7.21044 1.7915,3.573545 2.0194,8.180894 0.6118,12.368049 -0.1759,0.523504 -0.5309,1.388489 -0.7886,1.922189 l -0.4687,0.970363 0.4152,1.46869 c 0.5315,1.880131 1.8361,6.599996 2.3869,8.635461 0.2343,0.866137 0.4571,1.655854 0.4951,1.754931 0.06,0.154702 -0.1216,0.178661 -1.2821,0.169708 -0.7431,-0.0057 -1.6161,-0.04587 -1.94,-0.08924 l -0.5886,-0.07881 -0.2028,-0.713873 c -1.8333,-6.453469 -3.2005,-11.353384 -3.2005,-11.470161 0,-0.08078 0.2436,-0.548175 0.5414,-1.03867 2.1643,-3.565418 2.7131,-7.702317 1.4579,-10.98937 -1.0729,-2.809264 -3.3003,-4.922637 -6.2525,-5.932174 -2.4497,-0.83772 -6.0633,-0.782373 -8.3584,0.128025 -2.5281,1.00278 -4.2582,2.983023 -5.3308,6.101598 -0.3496,1.016208 -0.4635,1.492711 -0.7311,3.058239 -0.2201,1.287534 -0.3419,1.62191 -1.7277,4.740933 -0.82,1.845629 -1.4908,3.421885 -1.4908,3.502791 0,0.173075 0.7815,0.298415 1.8608,0.298415 l 0.7568,0 0,4.223727 0,4.223726 7.5405,0 c 5.8912,0 7.5659,0.03255 7.6565,0.148725 0.1067,0.137516 0.984,3.500799 0.984,3.774813 0,0.082 -3.2416,0.121722 -9.9347,0.121722 l -9.9346,0 0,-4.699641 z m 21.4286,3.777559 c -0.3058,-1.042998 -3.4163,-11.858319 -3.7164,-12.92106 l -0.23,-0.815019 0.5171,-0.493739 c 1.1044,-1.054681 1.9626,-2.435872 2.3028,-3.70615 0.2513,-0.938491 0.209,-2.783348 -0.084,-3.652471 -0.4495,-1.334172 -1.356,-2.389827 -2.5423,-2.960399 -1.0163,-0.488779 -1.8285,-0.62408 -3.3467,-0.557464 -1.1653,0.05112 -1.4066,0.100865 -2.1036,0.433532 -1.4312,0.683023 -2.2456,1.932329 -3.0522,4.68198 -0.2548,0.868401 -0.6831,2.12877 -0.9516,2.800824 -0.2686,0.672056 -0.4883,1.301152 -0.4883,1.397997 0,0.129361 0.1419,0.176073 0.5354,0.176073 l 0.5353,0 0,3.880686 0,3.88068 4.4618,-0.08805 c 2.5309,-0.04994 4.4618,-0.04307 4.4621,0.01583 0,0.05715 0.1876,0.904989 0.4164,1.884079 0.2287,0.979088 0.4159,1.822345 0.4159,1.873906 0,0.05157 -3.025,0.09374 -6.7222,0.09374 l -6.7223,0 0,-4.223727 0,-4.223727 -1.2977,0 -1.2978,0 0.3932,-0.922081 c 0.2163,-0.507145 0.8502,-1.953123 1.4088,-3.213284 0.7827,-1.765864 1.0474,-2.502426 1.155,-3.212411 0.4761,-3.142871 1.8488,-5.634794 3.8614,-7.010122 1.4009,-0.957289 2.3772,-1.263411 4.8789,-1.529786 1.8549,-0.197499 2.9127,-0.112014 4.0971,0.331128 3.4523,1.291655 5.981,5.153857 5.9791,9.131733 0,2.321851 -0.7236,4.208577 -2.2951,5.993813 l -0.4842,0.550154 1.7362,6.038063 c 0.9551,3.320935 1.8137,6.29238 1.9083,6.603206 l 0.1717,0.565149 -1.8335,0 -1.8334,0 -0.2354,-0.803101 z m 81.7804,-2.135805 c 0.045,-0.176767 0.3464,-1.633734 0.6713,-3.237708 0.3248,-1.603975 0.6244,-3.050707 0.6656,-3.214963 l 0.075,-0.298645 -0.3438,0.22519 c -0.189,0.123858 -0.4496,0.323924 -0.5791,0.444595 -0.3608,0.33619 -2.0649,1.134944 -2.8641,1.34256 -1.9984,0.519126 -4.0348,0.25986 -5.3035,-0.675198 -0.5279,-0.389148 -1.1062,-1.230066 -1.4081,-2.047468 -0.1988,-0.538291 -0.261,-0.973126 -0.2641,-1.848928 -0.011,-2.786418 0.9723,-5.381489 2.6842,-7.092253 1.2922,-1.291296 2.5224,-1.891819 4.2332,-2.06646 2.3157,-0.236358 4.1569,0.521821 5.1718,2.129587 0.1667,0.26402 0.3429,0.480037 0.3916,0.480037 0.049,0 0.2236,-0.522017 0.3885,-1.160039 l 0.2999,-1.160039 2.3356,-0.03222 2.3357,-0.03222 -0.1739,0.567626 c -0.3855,1.258098 -0.865,3.505117 -2.9089,13.628838 -0.4654,2.304848 -0.8706,4.230789 -0.9004,4.279867 -0.03,0.0491 -1.0743,0.08923 -2.3209,0.08923 l -2.2664,0 0.08,-0.321386 z m -0.8148,-7.231105 c 1.3255,-0.393652 2.3842,-1.509288 2.8815,-3.036574 1.1065,-3.398345 0.091,-5.420449 -2.6109,-5.197559 -0.9898,0.08165 -1.7015,0.413348 -2.4202,1.127842 -0.9999,0.994262 -1.6374,2.693795 -1.6365,4.362981 6e-4,1.105011 0.19,1.648611 0.7795,2.23816 0.6622,0.662195 1.8218,0.857021 3.0066,0.50515 z m -63.3528,2.661642 c -3.7289,-0.331486 -5.9923,-2.072972 -6.6327,-5.103326 -0.3578,-1.693554 -0.061,-4.506482 0.722,-6.838523 1.7541,-5.225612 6.2815,-8.077455 12.3006,-7.748284 3.318,0.181447 5.1727,1.21406 5.8985,3.283877 0.2145,0.611507 0.3788,2.432885 0.2617,2.899694 l -0.078,0.312716 -2.4369,0 -2.4367,0 0,-0.386675 c -0.011,-0.49587 -0.2675,-1.226599 -0.5486,-1.537509 -0.4421,-0.488806 -1.1206,-0.726462 -2.2421,-0.785298 -3.685,-0.193316 -5.8619,2.238976 -6.4976,7.2604 -0.2869,2.265464 0.2866,3.83303 1.6484,4.506354 0.4997,0.247057 0.7329,0.279624 1.9937,0.278449 1.365,-0.0011 1.4624,-0.01818 2.2188,-0.385647 0.9042,-0.439287 1.3787,-0.925582 1.8885,-1.935505 l 0.3577,-0.708721 2.4375,0 c 1.5963,0 2.4373,0.04239 2.4373,0.122818 0,0.25666 -0.7666,2.095873 -1.1367,2.72742 -0.424,0.723274 -1.5084,1.869124 -2.2542,2.381951 -0.8854,0.60875 -2.0735,1.10269 -3.407,1.416391 -0.4761,0.111991 -3.1475,0.397039 -3.3153,0.353757 -0.033,-0.0085 -0.5607,-0.0599 -1.1731,-0.114341 z m 12.7639,-0.433427 c 0.037,-0.114514 0.5987,-2.831681 1.2498,-6.038147 0.6513,-3.206461 1.4039,-6.900738 1.6726,-8.209495 0.5726,-2.78827 0.9541,-4.695682 0.9541,-4.769792 0,-0.02897 1.4567,-0.03842 3.237,-0.02098 l 3.237,0.03166 0.9936,2.677012 c 0.5465,1.472353 1.1481,3.078559 1.3371,3.569345 0.1889,0.490786 0.8591,2.281997 1.4893,3.980466 1.1181,3.013811 1.3472,3.577299 1.4213,3.49561 0.021,-0.02198 0.2553,-1.110738 0.5231,-2.419501 1.2342,-6.03332 2.2758,-11.19192 2.2764,-11.273189 0,-0.04904 0.992,-0.08923 2.2039,-0.08923 l 2.2034,0 -0.063,0.2677 c -0.061,0.260071 -1.4819,7.235216 -2.4535,12.046551 -0.2643,1.308757 -0.6906,3.393619 -0.9474,4.633025 -0.2568,1.239408 -0.4668,2.270917 -0.4668,2.292249 0,0.02131 -1.4514,0.02456 -3.2251,0.0071 l -3.2249,-0.03166 -0.2965,-0.773364 c -0.163,-0.425345 -0.4518,-1.188293 -0.6418,-1.695439 -0.19,-0.507145 -0.506,-1.350402 -0.7022,-1.873906 -0.1964,-0.523504 -0.5177,-1.380149 -0.7139,-1.903654 -0.1964,-0.523504 -0.5142,-1.36676 -0.7064,-1.873905 -0.1923,-0.507146 -0.546,-1.457482 -0.7862,-2.111864 -0.2401,-0.654382 -0.5698,-1.537794 -0.7327,-1.963139 -0.1627,-0.425351 -0.3508,-0.920594 -0.418,-1.100548 -0.068,-0.179954 -0.1626,-0.327191 -0.2119,-0.327191 -0.049,0 -0.1202,0.147237 -0.1577,0.327191 -0.2387,1.1458 -2.2726,11.113256 -2.4489,12.000869 -0.1186,0.596541 -0.253,1.14533 -0.2989,1.21953 -0.057,0.09248 -0.7572,0.134904 -2.2259,0.134904 -1.9863,0 -2.1379,-0.01521 -2.0768,-0.208209 z m 22.8395,0 c 0.057,-0.192856 1.0498,-5.038851 1.8584,-9.072092 0.1903,-0.948848 0.7231,-3.564401 1.1842,-5.812331 0.4609,-2.247936 0.8382,-4.108459 0.8382,-4.134499 0,-0.09835 10.0987,-0.03825 11.0649,0.06585 1.8285,0.197002 2.849,0.691965 3.5381,1.71611 0.5429,0.806898 0.6843,1.388154 0.6694,2.751368 -0.03,2.749584 -1.3664,5.426639 -3.2836,6.577322 -1.5283,0.917372 -2.5452,1.102271 -6.5956,1.199222 l -3.1761,0.07602 -0.5651,2.795988 c -0.3107,1.537794 -0.6261,3.077077 -0.7006,3.420626 l -0.1356,0.624634 -2.3791,0 c -2.2099,0 -2.3746,-0.01482 -2.3175,-0.20821 z m 11.7573,-10.511642 c 1.3742,-0.285078 2.0758,-1.009901 2.3686,-2.447165 0.3932,-1.929273 -0.6101,-2.466374 -4.4703,-2.393332 l -1.7804,0.03368 -0.4416,2.141605 c -0.2428,1.177886 -0.4709,2.288848 -0.5069,2.468802 l -0.065,0.327185 2.1328,0 c 1.173,0 2.4164,-0.05885 2.7633,-0.130788 z m -72.3271,1.700718 c -1.5754,-0.561686 -2.5148,-1.785383 -2.5295,-3.295113 -0.017,-1.787132 1.4264,-3.354787 3.2073,-3.482208 1.9395,-0.138774 3.5714,1.247695 3.7671,3.200611 0.2276,2.271884 -2.3306,4.330476 -4.4449,3.57671 z"
         transform="translate(220.67523,20.895343)"
         clip-path="url(#clipPath4252)"
         id="path4244"
         style="fill:#ffffff;fill-opacity:1" />
      <g
         id="text4246"
         style="font-size:36.00841522px;font-style:normal;font-weight:normal;line-height:125%;letter-spacing:0px;word-spacing:0px;fill:#ffffff;fill-opacity:1;stroke:none;font-family:Sans">
        <path
           d="m -1407.5131,30.543572 3.6395,0 0,27.93817 5.7143,0 0,3.006562 -9.3538,0 0,-30.944732"
           id="path4308"
           style="font-variant:normal;font-stretch:normal;fill:#ffffff;fill-opacity:1;stroke:none;font-family:Antonio;-inkscape-font-specification:Antonio Bold Italic" />
        <path
           d="m -1394.9945,30.543572 9.2482,0 0,3.024145 -5.6087,0 0,10.584504 5.3098,0 0,3.024145 -5.3098,0 0,11.287794 5.6791,0 0,3.024144 -9.3186,0 0,-30.944732"
           id="path4310"
           style="font-variant:normal;font-stretch:normal;fill:#ffffff;fill-opacity:1;stroke:none;font-family:Antonio;-inkscape-font-specification:Antonio Bold Italic" />
        <path
           d="m -1378.098,30.543572 4.378,0 5.1164,30.944732 -3.4285,0 -0.8791,-5.90763 -5.6088,0 -0.8088,5.90763 -3.4637,0 4.6945,-30.944732 m -0.018,22.083286 4.7472,0 -2.4439,-16.351477 -0.053,0 -2.2505,16.351477"
           id="path4312"
           style="font-variant:normal;font-stretch:normal;fill:#ffffff;fill-opacity:1;stroke:none;font-family:Antonio;-inkscape-font-specification:Antonio Bold Italic" />
        <path
           d="m -1356.7532,30.543572 3.622,0 0,22.997562 c 0,2.895213 -0.4572,5.005079 -1.3714,6.329605 -0.9026,1.324528 -2.4733,1.986792 -4.7121,1.986792 -2.2388,0 -3.8212,-0.662264 -4.7472,-1.986792 -0.926,-1.324526 -1.389,-3.434392 -1.389,-6.329605 l 0,-22.997562 3.6395,0 0,22.909651 c 0,2.062988 0.082,3.299604 0.2462,3.709852 0.1758,0.398534 0.3575,0.715014 0.545,0.94944 0.3282,0.44542 0.8967,0.668128 1.7055,0.668125 0.8088,3e-6 1.4066,-0.246148 1.7934,-0.738454 0.3868,-0.492298 0.5919,-1.224891 0.6154,-2.197779 0.035,-0.972877 0.053,-1.764077 0.053,-2.373602 l 0,-22.927233"
           id="path4314"
           style="font-variant:normal;font-stretch:normal;fill:#ffffff;fill-opacity:1;stroke:none;font-family:Antonio;-inkscape-font-specification:Antonio Bold Italic" />
      </g>
      <path
         d="m -1398.5242,197.74914 c -14.1292,-1.95474 -25.1349,-10.58153 -28.3637,-22.2327 l -0.6304,-2.27466 1.7321,0 1.7321,0 0.7126,2.3465 c 1.3127,4.32169 3.5097,7.66517 7.5088,11.42727 3.0093,2.83093 4.238,3.721 8.0278,5.81592 3.5678,1.9721 7.8923,3.57083 11.8411,4.37753 1.7533,0.35816 3.2691,0.7326 3.3686,0.83207 0.2942,0.29419 -2.7902,0.14232 -5.929,-0.29193 z m 6.5425,-2.66324 c -0.119,-0.11894 -0.2208,-0.5934 -0.2261,-1.05435 -0.015,-1.29233 -3.2002,-3.59395 -4.9826,-3.6006 -2.3031,-0.009 -2.2688,-0.36033 0.2288,-2.34628 1.2817,-1.01918 2.9135,-2.35142 3.6262,-2.96052 l 1.2957,-1.10744 -0.7524,-1.33866 c -0.5455,-0.97056 -0.694,-1.60452 -0.54,-2.3055 0.1922,-0.87488 0.1339,-0.96684 -0.6119,-0.96684 -0.6852,0 -0.8825,-0.21587 -1.1686,-1.2781 -0.3541,-1.31512 -0.5451,-1.44374 -2.7178,-1.82944 l -1.2527,-0.22238 0.2665,-1.66032 c 0.3948,-2.45991 0.3098,-4.10947 -0.2818,-5.47222 -0.4681,-1.07827 -0.6591,-1.21657 -1.6802,-1.21657 -0.6336,0 -1.152,-0.1019 -1.152,-0.22657 0,-0.22084 0.6884,-2.5589 2.6139,-8.87816 l 0.9455,-3.103 2.0322,0.14103 c 1.1177,0.0775 2.0871,0.19062 2.1543,0.25122 0.067,0.0606 0.7593,2.25609 1.5384,4.87887 0.779,2.62277 1.4809,4.83325 1.5599,4.91214 0.079,0.0789 0.3046,-0.45523 0.5016,-1.18696 0.3939,-1.46288 0.5582,-1.55721 1.4878,-0.85411 0.762,0.57634 2.1972,0.65733 2.016,0.11377 -0.07,-0.21074 -0.6119,-0.5462 -1.2038,-0.74546 -1.5496,-0.52176 -2.2912,-1.59081 -2.2912,-3.30305 0,-3.48252 2.825,-5.22505 6.3843,-3.938 1.2099,0.43749 1.3307,0.97117 0.6108,2.69459 l -0.4667,1.11684 -1.1142,-0.46556 c -1.0555,-0.44096 -1.5212,-0.38015 -1.5212,0.1986 0,0.14153 0.6039,0.43821 1.3417,0.6593 2.3102,0.69213 3.1996,3.18847 2.021,5.67216 -0.8979,1.89222 -3.0168,2.60945 -5.6667,1.9182 -1.0086,-0.26312 -1.797,-0.32941 -1.8593,-0.15634 -0.059,0.16527 -0.9561,0.30049 -1.9925,0.30049 -1.7392,0 -1.8999,-0.0624 -2.0878,-0.81105 -0.1745,-0.6952 -0.388,-0.81104 -1.4951,-0.81104 -1.0273,0 -1.2915,0.11942 -1.2915,0.58395 0,0.32117 -0.1534,0.73745 -0.3411,0.92504 -0.2384,0.2385 -0.184,0.73336 0.1809,1.64537 0.3582,0.89527 0.4906,2.05194 0.4221,3.68836 l -0.099,2.38405 1.5104,0.28239 c 1.3844,0.25883 1.5277,0.37469 1.7179,1.38835 0.1887,1.00572 0.3094,1.10595 1.332,1.10595 l 1.1247,0 -0.2112,1.37877 c -0.1162,0.75833 -0.2556,1.43131 -0.3098,1.49552 -0.054,0.0643 0.2318,0.64817 0.6356,1.29768 0.404,0.6495 0.8372,1.35519 0.9627,1.56819 0.1438,0.24374 -0.9228,1.3259 -2.8775,2.91976 -2.8679,2.33843 -3.0419,2.54492 -2.2705,2.6947 1.0413,0.20221 4.7119,3.14082 4.7119,3.77236 0,0.43337 2.4293,-2.21312 5.3164,-5.79171 1.1602,-1.43824 1.2295,-1.64728 1.1231,-3.39121 l -0.1134,-1.85847 3.7308,-2.06779 3.7308,-2.06777 1.7188,0.37617 c 1.9945,0.43649 1.9928,0.43735 3.9703,-2.12571 1.0974,-1.42242 1.3168,-1.92603 1.1423,-2.62116 -0.1716,-0.68404 0.08,-1.30562 1.2279,-3.03172 1.3671,-2.05582 1.4291,-2.24751 1.1671,-3.60449 -0.1521,-0.78826 -0.283,-1.66306 -0.2908,-1.94401 -0.011,-0.28095 1.7377,-2.01589 3.8789,-3.85543 l 3.893,-3.34462 0,-2.55182 0,-2.55182 -0.9566,0 c -0.7787,0 -1.4797,-0.5404 -3.7678,-2.90411 l -2.8111,-2.9041 -1.9907,0.18484 c -1.6811,0.15611 -2.1149,0.0839 -2.79,-0.46422 -0.7276,-0.59063 -0.8663,-0.60528 -1.5419,-0.16264 -0.8135,0.53299 -0.8503,0.51222 -4.2034,-2.36398 l -1.354,-1.16142 -1.3426,1.21301 -1.3427,1.21301 -1.9837,-0.63455 -1.9838,-0.63454 1.419,-1.04354 c 0.7805,-0.57396 1.7639,-1.04355 2.1853,-1.04355 0.4215,0 0.6879,-0.12697 0.5919,-0.28213 -0.1787,-0.28919 -2.6491,0.0394 -3.01,0.40031 -0.1103,0.11034 -0.3935,0.0404 -0.6295,-0.15536 -0.3484,-0.28916 -0.2695,-0.6278 0.4201,-1.80465 0.7883,-1.34505 0.8201,-1.5457 0.4453,-2.80429 -0.2222,-0.74559 -0.5804,-1.69506 -0.7962,-2.10995 -0.3921,-0.75357 -0.3934,-0.75303 -1.2377,0.52291 -1.0012,1.51292 -3.1684,2.29653 -4.5766,1.65488 -0.6613,-0.30133 -1.2627,-0.18515 -3.5923,0.69407 l -2.7977,1.05598 -1.1277,-1.26232 c -1.1125,-1.24538 -1.257,-2.13893 -0.6161,-3.80893 0.083,-0.21548 -0.044,-0.65857 -0.2832,-0.98465 -0.4121,-0.5636 -0.5486,-0.53492 -2.7651,0.58127 -2.2715,1.14396 -2.3616,1.16152 -3.5063,0.68327 -1.4817,-0.61914 -1.4488,-0.62553 -1.1358,0.22032 0.148,0.40033 0.746,0.87372 1.3682,1.08307 1.8105,0.60922 1.5938,1.32308 -0.7359,2.42525 -2.7072,1.2807 -4.8938,1.26542 -5.3072,-0.0371 -0.2232,-0.70326 -0.4994,-0.73867 -2.1615,-0.27707 l -1.1994,0.33312 0.6948,1.17763 0.6948,1.17765 -1.2272,-0.19916 c -1.0735,-0.1742 -1.1962,-0.12999 -0.9789,0.35283 0.3904,0.86747 0.5449,3.53489 0.3125,5.39512 l -0.2122,1.69806 -2.2865,1.10615 c -2.2414,1.08432 -2.7105,1.57799 -3.5185,3.70358 -0.2603,0.68452 -0.15,0.99251 0.7039,1.96502 0.5613,0.63932 1.2081,1.07825 1.4513,0.98494 0.3531,-0.1355 0.4397,0.5734 0.4437,3.63338 0,3.90565 0.2241,4.84325 1.0567,4.52374 0.6516,-0.25003 0.9365,-2.02104 0.857,-5.32626 l -0.067,-2.7693 1.8533,-0.044 1.8533,-0.044 -0.1035,4.97311 -0.1024,4.97311 -1.2118,1.10972 c -1.5068,1.37984 -3.8451,1.61499 -5.8336,0.58669 -1.6262,-0.84089 -2.0113,-2.09825 -2.1427,-6.99312 -0.1177,-4.39035 -0.1117,-4.43524 0.6104,-4.54185 l 0.7293,-0.10772 -0.8604,-1.01932 -0.8602,-1.01931 0.9742,-2.08187 c 0.9268,-1.98067 1.0834,-2.13468 3.2207,-3.16863 l 2.2464,-1.08677 0.2079,-2.30041 c 0.1538,-1.7033 0.075,-2.66887 -0.3016,-3.71997 -0.6791,-1.8923 -0.6526,-2.28793 0.1394,-2.08082 0.7303,0.19099 0.8528,-0.2211 0.2461,-0.82787 -0.5505,-0.55046 -0.011,-0.85442 2.7277,-1.52452 2.3099,-0.56606 2.8657,-0.47326 2.8657,0.47849 0,0.96006 1.7381,1.11415 3.3414,0.29622 1.2153,-0.61998 1.2846,-0.71601 0.6786,-0.94018 -0.4382,-0.16209 -0.9355,-0.94637 -1.4177,-2.23585 -0.4085,-1.09241 -0.6715,-2.05754 -0.5843,-2.14475 0.087,-0.0872 0.9462,0.20809 1.9089,0.65623 0.9627,0.44814 1.9366,0.81622 2.1641,0.81796 0.2274,0.002 1.4356,-0.51153 2.6848,-1.14061 l 2.2712,-1.14377 0.8095,0.90047 c 0.7092,0.78889 0.7865,1.10453 0.6241,2.54753 -0.1485,1.3189 -0.064,1.79791 0.4276,2.40401 l 0.6129,0.75692 2.472,-0.90163 c 1.828,-0.6667 2.7714,-0.84546 3.6209,-0.68609 2.2661,0.42512 3.1486,0.003 4.393,-2.10138 0.6244,-1.05614 1.2287,-1.92245 1.3427,-1.92511 0.1139,-0.002 0.7531,1.48129 1.4204,3.29765 0.9702,2.64147 1.1398,3.41983 0.847,3.88862 -0.5455,0.87347 -0.491,0.91933 1.0938,0.91933 1.4031,0 1.4599,0.0375 1.4599,0.96514 0,0.89665 0.068,0.95151 0.9611,0.77294 0.8321,-0.16643 1.2465,0.0583 3.0879,1.67506 2.0462,1.79638 2.1506,1.84589 2.7496,1.30384 0.5943,-0.53788 0.6713,-0.52647 1.6972,0.2516 0.9681,0.73435 1.2857,0.79784 3.2062,0.64105 l 2.1317,-0.17402 2.5602,2.7973 c 2.4531,2.68048 2.6181,2.7973 3.9511,2.7973 1.3908,0 1.391,2.6e-4 1.3934,1.21657 0,0.6691 0.088,2.16549 0.1939,3.32528 l 0.1919,2.10872 -4.0407,3.47109 -4.0406,3.47109 0.3114,1.80781 c 0.3085,1.79016 0.2981,1.82836 -1.0596,3.91228 -1.1148,1.7109 -1.3341,2.28958 -1.1732,3.09427 0.1744,0.87235 -0.057,1.29474 -1.9536,3.56009 -2.3172,2.76833 -2.0257,2.65096 -4.8318,1.94512 -0.8414,-0.21163 -1.4872,0.0241 -4.2986,1.56929 l -3.3084,1.81834 0,1.87882 0,1.87881 -3.163,3.75651 c -1.7398,2.06609 -3.3635,4.03232 -3.6082,4.36941 -0.4524,0.62283 -1.0558,0.7882 -1.4473,0.39661 z m -3.9049,-32.63101 c -0.1078,-0.40147 -0.1998,-0.94892 -0.2051,-1.21656 -0.011,-0.43256 -0.044,-0.43256 -0.3238,0 -0.5085,0.78683 -0.3892,1.94651 0.2001,1.94651 0.3856,0 0.4727,-0.19332 0.3288,-0.72995 z m 13.3562,-18.47559 c 0.2141,-0.21412 0.3893,-0.50609 0.3893,-0.64883 0,-0.443 -1.5217,-0.28483 -1.924,0.19999 -0.3694,0.44507 -0.2502,0.54382 0.967,0.80051 0.098,0.0207 0.3536,-0.13755 0.5677,-0.35167 z m -48.7781,23.33046 c -0.088,-0.22931 -0.1199,-2.95049 -0.071,-6.04706 l 0.09,-5.63015 3.3882,0.0252 3.3881,0.0252 0.1236,1.64214 0.1235,1.64215 -1.6463,0 c -1.43,0 -1.6463,0.0852 -1.6463,0.64883 0,0.55387 0.2163,0.64883 1.4775,0.64883 l 1.4777,0 -0.099,1.54099 -0.099,1.54099 -1.3788,0.0997 -1.3787,0.0997 0,2.09006 0,2.09006 -1.7945,0 c -1.1624,0 -1.8508,-0.14684 -1.9544,-0.41692 z m 18.903,0.21522 c -0.2403,-0.24023 -0.3328,-11.59122 -0.096,-11.82879 0.074,-0.0744 0.9553,-0.0849 1.9583,-0.0234 l 1.8239,0.11182 1.2895,2.56463 c 0.7092,1.41055 1.3285,2.56463 1.3764,2.56463 0.048,0 0.083,-1.1675 0.078,-2.59447 0,-1.42695 0.1002,-2.59485 0.2337,-2.59534 0.1338,-3.2e-4 0.9733,-9.7e-4 1.8655,-9.7e-4 l 1.6221,0 0,6.00173 0,6.00173 -1.8817,0 -1.8815,0 -1.2815,-2.63527 -1.2815,-2.63526 -0.1622,2.55416 -0.1622,2.55417 -1.6345,0.0956 c -0.8991,0.0526 -1.7385,-0.009 -1.8655,-0.13518 z m 29.2911,0.0803 c 0,-0.36816 3.2691,-10.99799 3.5353,-11.49537 0.2546,-0.47574 0.685,-0.58608 2.1758,-0.55793 1.2599,0.0238 1.9459,0.18766 2.1299,0.5087 0.462,0.80664 3.4521,11.16497 3.2972,11.42269 -0.081,0.13381 -0.9978,0.24331 -2.0384,0.24331 -1.7478,0 -1.9077,-0.0619 -2.0958,-0.81105 -0.1686,-0.67216 -0.3983,-0.81104 -1.3409,-0.81104 -0.9146,0 -1.1976,0.1588 -1.4456,0.81104 -0.2818,0.74126 -0.4766,0.81105 -2.2629,0.81105 -1.075,0 -1.9546,-0.0547 -1.9546,-0.1214 z m 6.164,-4.70431 c 0,-0.15613 -0.1003,-0.77658 -0.2238,-1.37878 -0.216,-1.057 -0.2318,-1.06683 -0.4543,-0.28387 -0.3813,1.34189 -0.3219,1.94651 0.1915,1.94651 0.2676,0 0.4866,-0.12774 0.4866,-0.28386 z m 21.0447,-11.62382 c -0.6976,-0.10739 -0.8894,-0.35044 -1.0497,-1.33016 -0.4899,-2.9944 -3.5581,-7.94557 -7.0595,-11.39186 -5.4205,-5.33527 -13.6539,-9.46294 -21.6341,-10.84604 -1.4833,-0.25708 -2.7972,-0.5758 -2.9198,-0.70827 -0.3402,-0.36766 6.0038,0.10686 8.9821,0.6718 10.7268,2.03483 19.8986,8.47888 24.2253,17.02039 1.0316,2.03648 2.4312,6.2044 2.2059,6.56894 -0.153,0.24757 -1.2035,0.25337 -2.7502,0.0152 z"
         id="path4277"
         style="fill:#ffffff;fill-opacity:1" />
    </g>
  </g>
</svg>
