<?xml version="1.0" encoding="UTF-8" standalone="no"?>
<svg
   xmlns:dc="http://purl.org/dc/elements/1.1/"
   xmlns:cc="http://creativecommons.org/ns#"
   xmlns:rdf="http://www.w3.org/1999/02/22-rdf-syntax-ns#"
   xmlns:svg="http://www.w3.org/2000/svg"
   xmlns="http://www.w3.org/2000/svg"
   xmlns:xlink="http://www.w3.org/1999/xlink"
   viewBox="0 0 360.27741 176.88066"
   height="176.88066"
   width="360.2774"
   version="1.1"
   id="svg2">
  <metadata
     id="metadata8">
    <rdf:RDF>
      <cc:Work
         rdf:about="">
        <dc:format>image/svg+xml</dc:format>
        <dc:type
           rdf:resource="http://purl.org/dc/dcmitype/StillImage" />
        <dc:title></dc:title>
      </cc:Work>
    </rdf:RDF>
  </metadata>
  <defs
     id="defs6">
    <linearGradient
       id="linearGradient7511">
      <stop
         id="stop7513"
         offset="0"
         style="stop-color:#6cb5b7;stop-opacity:1;" />
      <stop
         id="stop7515"
         offset="1"
         style="stop-color:#e86726;stop-opacity:1" />
    </linearGradient>
    <linearGradient
       id="linearGradient7503">
      <stop
         id="stop7505"
         offset="0"
         style="stop-color:#6cb5b7;stop-opacity:1" />
      <stop
         id="stop7507"
         offset="1"
         style="stop-color:#e86726;stop-opacity:1" />
    </linearGradient>
    <linearGradient
       id="linearGradient7495">
      <stop
         id="stop7497"
         offset="0"
         style="stop-color:#b64913;stop-opacity:1;" />
      <stop
         id="stop7499"
         offset="1"
         style="stop-color:#faddce;stop-opacity:0" />
    </linearGradient>
    <linearGradient
       gradientUnits="userSpaceOnUse"
       y2="74.660065"
       x2="56.35498"
       y1="75.688438"
       x1="-6.3759279"
       id="linearGradient7501"
       xlink:href="#linearGradient7495" />
    <linearGradient
       gradientUnits="userSpaceOnUse"
       y2="74.99704"
       x2="57.479008"
       y1="74.99704"
       x1="-6.932446"
       id="linearGradient7509"
       xlink:href="#linearGradient7503" />
    <linearGradient
       gradientUnits="userSpaceOnUse"
       y2="24.400953"
       x2="99.430885"
       y1="24.400953"
       x1="1.7234799"
       id="linearGradient7517"
       xlink:href="#linearGradient7511" />
    <clipPath
       id="clipPath7576"
       clipPathUnits="userSpaceOnUse">
      <circle
         r="47.922302"
         cy="51.418781"
         cx="49.567703"
         id="circle7578"
         style="opacity:1;fill:#8d8c87;fill-opacity:1;stroke:#e86726;stroke-width:0;stroke-linecap:round;stroke-linejoin:round;stroke-miterlimit:4;stroke-dasharray:none;stroke-dashoffset:0;stroke-opacity:1" />
    </clipPath>
  </defs>
  <g
     transform="translate(-60.496699,23.00513)"
     id="layer1" />
  <g
     transform="translate(-60.496699,23.00513)"
     id="layer2">
    <g
       transform="matrix(1.4188014,0,0,1.4188014,72.169191,-13.375322)"
       clip-path="url(#clipPath7576)"
       id="g7559">
      <rect
         style="opacity:1;fill:#f0ecc8;fill-opacity:1;stroke:#e86726;stroke-width:0;stroke-linecap:round;stroke-linejoin:round;stroke-miterlimit:4;stroke-dasharray:none;stroke-dashoffset:0;stroke-opacity:1"
         id="rect7555"
         width="111.27023"
         height="115.38374"
         x="-8.2270041"
         y="-6.7872787" />
      <g
         id="g7540">
        <path
           id="path7313"
           d="m 71.447343,105.43696 -0.411351,-48.333651 32.496678,0.41135"
           style="fill:none;fill-rule:evenodd;stroke:#71bfc2;stroke-width:10.60000038;stroke-linecap:butt;stroke-linejoin:round;stroke-miterlimit:4;stroke-dasharray:none;stroke-opacity:1" />
        <path
           id="path7349"
           d="m 1.7234799,24.195292 c 1.234051,0 97.6956781,0.41135 97.6956781,0.41135"
           style="fill:#6fb4b5;fill-opacity:1;fill-rule:evenodd;stroke:url(#linearGradient7517);stroke-width:5.5;stroke-linecap:butt;stroke-linejoin:miter;stroke-miterlimit:4;stroke-dasharray:none;stroke-opacity:1" />
        <path
           id="path7313-2"
           d="m -3.6165506,52.475619 c 2.87945151,-0.617025 52.4471536,0 52.4471536,0 L 48.419252,4.1419682 80.91592,4.5533182"
           style="fill:none;fill-rule:evenodd;stroke:#71bfc2;stroke-width:10.60000038;stroke-linecap:butt;stroke-linejoin:round;stroke-miterlimit:4;stroke-dasharray:none;stroke-opacity:1" />
        <path
           id="path7313-7"
           d="m 32.837744,99.940235 10e-7,-66.021706 -32.49667209,0"
           style="fill:none;fill-rule:evenodd;stroke:#ce453f;stroke-width:10.60000038;stroke-linecap:butt;stroke-linejoin:round;stroke-miterlimit:4;stroke-dasharray:none;stroke-opacity:1" />
        <path
           id="path7345"
           d="M 58.07846,-5.4219236 C 58.695485,0.1313044 59.518186,110.57884 59.518186,110.57884"
           style="fill:none;fill-rule:evenodd;stroke:#e86726;stroke-width:5.0999999;stroke-linecap:butt;stroke-linejoin:miter;stroke-miterlimit:4;stroke-dasharray:none;stroke-opacity:1" />
        <path
           id="path7347"
           d="M 57.461435,75.202718 -6.9148745,74.791368"
           style="fill:url(#linearGradient7501);fill-opacity:1;fill-rule:evenodd;stroke:url(#linearGradient7509);stroke-width:5.5;stroke-linecap:butt;stroke-linejoin:miter;stroke-miterlimit:4;stroke-dasharray:none;stroke-opacity:1" />
        <path
           id="path7349-8"
           d="m 5.1112559,91.245389 c 1.234051,0 97.6956841,0.41135 97.6956841,0.41135"
           style="fill:#8bb0a6;fill-opacity:1;fill-rule:evenodd;stroke:#8ab0a6;stroke-width:5.5;stroke-linecap:butt;stroke-linejoin:miter;stroke-miterlimit:4;stroke-dasharray:none;stroke-opacity:1" />
        <path
           id="path7313-4"
           d="M 93.808618,6.5637342 93.397268,39.06041"
           style="fill:none;fill-rule:evenodd;stroke:#e86726;stroke-width:10.60000038;stroke-linecap:butt;stroke-linejoin:round;stroke-miterlimit:4;stroke-dasharray:none;stroke-opacity:1" />
        <path
           id="path7436-8"
           d="M 78.549572,61.60449 70.307694,51.602092 c -2.887486,-3.504272 -8.559983,2.424272 -5.680337,4.906837 l 10.288797,8.87005 c 2.250448,1.940128 4.971983,-2.149998 3.633418,-3.774489 z"
           style="fill:#8aada2;fill-opacity:1;fill-rule:evenodd;stroke:none;stroke-width:0;stroke-linecap:round;stroke-linejoin:round;stroke-miterlimit:4;stroke-dasharray:none;stroke-opacity:1" />
        <path
           id="path7436-9"
           d="m 38.939331,46.548527 9.366721,11.367513 c 3.281567,3.982532 9.728241,-2.755134 6.455584,-5.576517 L 43.068635,42.258899 c -2.557587,-2.204914 -5.650555,2.443428 -4.129304,4.289628 z"
           style="fill:#8aada2;fill-opacity:1;fill-rule:evenodd;stroke:none;stroke-width:0;stroke-linecap:round;stroke-linejoin:round;stroke-miterlimit:4;stroke-dasharray:none;stroke-opacity:1" />
        <path
           id="path7436-5"
           d="M 55.911067,8.5739158 47.338292,-1.8300613 c -3.003414,-3.6449625 -8.903652,2.52160238 -5.908393,5.103838 l 10.701874,9.2261673 c 2.3408,2.018021 5.1716,-2.236317 3.779294,-3.9260282 z"
           style="fill:#8aada2;fill-opacity:1;fill-rule:evenodd;stroke:none;stroke-width:0;stroke-linecap:round;stroke-linejoin:round;stroke-miterlimit:4;stroke-dasharray:none;stroke-opacity:1" />
        <path
           id="path7436-2"
           d="m 24.914691,39.28274 8.466844,-10.275421 c 2.966303,-3.599924 8.793636,2.490444 5.835388,5.040773 L 28.647285,43.160257 C 26.33541,45.153342 23.539589,40.951573 24.914691,39.28274 Z"
           style="fill:#9b2d28;fill-opacity:1;fill-rule:evenodd;stroke:none;stroke-width:0;stroke-linecap:round;stroke-linejoin:round;stroke-miterlimit:4;stroke-dasharray:none;stroke-opacity:1" />
        <path
           id="path7436-2-3"
           d="m 102.19253,29.828171 -8.466845,10.275421 c -2.966304,3.599924 -8.793642,-2.490444 -5.835392,-5.040773 l 10.569642,-9.112165 c 2.311875,-1.993085 5.107695,2.208684 3.732595,3.877517 z"
           style="fill:#b64913;fill-opacity:1;fill-rule:evenodd;stroke:none;stroke-width:0;stroke-linecap:round;stroke-linejoin:round;stroke-miterlimit:4;stroke-dasharray:none;stroke-opacity:1" />
      </g>
    </g>
    <flowRoot
       transform="translate(4.1135023,2.0567532)"
       style="font-style:normal;font-weight:normal;font-size:40px;line-height:125%;font-family:Sans;letter-spacing:0px;word-spacing:0px;fill:#000000;fill-opacity:1;stroke:none;stroke-width:1px;stroke-linecap:butt;stroke-linejoin:miter;stroke-opacity:1"
       id="flowRoot7656"
       xml:space="preserve"><flowRegion
         id="flowRegion7658"><rect
           y="26.532093"
           x="106.33403"
           height="70.957916"
           width="101.39783"
           id="rect7660" /></flowRegion><flowPara
         id="flowPara7662">COns</flowPara></flowRoot>    <g
       id="text7664"
       style="font-style:normal;font-weight:normal;font-size:40px;line-height:125%;font-family:Sans;text-align:end;letter-spacing:0px;word-spacing:0px;text-anchor:end;fill:#6c5d53;fill-opacity:1;stroke:none;stroke-width:1px;stroke-linecap:butt;stroke-linejoin:miter;stroke-opacity:1">
      <path
         id="path7786"
         style="font-style:normal;font-variant:normal;font-weight:normal;font-stretch:normal;font-family:'Abril Fatface';-inkscape-font-specification:'Abril Fatface';text-align:end;text-anchor:end;fill:#6c5d53;fill-opacity:1"
         d="m 234.36786,25.835536 c 3.44,0 5.84,3.4 8.04,8.32 l 0.72,0 -0.32,-8.68 -0.44,0 c -0.28,0.52 -0.44,0.8 -1.08,0.8 -1.4,0 -3.32,-1.24 -7.48,-1.24 -8.2,0 -13.8,5.12 -13.8,14.8 0,9.56 5.2,14.04 13.68,14.04 4.4,0 6.6,-1.24 7.96,-1.24 0.64,0 0.8,0.28 1.08,0.8 l 0.44,0 0.28,-8.92 -0.72,0 c -2.24,5.2 -4.84,8.56 -8.08,8.56 -4.36,0 -6.48,-4.76 -6.48,-12.12 l 0,-3.16 c 0,-8.28 2.16,-11.96 6.2,-11.96 z" />
      <path
         id="path7788"
         style="font-style:normal;font-variant:normal;font-weight:normal;font-stretch:normal;font-family:'Abril Fatface';-inkscape-font-specification:'Abril Fatface';text-align:end;text-anchor:end;fill:#6c5d53;fill-opacity:1"
         d="m 258.87536,45.595536 c 0,5.2 -0.12,7.56 -2.4,7.56 -2.44,0 -2.52,-3 -2.52,-7.64 l 0,-3.12 c 0,-4.52 0.12,-7.64 2.56,-7.64 2.24,0 2.36,3.12 2.36,7.44 l 0,3.4 z m -12.6,-1.56 c 0,6.24 3.4,9.84 10.12,9.84 7.12,0 10.16,-3.64 10.16,-10.2 0,-6.48 -3.2,-9.64 -9.92,-9.64 -6.44,0 -10.36,3.44 -10.36,10 z" />
      <path
         id="path7790"
         style="font-style:normal;font-variant:normal;font-weight:normal;font-stretch:normal;font-family:'Abril Fatface';-inkscape-font-specification:'Abril Fatface';text-align:end;text-anchor:end;fill:#6c5d53;fill-opacity:1"
         d="m 267.75411,34.435536 0,0.72 2.2,0 0,17.6 -2.2,0 0,0.72 11.36,0 0,-0.72 -1.72,0 0,-11.04 c 0,-3.24 1.56,-5.76 3.24,-5.76 1,0 1.48,0.4 1.48,3.8 l 0,13 -1.64,0 0,0.72 11.32,0 0,-0.72 -2.24,0 0,-12.04 c 0,-4.84 -2.48,-6.68 -6.2,-6.68 -3.96,0 -5.28,2.08 -5.96,4.08 l 0,-3.68 -9.64,0 z" />
      <path
         id="path7792"
         style="font-style:normal;font-variant:normal;font-weight:normal;font-stretch:normal;font-family:'Abril Fatface';-inkscape-font-specification:'Abril Fatface';text-align:end;text-anchor:end;fill:#6c5d53;fill-opacity:1"
         d="m 293.20348,53.875536 0.48,0 c 0.64,-1.12 1.2,-1.48 1.72,-1.48 0.16,0 0.52,0.16 0.76,0.32 1.52,0.76 2.88,1.16 4.8,1.16 4.52,0 7.48,-2.28 7.48,-6.84 0,-4.72 -3.52,-6 -6.68,-6.84 -2.64,-0.72 -5.04,-1.16 -5.04,-3 0,-1.24 1.08,-2.32 3.72,-2.32 2.84,0 4.88,1.52 6.32,5.2 l 0.48,0 0,-6.12 -0.44,0 c -0.52,1 -0.8,1.32 -1.4,1.32 -0.48,0 -0.64,-0.12 -1.12,-0.32 -1.08,-0.48 -2.28,-0.92 -4.04,-0.92 -4.24,0 -7.04,2.68 -7.04,6.76 0,4.44 3.56,5.68 6.76,6.56 3.04,0.84 5,1.24 5,3.04 0,1.52 -1.12,2.6 -4.08,2.6 -3.28,0 -5.72,-1.4 -7.2,-6.28 l -0.48,0 0,7.16 z" />
      <path
         id="path7794"
         style="font-style:normal;font-variant:normal;font-weight:normal;font-stretch:normal;font-family:'Abril Fatface';-inkscape-font-specification:'Abril Fatface';text-align:end;text-anchor:end;fill:#6c5d53;fill-opacity:1"
         d="m 322.54723,45.595536 c 0,5.2 -0.12,7.56 -2.4,7.56 -2.44,0 -2.52,-3 -2.52,-7.64 l 0,-3.12 c 0,-4.52 0.12,-7.64 2.56,-7.64 2.24,0 2.36,3.12 2.36,7.44 l 0,3.4 z m -12.6,-1.56 c 0,6.24 3.4,9.84 10.12,9.84 7.12,0 10.16,-3.64 10.16,-10.2 0,-6.48 -3.2,-9.64 -9.92,-9.64 -6.44,0 -10.36,3.44 -10.36,10 z m 7.48,-12.44 0.44,0.28 5.36,-4.44 c 0.84,-0.76 1.16,-1.4 1.16,-2.12 0,-1.04 -0.76,-2.16 -2.56,-1.76 l -1.88,0.4 -2.52,7.64 z" />
      <path
         id="path7796"
         style="font-style:normal;font-variant:normal;font-weight:normal;font-stretch:normal;font-family:'Abril Fatface';-inkscape-font-specification:'Abril Fatface';text-align:end;text-anchor:end;fill:#6c5d53;fill-opacity:1"
         d="m 344.70598,35.555536 c 0.84,0 1.64,0.4 0.84,2.04 l -1.44,0 c -0.84,2.84 0.44,4.52 3.12,4.52 2.16,0 3.36,-1.52 3.36,-3.8 0,-3.04 -1.88,-4.28 -4.24,-4.28 -2.4,0 -4.64,1.4 -5.36,4.24 l 0,-3.84 -9.64,0 0,0.72 2.2,0 0,17.6 -2.2,0 0,0.72 12.48,0 0,-0.72 -2.84,0 0,-10.72 c 0,-3.6 1.8,-6.48 3.72,-6.48 z" />
      <path
         id="path7798"
         style="font-style:normal;font-variant:normal;font-weight:normal;font-stretch:normal;font-family:'Abril Fatface';-inkscape-font-specification:'Abril Fatface';text-align:end;text-anchor:end;fill:#6c5d53;fill-opacity:1"
         d="m 362.07723,34.755536 c 1.12,0 1.92,0.56 1.92,1.92 0,0.4 -0.08,0.88 -0.28,1.44 l -1.32,0 c -0.16,0.56 -0.2,1.08 -0.2,1.44 0,2.24 1.48,3.32 3.56,3.32 2,0 3.32,-1.28 3.32,-3.76 0,-3 -2.44,-5.08 -7.32,-5.08 -6.6,0 -10.68,3.44 -10.68,10.16 0,6.24 3.44,9.68 9.6,9.68 6.68,0 8,-4.04 8.52,-6.52 l -0.72,-0.08 c -0.44,2.16 -2,5.24 -5.64,5.24 -3.12,0 -4.04,-2.28 -4.04,-7.4 l 0,-2.08 c 0,-5.96 0.96,-8.28 3.28,-8.28 z" />
      <path
         id="path7800"
         style="font-style:normal;font-variant:normal;font-weight:normal;font-stretch:normal;font-family:'Abril Fatface';-inkscape-font-specification:'Abril Fatface';text-align:end;text-anchor:end;fill:#6c5d53;fill-opacity:1"
         d="m 372.13411,27.955536 c 0,1.68 0.76,3.72 4,3.72 2.88,0 4.04,-1.64 4.04,-3.76 0,-2.44 -1.48,-3.68 -3.96,-3.68 -3,0 -4.08,1.76 -4.08,3.72 z m -2.12,6.48 0,0.72 2.36,0 0,17.6 -2.2,0 0,0.72 11.88,0 0,-0.72 -2.24,0 0,-18.32 -9.8,0 z" />
      <path
         id="path7802"
         style="font-style:normal;font-variant:normal;font-weight:normal;font-stretch:normal;font-family:'Abril Fatface';-inkscape-font-specification:'Abril Fatface';text-align:end;text-anchor:end;fill:#6c5d53;fill-opacity:1"
         d="m 395.75036,45.595536 c 0,5.2 -0.12,7.56 -2.4,7.56 -2.44,0 -2.52,-3 -2.52,-7.64 l 0,-3.12 c 0,-4.52 0.12,-7.64 2.56,-7.64 2.24,0 2.36,3.12 2.36,7.44 l 0,3.4 z m -12.6,-1.56 c 0,6.24 3.4,9.84 10.12,9.84 7.12,0 10.16,-3.64 10.16,-10.2 0,-6.48 -3.2,-9.64 -9.92,-9.64 -6.44,0 -10.36,3.44 -10.36,10 z" />
      <path
         id="path7804"
         style="font-style:normal;font-variant:normal;font-weight:normal;font-stretch:normal;font-family:'Abril Fatface';-inkscape-font-specification:'Abril Fatface';text-align:end;text-anchor:end;fill:#6c5d53;fill-opacity:1"
         d="m 405.46911,53.875536 0.48,0 c 0.64,-1.12 1.2,-1.48 1.72,-1.48 0.16,0 0.52,0.16 0.76,0.32 1.52,0.76 2.88,1.16 4.8,1.16 4.52,0 7.48,-2.28 7.48,-6.84 0,-4.72 -3.52,-6 -6.68,-6.84 -2.64,-0.72 -5.04,-1.16 -5.04,-3 0,-1.24 1.08,-2.32 3.72,-2.32 2.84,0 4.88,1.52 6.32,5.2 l 0.48,0 0,-6.12 -0.44,0 c -0.52,1 -0.8,1.32 -1.4,1.32 -0.48,0 -0.64,-0.12 -1.12,-0.32 -1.08,-0.48 -2.28,-0.92 -4.04,-0.92 -4.24,0 -7.04,2.68 -7.04,6.76 0,4.44 3.56,5.68 6.76,6.56 3.04,0.84 5,1.24 5,3.04 0,1.52 -1.12,2.6 -4.08,2.6 -3.28,0 -5.72,-1.4 -7.2,-6.28 l -0.48,0 0,7.16 z" />
      <path
         id="path7806"
         style="font-style:normal;font-variant:normal;font-weight:normal;font-stretch:normal;font-family:'Abril Fatface';-inkscape-font-specification:'Abril Fatface';text-align:end;text-anchor:end;fill:#6c5d53;fill-opacity:1"
         d="m 124.05536,75.475536 0,0.76 2.2,0 0,26.480004 -2.2,0 0,0.76 12.2,0 0,-0.76 -2.2,0 0,-26.480004 2.2,0 0,-0.76 -12.2,0 z" />
      <path
         id="path7808"
         style="font-style:normal;font-variant:normal;font-weight:normal;font-stretch:normal;font-family:'Abril Fatface';-inkscape-font-specification:'Abril Fatface';text-align:end;text-anchor:end;fill:#6c5d53;fill-opacity:1"
         d="m 137.75411,84.435536 0,0.72 2.2,0 0,17.600004 -2.2,0 0,0.72 11.36,0 0,-0.72 -1.72,0 0,-11.040004 c 0,-3.24 1.56,-5.76 3.24,-5.76 1,0 1.48,0.4 1.48,3.8 l 0,13.000004 -1.64,0 0,0.72 11.32,0 0,-0.72 -2.24,0 0,-12.040004 c 0,-4.84 -2.48,-6.68 -6.2,-6.68 -3.96,0 -5.28,2.08 -5.96,4.08 l 0,-3.68 -9.64,0 z" />
      <path
         id="path7810"
         style="font-style:normal;font-variant:normal;font-weight:normal;font-stretch:normal;font-family:'Abril Fatface';-inkscape-font-specification:'Abril Fatface';text-align:end;text-anchor:end;fill:#6c5d53;fill-opacity:1"
         d="m 164.04911,97.755536 c 0,4.960004 2.84,6.120004 6.8,6.120004 4.88,0 6.2,-2.88 6.56,-6.000004 l -0.68,-0.08 c -0.36,2.720004 -1.56,4.480004 -3.48,4.480004 -1.4,0 -1.76,-1.28 -1.76,-3.640004 l 0,-13.48 5.2,0 0,-0.72 -5.2,0 0,-7 -7.44,1.84 0,5.16 -2.2,0 0,0.72 2.2,0 0,12.6 z" />
      <path
         id="path7812"
         style="font-style:normal;font-variant:normal;font-weight:normal;font-stretch:normal;font-family:'Abril Fatface';-inkscape-font-specification:'Abril Fatface';text-align:end;text-anchor:end;fill:#6c5d53;fill-opacity:1"
         d="m 178.03036,93.995536 c 0,5.8 3.2,9.880004 10.32,9.880004 5.68,0 7.76,-2.64 8.68,-6.080004 l -0.72,-0.12 c -0.88,3.080004 -2.88,4.960004 -5.84,4.960004 -3.88,0 -4.72,-3.200004 -4.72,-7.920004 l 0,-1.56 11.28,0 c 0.24,-5.96 -2.44,-9.12 -8.72,-9.12 -5.56,0 -10.28,3.04 -10.28,9.96 z m 7.76,-1.64 0,-1.96 c 0,-4.24 0.76,-5.6 2.16,-5.6 1.64,0 1.96,1.4 1.96,5.6 l 0,1.96 -4.12,0 z" />
      <path
         id="path7814"
         style="font-style:normal;font-variant:normal;font-weight:normal;font-stretch:normal;font-family:'Abril Fatface';-inkscape-font-specification:'Abril Fatface';text-align:end;text-anchor:end;fill:#6c5d53;fill-opacity:1"
         d="m 211.81536,85.555536 c 0.84,0 1.64,0.4 0.84,2.04 l -1.44,0 c -0.84,2.84 0.44,4.52 3.12,4.52 2.16,0 3.36,-1.52 3.36,-3.8 0,-3.04 -1.88,-4.28 -4.24,-4.28 -2.4,0 -4.64,1.4 -5.36,4.24 l 0,-3.84 -9.64,0 0,0.72 2.2,0 0,17.600004 -2.2,0 0,0.72 12.48,0 0,-0.72 -2.84,0 0,-10.720004 c 0,-3.6 1.8,-6.48 3.72,-6.48 z" />
      <path
         id="path7816"
         style="font-style:normal;font-variant:normal;font-weight:normal;font-stretch:normal;font-family:'Abril Fatface';-inkscape-font-specification:'Abril Fatface';text-align:end;text-anchor:end;fill:#6c5d53;fill-opacity:1"
         d="m 218.22098,84.435536 0,0.72 2.2,0 0,17.600004 -2.2,0 0,0.72 11.08,0 0,-0.72 -1.44,0 0,-11.040004 c 0,-3.24 1.44,-5.76 2.92,-5.76 0.72,0 1.16,0.4 1.16,3.8 l 0,13.000004 -1.4,0 0,0.72 10.28,0 0,-0.72 -1.44,0 0,-11.280004 c 0,-3.36 1.48,-5.52 2.92,-5.52 0.72,0 1.16,0.4 1.16,3.8 l 0,13.000004 -1.4,0 0,0.72 11.08,0 0,-0.72 -2.24,0 0,-12.040004 c 0,-4.84 -2.4,-6.68 -5.88,-6.68 -3.6,0 -5.24,2.32 -5.88,4.32 -0.68,-3.08 -2.8,-4.32 -5.64,-4.32 -3.68,0 -5,2.08 -5.64,4.08 l 0,-3.68 -9.64,0 z" />
      <path
         id="path7818"
         style="font-style:normal;font-variant:normal;font-weight:normal;font-stretch:normal;font-family:'Abril Fatface';-inkscape-font-specification:'Abril Fatface';text-align:end;text-anchor:end;fill:#6c5d53;fill-opacity:1"
         d="m 276.38661,103.47554 0,-0.72 -2.2,0 0,-18.320004 -9.28,0 0,0.72 1.84,0 0,12.24 c 0,3.040004 -1.24,4.680004 -2.84,4.680004 -1,0 -1.48,-0.52 -1.48,-3.920004 l 0,-13.72 -9.68,0 0,0.72 2.24,0 0,12.04 c 0,4.840004 2.48,6.680004 6.2,6.680004 3.6,0 4.88,-1.44 5.64,-3.32 l 0.44,2.92 9.12,0 z" />
      <path
         id="path7820"
         style="font-style:normal;font-variant:normal;font-weight:normal;font-stretch:normal;font-family:'Abril Fatface';-inkscape-font-specification:'Abril Fatface';text-align:end;text-anchor:end;fill:#6c5d53;fill-opacity:1"
         d="m 277.28536,84.435536 0,0.72 2.2,0 0,17.600004 -2.2,0 0,0.72 11.36,0 0,-0.72 -1.72,0 0,-11.040004 c 0,-3.24 1.56,-5.76 3.24,-5.76 1,0 1.48,0.4 1.48,3.8 l 0,13.000004 -1.64,0 0,0.72 11.32,0 0,-0.72 -2.24,0 0,-12.040004 c 0,-4.84 -2.48,-6.68 -6.2,-6.68 -3.96,0 -5.28,2.08 -5.96,4.08 l 0,-3.68 -9.64,0 z" />
      <path
         id="path7822"
         style="font-style:normal;font-variant:normal;font-weight:normal;font-stretch:normal;font-family:'Abril Fatface';-inkscape-font-specification:'Abril Fatface';text-align:end;text-anchor:end;fill:#6c5d53;fill-opacity:1"
         d="m 303.77473,77.955536 c 0,1.68 0.76,3.72 4,3.72 2.88,0 4.04,-1.64 4.04,-3.76 0,-2.44 -1.48,-3.68 -3.96,-3.68 -3,0 -4.08,1.76 -4.08,3.72 z m -2.12,6.48 0,0.72 2.36,0 0,17.600004 -2.2,0 0,0.72 11.88,0 0,-0.72 -2.24,0 0,-18.320004 -9.8,0 z" />
      <path
         id="path7824"
         style="font-style:normal;font-variant:normal;font-weight:normal;font-stretch:normal;font-family:'Abril Fatface';-inkscape-font-specification:'Abril Fatface';text-align:end;text-anchor:end;fill:#6c5d53;fill-opacity:1"
         d="m 325.67098,84.755536 c 1.12,0 1.92,0.56 1.92,1.92 0,0.4 -0.08,0.88 -0.28,1.44 l -1.32,0 c -0.16,0.56 -0.2,1.08 -0.2,1.44 0,2.24 1.48,3.32 3.56,3.32 2,0 3.32,-1.28 3.32,-3.76 0,-3 -2.44,-5.08 -7.32,-5.08 -6.6,0 -10.68,3.44 -10.68,10.16 0,6.240004 3.44,9.680004 9.6,9.680004 6.68,0 8,-4.040004 8.52,-6.520004 l -0.72,-0.08 c -0.44,2.16 -2,5.240004 -5.64,5.240004 -3.12,0 -4.04,-2.28 -4.04,-7.400004 l 0,-2.08 c 0,-5.96 0.96,-8.28 3.28,-8.28 z" />
      <path
         id="path7826"
         style="font-style:normal;font-variant:normal;font-weight:normal;font-stretch:normal;font-family:'Abril Fatface';-inkscape-font-specification:'Abril Fatface';text-align:end;text-anchor:end;fill:#6c5d53;fill-opacity:1"
         d="m 335.72786,77.955536 c 0,1.68 0.76,3.72 4,3.72 2.88,0 4.04,-1.64 4.04,-3.76 0,-2.44 -1.48,-3.68 -3.96,-3.68 -3,0 -4.08,1.76 -4.08,3.72 z m -2.12,6.48 0,0.72 2.36,0 0,17.600004 -2.2,0 0,0.72 11.88,0 0,-0.72 -2.24,0 0,-18.320004 -9.8,0 z" />
      <path
         id="path7828"
         style="font-style:normal;font-variant:normal;font-weight:normal;font-stretch:normal;font-family:'Abril Fatface';-inkscape-font-specification:'Abril Fatface';text-align:end;text-anchor:end;fill:#6c5d53;fill-opacity:1"
         d="m 359.18411,85.755536 c 1.36,0 1.84,1.32 1.84,6.96 l 0,2.08 c 0,5.560004 -0.4,7.920004 -2.36,7.920004 -1.76,0 -2.6,-1.96 -2.6,-4.120004 l 0,-7.32 c 0,-3.48 1.48,-5.52 3.12,-5.52 z m -3.2,-1.32 -9.48,0 0,0.72 2.12,0 0,27.120004 -2.2,0 0,0.72 14.8,0 0,-0.72 -5.16,0 0,-10.36 c 0.72,1.24 1.72,1.96 4.44,1.96 5.44,0 8.24,-3.04 8.24,-9.880004 0,-6.8 -2.76,-9.96 -7.24,-9.96 -3.12,0 -4.64,1.56 -5.52,3.56 l 0,-3.16 z" />
      <path
         id="path7830"
         style="font-style:normal;font-variant:normal;font-weight:normal;font-stretch:normal;font-family:'Abril Fatface';-inkscape-font-specification:'Abril Fatface';text-align:end;text-anchor:end;fill:#6c5d53;fill-opacity:1"
         d="m 379.53973,94.075536 c -5.72,0 -9.2,0.92 -9.2,4.96 0,4.000004 3.12,4.840004 5.92,4.840004 2.8,0 3.96,-1.04 4.6,-2.96 0.48,1.96 2.28,2.96 5.52,2.96 3.44,0 4.92,-1.36 5.12,-6.160004 l -0.6,-0.04 c -0.2,3.360004 -0.88,4.120004 -1.6,4.120004 -0.68,0 -1.16,-0.44 -1.16,-2.080004 l 0,-8.12 c 0,-5.8 -2.12,-7.56 -8.4,-7.56 -5.44,0 -8.36,1.56 -8.36,4.92 0,1.96 0.96,3.32 3.44,3.32 2,0 3.52,-1.24 3.52,-3.12 0,-0.76 -0.12,-1.28 -0.32,-1.8 l -1,0 c -0.16,-0.44 -0.24,-0.84 -0.24,-1.16 0,-1.28 1.16,-1.6 1.88,-1.6 1.6,0 2.04,1.32 2.04,6.4 l 0,3.08 -1.16,0 z m -0.56,8.200004 c -0.76,0 -1.04,-0.4 -1.04,-3.280004 l 0,-0.64 c 0,-2.44 0.8,-3.64 2.48,-3.64 l 0.28,0 0,3.72 c 0,2.560004 -0.96,3.840004 -1.72,3.840004 z" />
      <path
         id="path7832"
         style="font-style:normal;font-variant:normal;font-weight:normal;font-stretch:normal;font-family:'Abril Fatface';-inkscape-font-specification:'Abril Fatface';text-align:end;text-anchor:end;fill:#6c5d53;fill-opacity:1"
         d="m 393.85286,77.955536 c 0,1.68 0.76,3.72 4,3.72 2.88,0 4.04,-1.64 4.04,-3.76 0,-2.44 -1.48,-3.68 -3.96,-3.68 -3,0 -4.08,1.76 -4.08,3.72 z m -2.12,6.48 0,0.72 2.36,0 0,17.600004 -2.2,0 0,0.72 11.88,0 0,-0.72 -2.24,0 0,-18.320004 -9.8,0 z" />
      <path
         id="path7834"
         style="font-style:normal;font-variant:normal;font-weight:normal;font-stretch:normal;font-family:'Abril Fatface';-inkscape-font-specification:'Abril Fatface';text-align:end;text-anchor:end;fill:#6c5d53;fill-opacity:1"
         d="m 405.46911,103.87554 0.48,0 c 0.64,-1.12 1.2,-1.48 1.72,-1.48 0.16,0 0.52,0.16 0.76,0.32 1.52,0.76 2.88,1.16 4.8,1.16 4.52,0 7.48,-2.28 7.48,-6.840004 0,-4.72 -3.52,-6 -6.68,-6.84 -2.64,-0.72 -5.04,-1.16 -5.04,-3 0,-1.24 1.08,-2.32 3.72,-2.32 2.84,0 4.88,1.52 6.32,5.2 l 0.48,0 0,-6.12 -0.44,0 c -0.52,1 -0.8,1.32 -1.4,1.32 -0.48,0 -0.64,-0.12 -1.12,-0.32 -1.08,-0.48 -2.28,-0.92 -4.04,-0.92 -4.24,0 -7.04,2.68 -7.04,6.76 0,4.44 3.56,5.68 6.76,6.56 3.04,0.84 5,1.24 5,3.040004 0,1.52 -1.12,2.6 -4.08,2.6 -3.28,0 -5.72,-1.4 -7.2,-6.280004 l -0.48,0 0,7.160004 z" />
      <path
         id="path7836"
         style="font-style:normal;font-variant:normal;font-weight:normal;font-stretch:normal;font-family:'Abril Fatface';-inkscape-font-specification:'Abril Fatface';text-align:end;text-anchor:end;fill:#6c5d53;fill-opacity:1"
         d="m 149.71286,152.15554 c -1.72,0 -2.2,-1.32 -2.2,-6.96 l 0,-2.08 c 0,-5.56 0.4,-7.92 2.36,-7.92 1.76,0 2.6,1.96 2.6,4.12 l 0,8.72 c 0,3 -1.6,4.12 -2.76,4.12 z m 3.28,1.32 8.88,0 0,-0.72 -1.96,0 0,-29.28 -10,0 0,0.72 2.44,0 0,11.8 c -0.72,-1.24 -2.16,-1.96 -4.64,-1.96 -5.12,0 -7.92,3.2 -7.92,9.96 0,6.72 2.8,9.88 7.24,9.88 3.12,0 4.68,-1.2 5.52,-3.2 l 0.44,2.8 z" />
      <path
         id="path7838"
         style="font-style:normal;font-variant:normal;font-weight:normal;font-stretch:normal;font-family:'Abril Fatface';-inkscape-font-specification:'Abril Fatface';text-align:end;text-anchor:end;fill:#6c5d53;fill-opacity:1"
         d="m 163.10848,143.99554 c 0,5.8 3.2,9.88 10.32,9.88 5.68,0 7.76,-2.64 8.68,-6.08 l -0.72,-0.12 c -0.88,3.08 -2.88,4.96 -5.84,4.96 -3.88,0 -4.72,-3.2 -4.72,-7.92 l 0,-1.56 11.28,0 c 0.24,-5.96 -2.44,-9.12 -8.72,-9.12 -5.56,0 -10.28,3.04 -10.28,9.96 z m 7.76,-1.64 0,-1.96 c 0,-4.24 0.76,-5.6 2.16,-5.6 1.64,0 1.96,1.4 1.96,5.6 l 0,1.96 -4.12,0 z" />
      <path
         id="path7840"
         style="font-style:normal;font-variant:normal;font-weight:normal;font-stretch:normal;font-family:'Abril Fatface';-inkscape-font-specification:'Abril Fatface';text-align:end;text-anchor:end;fill:#6c5d53;fill-opacity:1"
         d="m 203.32098,153.03554 c -4.4,0 -8.28,-4.68 -10.28,-8.68 l -0.68,0 0.4,9.52 0.56,0 c 0.32,-0.76 0.56,-1.2 1.2,-1.2 1.12,0 4.48,1.2 8.36,1.2 5.88,0 9.8,-3.8 9.8,-9.56 0,-6.64 -4.92,-8.16 -9.36,-9.36 -4.04,-1.08 -6.76,-2.08 -6.76,-5.04 0,-2.36 2,-4.04 4.88,-4.04 4.12,0 6.84,4 8.88,7.68 l 0.64,0 -0.28,-8.08 -0.44,0 c -0.28,0.52 -0.48,0.8 -1.16,0.8 -1.36,0 -3.44,-1.24 -7.12,-1.24 -6.16,0 -9.48,4.2 -9.48,8.68 0,6.04 3.68,7.96 8.52,9.32 4.92,1.4 7.4,2.48 7.4,5.8 0,2.92 -2.68,4.2 -5.08,4.2 z" />
      <path
         id="path7842"
         style="font-style:normal;font-variant:normal;font-weight:normal;font-stretch:normal;font-family:'Abril Fatface';-inkscape-font-specification:'Abril Fatface';text-align:end;text-anchor:end;fill:#6c5d53;fill-opacity:1"
         d="m 224.30536,144.07554 c -5.72,0 -9.2,0.92 -9.2,4.96 0,4 3.12,4.84 5.92,4.84 2.8,0 3.96,-1.04 4.6,-2.96 0.48,1.96 2.28,2.96 5.52,2.96 3.44,0 4.92,-1.36 5.12,-6.16 l -0.6,-0.04 c -0.2,3.36 -0.88,4.12 -1.6,4.12 -0.68,0 -1.16,-0.44 -1.16,-2.08 l 0,-8.12 c 0,-5.8 -2.12,-7.56 -8.4,-7.56 -5.44,0 -8.36,1.56 -8.36,4.92 0,1.96 0.96,3.32 3.44,3.32 2,0 3.52,-1.24 3.52,-3.12 0,-0.76 -0.12,-1.28 -0.32,-1.8 l -1,0 c -0.16,-0.44 -0.24,-0.84 -0.24,-1.16 0,-1.28 1.16,-1.6 1.88,-1.6 1.6,0 2.04,1.32 2.04,6.4 l 0,3.08 -1.16,0 z m -0.56,8.2 c -0.76,0 -1.04,-0.4 -1.04,-3.28 l 0,-0.64 c 0,-2.44 0.8,-3.64 2.48,-3.64 l 0.28,0 0,3.72 c 0,2.56 -0.96,3.84 -1.72,3.84 z" />
      <path
         id="path7844"
         style="font-style:normal;font-variant:normal;font-weight:normal;font-stretch:normal;font-family:'Abril Fatface';-inkscape-font-specification:'Abril Fatface';text-align:end;text-anchor:end;fill:#6c5d53;fill-opacity:1"
         d="m 236.73848,134.43554 0,0.72 2.2,0 0,17.6 -2.2,0 0,0.72 11.36,0 0,-0.72 -1.72,0 0,-11.04 c 0,-3.24 1.56,-5.76 3.24,-5.76 1,0 1.48,0.4 1.48,3.8 l 0,13 -1.64,0 0,0.72 11.32,0 0,-0.72 -2.24,0 0,-12.04 c 0,-4.84 -2.48,-6.68 -6.2,-6.68 -3.96,0 -5.28,2.08 -5.96,4.08 l 0,-3.68 -9.64,0 z" />
      <path
         id="path7846"
         style="font-style:normal;font-variant:normal;font-weight:normal;font-stretch:normal;font-family:'Abril Fatface';-inkscape-font-specification:'Abril Fatface';text-align:end;text-anchor:end;fill:#6c5d53;fill-opacity:1"
         d="m 261.46786,143.99554 c 0,5.8 3.2,9.88 10.32,9.88 5.68,0 7.76,-2.64 8.68,-6.08 l -0.72,-0.12 c -0.88,3.08 -2.88,4.96 -5.84,4.96 -3.88,0 -4.72,-3.2 -4.72,-7.92 l 0,-1.56 11.28,0 c 0.24,-5.96 -2.44,-9.12 -8.72,-9.12 -5.56,0 -10.28,3.04 -10.28,9.96 z m 7.76,-1.64 0,-1.96 c 0,-4.24 0.76,-5.6 2.16,-5.6 1.64,0 1.96,1.4 1.96,5.6 l 0,1.96 -4.12,0 z" />
      <path
         id="path7848"
         style="font-style:normal;font-variant:normal;font-weight:normal;font-stretch:normal;font-family:'Abril Fatface';-inkscape-font-specification:'Abril Fatface';text-align:end;text-anchor:end;fill:#6c5d53;fill-opacity:1"
         d="m 291.49286,144.07554 c -5.72,0 -9.2,0.92 -9.2,4.96 0,4 3.12,4.84 5.92,4.84 2.8,0 3.96,-1.04 4.6,-2.96 0.48,1.96 2.28,2.96 5.52,2.96 3.44,0 4.92,-1.36 5.12,-6.16 l -0.6,-0.04 c -0.2,3.36 -0.88,4.12 -1.6,4.12 -0.68,0 -1.16,-0.44 -1.16,-2.08 l 0,-8.12 c 0,-5.8 -2.12,-7.56 -8.4,-7.56 -5.44,0 -8.36,1.56 -8.36,4.92 0,1.96 0.96,3.32 3.44,3.32 2,0 3.52,-1.24 3.52,-3.12 0,-0.76 -0.12,-1.28 -0.32,-1.8 l -1,0 c -0.16,-0.44 -0.24,-0.84 -0.24,-1.16 0,-1.28 1.16,-1.6 1.88,-1.6 1.6,0 2.04,1.32 2.04,6.4 l 0,3.08 -1.16,0 z m -0.56,8.2 c -0.76,0 -1.04,-0.4 -1.04,-3.28 l 0,-0.64 c 0,-2.44 0.8,-3.64 2.48,-3.64 l 0.28,0 0,3.72 c 0,2.56 -0.96,3.84 -1.72,3.84 z" />
      <path
         id="path7850"
         style="font-style:normal;font-variant:normal;font-weight:normal;font-stretch:normal;font-family:'Abril Fatface';-inkscape-font-specification:'Abril Fatface';text-align:end;text-anchor:end;fill:#6c5d53;fill-opacity:1"
         d="m 303.84598,134.43554 0,0.72 2.2,0 0,17.6 -2.2,0 0,0.72 11.08,0 0,-0.72 -1.44,0 0,-11.04 c 0,-3.24 1.44,-5.76 2.92,-5.76 0.72,0 1.16,0.4 1.16,3.8 l 0,13 -1.4,0 0,0.72 10.28,0 0,-0.72 -1.44,0 0,-11.28 c 0,-3.36 1.48,-5.52 2.92,-5.52 0.72,0 1.16,0.4 1.16,3.8 l 0,13 -1.4,0 0,0.72 11.08,0 0,-0.72 -2.24,0 0,-12.04 c 0,-4.84 -2.4,-6.68 -5.88,-6.68 -3.6,0 -5.24,2.32 -5.88,4.32 -0.68,-3.08 -2.8,-4.32 -5.64,-4.32 -3.68,0 -5,2.08 -5.64,4.08 l 0,-3.68 -9.64,0 z" />
      <path
         id="path7852"
         style="font-style:normal;font-variant:normal;font-weight:normal;font-stretch:normal;font-family:'Abril Fatface';-inkscape-font-specification:'Abril Fatface';text-align:end;text-anchor:end;fill:#6c5d53;fill-opacity:1"
         d="m 339.59286,143.99554 c 0,5.8 3.2,9.88 10.32,9.88 5.68,0 7.76,-2.64 8.68,-6.08 l -0.72,-0.12 c -0.88,3.08 -2.88,4.96 -5.84,4.96 -3.88,0 -4.72,-3.2 -4.72,-7.92 l 0,-1.56 11.28,0 c 0.24,-5.96 -2.44,-9.12 -8.72,-9.12 -5.56,0 -10.28,3.04 -10.28,9.96 z m 7.76,-1.64 0,-1.96 c 0,-4.24 0.76,-5.6 2.16,-5.6 1.64,0 1.96,1.4 1.96,5.6 l 0,1.96 -4.12,0 z" />
      <path
         id="path7854"
         style="font-style:normal;font-variant:normal;font-weight:normal;font-stretch:normal;font-family:'Abril Fatface';-inkscape-font-specification:'Abril Fatface';text-align:end;text-anchor:end;fill:#6c5d53;fill-opacity:1"
         d="m 360.09786,134.43554 0,0.72 2.2,0 0,17.6 -2.2,0 0,0.72 11.36,0 0,-0.72 -1.72,0 0,-11.04 c 0,-3.24 1.56,-5.76 3.24,-5.76 1,0 1.48,0.4 1.48,3.8 l 0,13 -1.64,0 0,0.72 11.32,0 0,-0.72 -2.24,0 0,-12.04 c 0,-4.84 -2.48,-6.68 -6.2,-6.68 -3.96,0 -5.28,2.08 -5.96,4.08 l 0,-3.68 -9.64,0 z" />
      <path
         id="path7856"
         style="font-style:normal;font-variant:normal;font-weight:normal;font-stretch:normal;font-family:'Abril Fatface';-inkscape-font-specification:'Abril Fatface';text-align:end;text-anchor:end;fill:#6c5d53;fill-opacity:1"
         d="m 386.39286,147.75554 c 0,4.96 2.84,6.12 6.8,6.12 4.88,0 6.2,-2.88 6.56,-6 l -0.68,-0.08 c -0.36,2.72 -1.56,4.48 -3.48,4.48 -1.4,0 -1.76,-1.28 -1.76,-3.64 l 0,-13.48 5.2,0 0,-0.72 -5.2,0 0,-7 -7.44,1.84 0,5.16 -2.2,0 0,0.72 2.2,0 0,12.6 z" />
      <path
         id="path7858"
         style="font-style:normal;font-variant:normal;font-weight:normal;font-stretch:normal;font-family:'Abril Fatface';-inkscape-font-specification:'Abril Fatface';text-align:end;text-anchor:end;fill:#6c5d53;fill-opacity:1"
         d="m 413.09411,145.59554 c 0,5.2 -0.12,7.56 -2.4,7.56 -2.44,0 -2.52,-3 -2.52,-7.64 l 0,-3.12 c 0,-4.52 0.12,-7.64 2.56,-7.64 2.24,0 2.36,3.12 2.36,7.44 l 0,3.4 z m -12.6,-1.56 c 0,6.24 3.4,9.84 10.12,9.84 7.12,0 10.16,-3.64 10.16,-10.2 0,-6.48 -3.2,-9.64 -9.92,-9.64 -6.44,0 -10.36,3.44 -10.36,10 z" />
    </g>
  </g>
</svg>
