<?xml version="1.0" encoding="UTF-8" standalone="no"?>
<!-- Created with Inkscape (http://www.inkscape.org/) -->

<svg
   xmlns:dc="http://purl.org/dc/elements/1.1/"
   xmlns:cc="http://creativecommons.org/ns#"
   xmlns:rdf="http://www.w3.org/1999/02/22-rdf-syntax-ns#"
   xmlns:svg="http://www.w3.org/2000/svg"
   xmlns="http://www.w3.org/2000/svg"
   version="1.1"
   width="29.999533"
   height="29.506725"
   id="svg3250">
  <defs
     id="defs3252" />
  <metadata
     id="metadata3255">
    <rdf:RDF>
      <cc:Work
         rdf:about="">
        <dc:format>image/svg+xml</dc:format>
        <dc:type
           rdf:resource="http://purl.org/dc/dcmitype/StillImage" />
        <dc:title></dc:title>
      </cc:Work>
    </rdf:RDF>
  </metadata>
  <g
     transform="translate(5.4581791,-106.62598)"
     id="layer1">
    <path
       d="m 9.5694707,106.3791 -0.167,0.60638 c -0.092,0.33359 -0.2111,0.76244 -0.2648,0.9532 -0.054,0.19076 -0.1022,0.36371 -0.1078,0.38433 -0.019,0.072 -0.2542,0.88254 -0.3041,1.04988 -0.028,0.0928 -0.067,0.22859 -0.088,0.30172 l -0.037,0.133 -0.191,0.0217 c -0.3024,0.0347 -0.4734,0.0576 -0.7248,0.0973 -0.2333,0.0368 -0.3351,0.055 -0.7557,0.13299 -0.1368,0.0254 -0.2277,0.0342 -0.2385,0.0234 -0.026,-0.0261 -1.8384,-2.71328 -1.9638,-2.91177 -0.01,-0.0126 -0.102,0.0256 -0.8103,0.33219 -0.8112,0.35125 -0.9643,0.42035 -1.3592,0.61458 l -0.3187,0.15701 -0.05,0.13885 -0.05,0.13944 0.053,0.25954 c 0.088,0.42725 0.2105,0.93426 0.385,1.59122 0.1351,0.50901 0.1993,0.75291 0.273,1.0405 0.041,0.15983 0.078,0.30448 0.083,0.32106 0.01,0.0209 -0.038,0.0658 -0.1459,0.14822 -0.4231,0.32361 -0.8498,0.67291 -1.1753,0.96141 l -0.1576,0.14003 -0.1705,-0.0803 c -0.094,-0.044 -0.29640002,-0.14101 -0.45110002,-0.2156 -0.1546,-0.0746 -0.3656,-0.17581 -0.4687,-0.22497 -0.3851,-0.18365 -0.7506,-0.36095 -1.42359998,-0.69191 -0.3807,-0.1872 -0.6981,-0.33383 -0.7054,-0.32574 -0.019,0.0212 -0.6976,0.92586 -0.7306,0.9743 -0.015,0.0224 -0.2421,0.33845 -0.5038,0.70245 l -0.4758,0.66145 0.4775,0.46928 c 0.6389,0.62819 1.633,1.66012 1.9808,2.0564 l 0.043,0.0498 -0.1043,0.2361 c -0.057,0.1298 -0.1428,0.33518 -0.1898,0.45639 -0.047,0.12122 -0.097,0.24982 -0.1113,0.28591 -0.04,0.10236 -0.095,0.24964 -0.1992,0.53841 l -0.096,0.26599 -0.078,0.009 c -0.043,0.005 -0.1617,0.0138 -0.2648,0.0193 -0.2372,0.0127 -1.2604,0.0786 -1.6311,0.10487 -0.2895,0.0205 -1.2074,0.10305 -1.4049,0.12655 -0.1313,0.0156 -0.1155,-0.0195 -0.1963,0.4353 -0.069,0.38933 -0.069,0.38597 -0.1254,0.82491 -0.059,0.4528 -0.088,1.54122 -0.043,1.59707 0.048,0.0593 1.0184,0.34522 3.1191,0.91923 0.1135,0.031 0.209,0.0592 0.2127,0.0627 0,0.004 0.018,0.0929 0.031,0.1992 0.013,0.10625 0.034,0.26926 0.046,0.36206 0.026,0.20796 0.1588,0.9752 0.205,1.18639 l 0.034,0.15584 -0.067,0.0475 c -0.037,0.0261 -0.2023,0.13893 -0.3673,0.25076 -0.165,0.11183 -0.3633,0.24672 -0.4406,0.29996 -0.3975,0.27363 -1.4453,0.9776 -1.7336,1.16471 -0.1808,0.11733 -0.3286,0.22476 -0.3287,0.23845 -2e-4,0.0377 0.3338,0.81003 0.6902,1.59707 0.1749,0.38623 0.3402,0.75308 0.3679,0.81495 0.098,0.21923 0.1057,0.23435 0.1154,0.23435 0.01,0 0.2394,-0.0585 0.5197,-0.13007 0.2803,-0.0716 0.7966,-0.20283 1.1471,-0.29176 0.3506,-0.0889 0.7303,-0.18606 0.8437,-0.2156 0.1134,-0.0295 0.3557,-0.0921 0.5384,-0.13944 0.1827,-0.0473 0.3437,-0.0906 0.358,-0.0961 0.016,-0.006 0.066,0.0427 0.1365,0.13534 0.061,0.08 0.2694,0.33164 0.464,0.55892 0.1945,0.22727 0.4197,0.50498 0.4997,0.6175 l 0.1453,0.20447 -0.089,0.19861 c -0.145,0.32238 -0.2298,0.49872 -0.5947,1.23911 -0.3007,0.6102 -0.6911,1.42993 -0.8015,1.6832 -0.021,0.0476 -0.028,0.0865 -0.018,0.0955 0.01,0.008 0.2116,0.153 0.4488,0.32164 0.4354,0.30962 1.0889,0.78036 1.5783,1.13659 0.1464,0.1066 0.2722,0.19392 0.2794,0.19392 0.023,0 0.303,-0.26705 1.3575,-1.2936 0.6225,-0.60598 0.9224,-0.89451 1.1278,-1.08503 l 0.1066,-0.099 0.2121,0.0937 c 0.4435,0.19509 0.8761,0.35994 1.3346,0.50912 l 0.2344,0.0762 0.01,0.11659 c 0.026,0.29769 0.052,0.6378 0.078,1.01648 0.1459,2.16434 0.1701,2.44659 0.2097,2.44659 0.039,0 0.5813,0.0528 0.7827,0.0762 0.1653,0.0192 0.5227,0.0539 0.9474,0.092 0.1185,0.0106 0.3548,0.0319 0.5249,0.0475 0.1701,0.0155 0.3515,0.0313 0.4031,0.0346 0.052,0.003 0.1196,0.007 0.1511,0.009 l 0.057,0.004 0.1171,-0.43999 c 0.1091,-0.40893 0.3515,-1.2778 0.5285003,-1.89411 0.041,-0.14436 0.087,-0.30465 0.1013,-0.35621 0.014,-0.0516 0.042,-0.15279 0.063,-0.22497 0.02,-0.0722 0.059,-0.21073 0.086,-0.30817 0.027,-0.0974 0.059,-0.18407 0.072,-0.19217 0.013,-0.008 0.046,-0.0145 0.074,-0.0146 0.1215,-6.9e-4 1.064,-0.14785 1.3897,-0.21677 0.3528,-0.0747 0.4106,-0.0857 0.4154,-0.0803 0.026,0.0294 0.3441,0.48855 0.6023,0.86826 0.1752,0.25778 0.548,0.80616 0.8284,1.21861 0.2803,0.41245 0.5302,0.77498 0.5548,0.80557 l 0.044,0.0557 0.1102,-0.0486 c 0.7248,-0.32006 1.505,-0.66928 1.8255,-0.81729 0.1784,-0.0823 0.682,-0.32463 0.6884,-0.33102 0.01,-0.008 -0.2169,-0.89307 -0.3726,-1.46408 -0.074,-0.27122 -0.2919,-1.12919 -0.3263,-1.28423 -0.071,-0.31949 -0.1394,-0.65795 -0.1394,-0.68956 0,-0.037 0.042,-0.0742 0.2999,-0.26716 0.2268,-0.16928 0.6864,-0.5443 0.928,-0.75753 0.1135,-0.10007 0.2147,-0.18569 0.2256,-0.19041 0.011,-0.005 0.2893,0.12334 0.6187,0.28474 0.5647,0.27665 0.8603,0.41977 1.3527,0.65617 0.1155,0.0554 0.4346,0.21054 0.7095,0.34449 0.2749,0.13396 0.5116,0.24563 0.5256,0.24841 0.014,0.003 0.1144,-0.11872 0.2279,-0.27595 0.1116,-0.15466 0.3372,-0.46682 0.5009,-0.69366 0.1637,-0.22685 0.3708,-0.51369 0.4605,-0.63743 0.3783,-0.52238 0.5085,-0.71995 0.4927,-0.74815 -0.01,-0.0153 -0.1587,-0.17378 -0.334,-0.35211 -0.1752,-0.17833 -0.614,-0.62752 -0.9748,-0.99774 -0.3609,-0.37021 -0.6776,-0.69502 -0.7043,-0.72179 -0.027,-0.0268 -0.1394,-0.14326 -0.2507,-0.25895 l -0.2027,-0.21033 0.113,-0.26774 c 0.1032,-0.24548 0.1498,-0.36134 0.2965,-0.73644 0.028,-0.0722 0.099,-0.27887 0.1576,-0.45932 l 0.1066,-0.32808 0.1576,-0.0129 c 0.087,-0.007 0.251,-0.0224 0.3644,-0.0334 0.22,-0.0213 0.7887,-0.0636 1.2655,-0.0943 0.2691,-0.0174 0.6312,-0.0437 1.3124,-0.0949 0.1495,-0.0113 0.3182,-0.0258 0.3749,-0.0328 l 0.1031,-0.0129 0.012,-0.11249 c 0.01,-0.0619 0.026,-0.25169 0.043,-0.42182 0.017,-0.17014 0.034,-0.33043 0.039,-0.35621 0,-0.0258 0.017,-0.14389 0.027,-0.26247 0.018,-0.20422 0.043,-0.46046 0.1037,-1.05925 0.015,-0.14436 0.033,-0.35156 0.039,-0.46049 l 0.012,-0.19803 -0.2789,-0.0803 c -0.1534,-0.0442 -0.4603,-0.13095 -0.682,-0.19217 -0.2217,-0.0612 -0.5043,-0.13968 -0.628,-0.17459 -0.1238,-0.0349 -0.3515,-0.0986 -0.5062,-0.14178 -0.1547,-0.0431 -0.3529,-0.0993 -0.4406,-0.12479 -0.088,-0.0255 -0.2564,-0.0745 -0.3749,-0.10897 -0.569,-0.16532 -0.5127,-0.1425 -0.5273,-0.2156 -0.01,-0.0361 -0.027,-0.18373 -0.044,-0.32808 -0.043,-0.3663 -0.095,-0.68837 -0.1805,-1.1237 -0.057,-0.29103 -0.068,-0.37654 -0.05,-0.38726 0.013,-0.008 0.062,-0.0402 0.1084,-0.0726 0.2623,-0.18362 0.4259,-0.29605 0.7405,-0.50677 0.9348,-0.62611 1.8088,-1.22803 2.0195,-1.39144 l 0.069,-0.0539 -0.044,-0.0978 c -0.024,-0.0536 -0.1303,-0.28286 -0.2355,-0.50971 -0.2575,-0.55508 -0.6481,-1.42757 -0.7681,-1.71542 -0.054,-0.12889 -0.1044,-0.24113 -0.1125,-0.24958 -0.019,-0.02 -0.6094,0.11173 -1.4541,0.32515 -1.5001,0.37903 -2.0511,0.51407 -2.0599,0.50327 0,-0.004 -0.08,-0.10827 -0.1711,-0.23201 -0.2394,-0.32593 -0.4159,-0.54586 -0.6825,-0.85009 -0.1296,-0.14789 -0.2597,-0.29725 -0.2889,-0.33219 l -0.053,-0.0639 0.056,-0.11718 c 0.088,-0.18389 0.3547,-0.73571 0.5653,-1.16763 0.36,-0.73805 0.537,-1.1087 0.7734,-1.62051 l 0.1511,-0.32692 -0.048,-0.0387 c -0.026,-0.0213 -0.1262,-0.093 -0.2226,-0.15935 -0.096,-0.0663 -0.4705,-0.33266 -0.8314,-0.59173 -0.8971,-0.64402 -1.2231,-0.87177 -1.2461,-0.87177 -0.011,0 -0.2703,0.24676 -0.5771,0.54837 -0.3068,0.3016 -0.6969,0.68387 -0.8671,0.84951 -0.6049,0.58877 -0.9105,0.88534 -1.0106,0.97957 l -0.102,0.0955 -0.067,-0.0293 c -0.492,-0.21391 -1.0449,-0.42452 -1.446,-0.55072 -0.1391,-0.0438 -0.2583,-0.0845 -0.2654,-0.0908 -0.012,-0.0111 -0.054,-0.47007 -0.091,-0.99598 -0.01,-0.1392 -0.027,-0.35433 -0.037,-0.47807 -0.026,-0.29896 -0.067,-0.91552 -0.1031,-1.53732 -0.016,-0.2784 -0.032,-0.51504 -0.036,-0.52611 0,-0.0111 -0.094,-0.0304 -0.201,-0.0428 -0.1067,-0.0123 -0.3331,-0.0394 -0.5032,-0.0598 -0.5276,-0.0632 -1.6743,-0.17545 -2.0154003,-0.19744 l -0.1875,-0.0117 z m -0.015,6.57638 c 0.2836,9e-5 0.5692003,0.008 0.7182003,0.0234 0.6409,0.0671 1.2695,0.20095 1.8344,0.39019 1.218,0.40801 2.3841,1.11333 3.2809,1.98434 1.0876,1.05636 1.8786,2.42761 2.2813,3.95579 0.3546,1.34545 0.3698,2.75463 0.044,4.04952 -0.1736,0.68961 -0.553,1.60929 -0.9321,2.25911 -0.3986,0.6832 -0.7969,1.1896 -1.3932,1.77167 -0.6295,0.61438 -1.2356,1.05476 -2.0219,1.46819 -0.9062,0.47655 -1.9969,0.79508 -3.1309,0.91395 -0.3283003,0.0344 -0.9794003,0.0479 -1.2654003,0.0264 -1.5083,-0.11336 -2.9423,-0.61766 -4.1995,-1.47639 -1.1979,-0.81823 -2.141,-1.88588 -2.7607,-3.12561 -0.6213,-1.24311 -0.9236,-2.51796 -0.9227,-3.89017 8e-4,-1.15803 0.1845,-2.04612 0.6509,-3.14026 0.4866,-1.14152 0.9857,-1.89125 1.8039,-2.70964 0.8445,-0.8447 1.8109,-1.47796 2.9252,-1.91755 0.7314,-0.28851 1.4509,-0.4574 2.381,-0.55951 0.1413,-0.0155 0.4229,-0.0235 0.7066,-0.0234 z"
       id="path4414"
       style="fill:#ffffff;fill-opacity:1;stroke:none" />
  </g>
</svg>
