<?xml version="1.0" encoding="UTF-8" standalone="no"?>
<!-- Created with Inkscape (http://www.inkscape.org/) -->

<svg
   xmlns:dc="http://purl.org/dc/elements/1.1/"
   xmlns:cc="http://creativecommons.org/ns#"
   xmlns:rdf="http://www.w3.org/1999/02/22-rdf-syntax-ns#"
   xmlns:svg="http://www.w3.org/2000/svg"
   xmlns="http://www.w3.org/2000/svg"
   version="1.1"
   width="29.999533"
   height="29.506725"
   id="svg3250">
  <defs
     id="defs3252" />
  <metadata
     id="metadata3255">
    <rdf:RDF>
      <cc:Work
         rdf:about="">
        <dc:format>image/svg+xml</dc:format>
        <dc:type
           rdf:resource="http://purl.org/dc/dcmitype/StillImage" />
        <dc:title></dc:title>
      </cc:Work>
    </rdf:RDF>
  </metadata>
  <g
     transform="translate(5.4581791,-106.62598)"
     id="layer1">
    <g
       transform="matrix(0.17356897,0,0,0.17356897,-4.5089738,112.50563)"
       id="g4341"
       style="fill:#ffffff;fill-opacity:1;stroke:#ffffff;stroke-opacity:1">
      <path
         d="M 104.66616,133.38433 C 98.648751,123.87637 82.980911,95.269935 83.231471,94.248735 c 0.75586,-3.08065 22.434729,-39.55967 23.525039,-39.58558 0.84451,-0.0201 1.29974,2.77843 1.5,9.22118 l 0.28753,9.25 4,-0.0436 c 2.2,-0.024 7.27165,-0.13647 11.27032,-0.25 l 7.27033,-0.2064 -2.16568,-4.25 c -1.19113,-2.3375 -5.70028,-10.46548 -10.02033,-18.06218 -4.32005,-7.5967 -7.85464,-14.192908 -7.85464,-14.658234 0,-1.222177 30.58151,-18.029586 32.80529,-18.029586 0.57284,0 3.8885,4.091594 7.36812,9.092432 3.47962,5.000838 7.30482,10.312565 8.50043,11.803839 6.72234,8.384719 8.72149,16.457389 5.97623,24.132299 -0.69418,1.94072 -7.70823,14.6409 -15.58678,28.22263 l -14.32463,24.694065 -13.61933,0.27737 -13.61933,0.27736 -0.28621,9.75 c -0.15742,5.3625 -0.70954,9.75 -1.22695,9.75 -0.5174,0 -1.58153,-1.0125 -2.36472,-2.25 z"
         id="path4339"
         style="fill:#ffffff;fill-opacity:1;stroke:#ffffff;stroke-opacity:1" />
      <path
         d="m 119.939,112.63433 14.39496,-0.5 10.35504,-17.887065 c 5.69527,-9.83789 10.35504,-18.07728 10.35504,-18.30976 0,-0.23248 -11.1375,-0.33446 -24.75,-0.22663 l -24.75,0.19605 -0.5,-6.8863 -0.5,-6.88629 -4.39966,7.5 c -2.419819,4.125 -6.608289,11.27028 -9.307719,15.8784 -2.9835,5.09304 -4.66592,9.01426 -4.29056,10 0.53708,1.41043 6.57741,12.069465 15.369459,27.121595 l 2.62848,4.5 0.5,-7 0.5,-7 z"
         id="path4337"
         style="fill:#ffffff;fill-opacity:1;stroke:#ffffff;stroke-opacity:1" />
      <path
         d="m 149.02399,71.553185 c 9.08814,-2.09406 14.10008,-8.46649 14.1741,-18.02163 0.0354,-4.56955 -0.54006,-5.70215 -8.80809,-17.335791 -4.86528,-6.845757 -9.29778,-13.185246 -9.85,-14.087754 -0.88037,-1.438811 -2.75872,-0.695636 -15.25,6.033704 -7.83528,4.221047 -14.24596,8.042996 -14.24596,8.493221 0,0.709277 14.79606,27.46801 18.6615,33.7494 1.12486,1.8279 2.27137,2.24541 6.11155,2.22555 2.59982,-0.0134 6.74293,-0.48896 9.2069,-1.0567 z"
         id="path4335"
         style="fill:#ffffff;fill-opacity:1;stroke:#ffffff;stroke-opacity:1" />
      <path
         d="m 37.044041,114.64333 c -1.925,-1.04644 -4.727432,-2.93906 -6.227626,-4.20581 -2.813129,-2.37539 -31.772374,-51.879975 -31.772374,-54.313515 0,-0.75069 2.7,-6.22011 6,-12.15427 3.3,-5.934162 6,-11.076502 6,-11.427424 0,-0.350923 -3.6,-2.729784 -8,-5.286358 -4.4,-2.556574 -8,-5.092309 -8,-5.634967 0,-0.621369 8.855528,-0.986651 23.919344,-0.986651 l 23.919345,0 11.673899,20.106756 c 7.143198,12.303214 11.315262,20.465394 10.749822,21.030834 -0.565441,0.56544 -3.96733,-0.81043 -8.765378,-3.54508 l -7.841298,-4.46917 -5.314384,9.61848 c -2.922912,5.29016 -5.207952,9.71339 -5.077867,9.82938 0.625209,0.5575 17.603048,1.37895 28.986517,1.40246 l 12.75,0.02634 -0.0153,18.25 c -0.008,10.037495 -0.34592,18.744955 -0.75,19.349905 -0.54731,0.81939 -34.929083,4.74817 -38.23469,4.36905 -0.275,-0.0315 -2.075,-0.91353 -4.00001,-1.95996 z"
         id="path4333"
         style="fill:#ffffff;fill-opacity:1;stroke:#ffffff;stroke-opacity:1" />
      <path
         d="m 75.745831,110.17525 c 0.84995,-0.312 1.28908,-5.14019 1.5,-16.492415 l 0.29821,-16.05127 -4,-0.052 c -2.2,-0.0286 -11.505136,-0.29532 -20.678079,-0.59267 l -16.67808,-0.54064 -2.4184,3.84406 c -3.668814,5.8316 -4.995449,10.93449 -4.526867,17.41256 0.473226,6.542295 1.869739,8.674825 8.439746,12.887835 l 4.138319,2.6537 16.361681,-1.31399 c 8.99892,-0.72269 16.90248,-1.51249 17.56347,-1.75512 z"
         id="path4331"
         style="fill:#ffffff;fill-opacity:1;stroke:#ffffff;stroke-opacity:1" />
      <path
         d="m 34.969268,71.884335 c 6.252339,-11.4125 11.827877,-21.04849 12.390083,-21.41331 0.562207,-0.36482 3.421256,0.69063 6.353442,2.34546 2.932186,1.65482 5.331248,2.65274 5.331248,2.2176 0,-0.43514 -3.9375,-7.65665 -8.75,-16.047797 l -8.75,-15.256637 -17.5,-0.297658 c -9.625,-0.163712 -18.108457,-0.02905 -18.852126,0.299247 -0.855315,0.377584 0.706263,1.758588 4.25,3.758549 3.081169,1.738905 5.602126,3.445155 5.602126,3.791667 0,0.346513 -2.980246,6.004945 -6.622769,12.574299 -7.665649,13.82512 -8.020991,10.54626 3.247646,29.96708 4.248088,7.32133 8.432844,14.54615 9.299459,16.05518 0.866615,1.50902 1.813565,2.74652 2.104333,2.75 0.290768,0.003 5.644219,-9.33118 11.896558,-20.74368 z"
         id="path4329"
         style="fill:#ffffff;fill-opacity:1;stroke:#ffffff;stroke-opacity:1" />
      <path
         d="m 57.544041,26.052645 c -1.1,-0.834946 -6.95,-4.509887 -13,-8.166535 C 31.600955,10.063247 29.593762,8.377393 30.318785,5.93822 30.924732,3.899652 40.508675,-16.6418 43.868664,-23.1035 c 1.553202,-2.987011 3.749016,-5.124124 7.439495,-7.240616 l 5.235882,-3.002781 31.20847,-0.0094 31.208469,-0.0094 5.79153,9.600197 c 9.14395,15.157269 7.45633,14.254954 16.75089,8.956142 4.54178,-2.589264 8.33467,-4.16231 8.83343,-3.663544 0.90819,0.908189 -1.44126,5.351708 -14.79924,27.98982 l -7.76111,13.152951 -23.36731,-0.267783 C 89.829771,22.23501 80.974411,21.758226 80.862521,21.134303 c -0.0986,-0.55 3.26051,-2.927909 7.46477,-5.284242 l 7.64412,-4.284242 -2.0526,-3.715758 c -3.24153,-5.868032 -9.32173,-15.1974 -9.91083,-15.207012 -0.29483,-0.00481 -5.21579,7.866254 -10.93547,17.491254 -6.50206,10.94159 -10.985746,17.488081 -11.963942,17.468197 -0.86049,-0.01749 -2.464528,-0.714941 -3.564528,-1.549887 z"
         id="path4317"
         style="fill:#ffffff;fill-opacity:1;stroke:#ffffff;stroke-opacity:1" />
      <path
         d="m 64.345978,18.376503 c 1.849863,-2.891808 4.609943,-7.504308 6.133493,-10.25 1.52356,-2.745692 4.82134,-8.296222 7.3284,-12.33451 l 4.55829,-7.342343 -1.84256,-3.157657 c -5.57074,-9.546776 -12.48462,-14.657658 -19.828528,-14.657658 -2.044636,0 -5.84006,1.078338 -8.434276,2.396307 -4.618414,2.346345 -4.869394,2.725193 -12.037705,18.170543 -5.59481,12.054974 -7.009495,15.953275 -6,16.533581 0.726522,0.41764 6.720949,4.147678 13.320949,8.288974 6.6,4.141295 12.323672,7.547846 12.719271,7.570112 0.3956,0.02226 2.232799,-2.325541 4.082666,-5.217349 z"
         id="path4315"
         style="fill:#ffffff;fill-opacity:1;stroke:#ffffff;stroke-opacity:1" />
      <path
         d="m 134.97309,4.039022 c 5.06751,-8.577422 9.00203,-15.806938 8.74338,-16.065592 -0.25866,-0.258654 -2.97468,0.943117 -6.03562,2.670601 l -5.56533,3.14088 -3.34938,-5.325288 c -1.84216,-2.928908 -5.09204,-8.346198 -7.22195,-12.038422 l -3.87257,-6.713133 -21.314719,-0.286867 c -11.7231,-0.157776 -21.3143,0.03186 -21.31379,0.421414 5.1e-4,0.389555 5.40093,9.635618 12.00093,20.546808 6.6,10.91119 11.99954,20.492464 11.99898,21.29172 -5.6e-4,0.799256 -2.25056,2.716651 -5,4.260878 -2.74944,1.544227 -4.99898,3.006727 -4.99898,3.25 0,0.243273 8.26096,0.442314 18.357689,0.442314 l 18.3577,0 z"
         id="path4311"
         style="fill:#ffffff;fill-opacity:1;stroke:#ffffff;stroke-opacity:1" />
    </g>
  </g>
</svg>
