<?xml version="1.0" encoding="UTF-8" standalone="no"?>
<svg
   xmlns:dc="http://purl.org/dc/elements/1.1/"
   xmlns:cc="http://creativecommons.org/ns#"
   xmlns:rdf="http://www.w3.org/1999/02/22-rdf-syntax-ns#"
   xmlns:svg="http://www.w3.org/2000/svg"
   xmlns="http://www.w3.org/2000/svg"
   version="1.1"
   id="svg8187"
   viewBox="0 0 169 169"
   height="47.695557mm"
   width="47.695557mm">
  <defs
     id="defs8189">
    <clipPath
       id="clipPath9087"
       clipPathUnits="userSpaceOnUse">
      <circle
         style="opacity:1;fill:#8d8c87;fill-opacity:1;stroke:#e86726;stroke-width:0;stroke-linecap:round;stroke-linejoin:round;stroke-miterlimit:4;stroke-dasharray:none;stroke-dashoffset:0;stroke-opacity:1"
         id="circle9089"
         cx="81.835922"
         cy="85.803711"
         r="84" />
    </clipPath>
  </defs>
  <metadata
     id="metadata8192">
    <rdf:RDF>
      <cc:Work
         rdf:about="">
        <dc:format>image/svg+xml</dc:format>
        <dc:type
           rdf:resource="http://purl.org/dc/dcmitype/StillImage" />
        <dc:title></dc:title>
      </cc:Work>
    </rdf:RDF>
  </metadata>
  <g
     transform="translate(984.94202,63.484713)"
     id="layer1">
    <path
       clip-path="url(#clipPath9087)"
       id="path7313"
       transform="translate(-982.27794,-64.788423)"
       d="m 103.35938,-16.125 -8.884771,0.986328 c 0.03809,0.342997 0.156385,3.321767 0.273438,7.1425782 L 82.103516,-8.15625 a 9.2909671,9.2909671 0 0 0 -1.001954,0.044922 L 80.091797,-9.3359375 C 74.827307,-15.724964 64.486128,-4.916864 69.736328,-0.390625 l 2.96875,2.5605469 0.251953,29.5957031 C 38.036582,31.617823 1.4988432,31.462891 0.13671875,31.462891 l 0,9.640625 c 0.46059556,0 37.70384425,0.154629 72.90234325,0.302734 l 0.230469,27.109375 -0.662109,-0.572266 c -4.48303,-3.864855 -9.902828,4.283444 -7.236328,7.519532 l 0.767578,0.933593 c -0.737058,-0.0084 -1.370063,-0.01655 -2.173828,-0.02539 l 0,-21.1875 1.892578,-1.63086 C 70.874546,49.227426 61.473235,39.093416 56.148438,44.15625 a 9.2909671,9.2909671 0 0 0 -1.47461,-0.121094 l -56.9609374,0 0,18.580078 43.1660154,0 -0.0918,0.111328 c -2.030473,2.464197 1.129421,8.0557 4.597657,7.675782 l 0,5.808594 c -2.409696,-0.01767 -3.950885,-0.03615 -6.69336,-0.05273 -11.19522,-0.06771 -22.550439,-0.101875 -31.4746091,-0.05078 -4.46208,0.02555 -8.30992,0.07159 -11.28125,0.148437 -1.48566,0.03842 -2.7471894,0.08416 -3.8183594,0.144532 -1.07116,0.06037 -1.5592294,-0.0011 -3.2871095,0.36914 L -7.2773438,94.9375 c -1.09697,0.235065 -0.3166068,0.05433 0.4394532,0.01172 0.75605,-0.04261 1.8808062,-0.08363 3.2539062,-0.119141 2.74621003,-0.07102 6.51319,-0.117427 10.90625,-0.142578 8.7861304,-0.0503 20.0991494,-0.0167 31.2558594,0.05078 2.500072,0.01512 4.351623,0.03871 6.806641,0.05664 l 0,25.738279 -60.359375,-0.38476 -0.0625,9.64062 60.421875,0.38672 0,18.97852 C 31.629874,149.09696 6.809517,148.99023 6.0742188,148.99023 l 0,9.64063 c 0.2483576,0 25.4571022,0.10668 39.3105472,0.16406 l 0,10.25586 18.580078,0 0,-10.17969 c 12.646375,0.0528 14.481662,0.0596 28.523437,0.11914 2.133744,0.009 2.126825,0.009 4.253907,0.0176 0.13702,16.63008 0.228515,28.72461 0.228515,28.72461 l 8.939457,-0.0664 c 0,0 -0.0925,-12.09648 -0.22852,-28.61914 3.5234,0.015 3.81173,0.0168 7.21094,0.0312 l 0.16797,19.6875 18.58007,-0.1582 -0.16601,-19.45117 c 18.05551,0.077 45.82422,0.19531 45.82422,0.19531 l 0.041,-9.64062 c 0,0 -27.81256,-0.11795 -45.94726,-0.19532 l -0.3418,-40.19531 c 2.46401,-0.31838 4.55336,-3.49203 4.33789,-5.89258 l 43.08399,0.54688 0.23632,-18.578126 -56.96093,-0.720703 a 9.2909671,9.2909671 0 0 0 -1.06055,0.05273 l -0.33398,-0.40625 c -5.06129,-6.142419 -15.00459,4.248076 -9.95704,8.599609 l 1.94727,1.679687 0.4668,54.835933 c -3.40269,-0.0145 -3.68683,-0.0163 -7.21289,-0.0312 -0.14665,-17.38127 -0.32387,-37.83757 -0.54297,-59.767573 -0.16705,-16.720139 -0.35146,-32.9052 -0.54102,-48.09961 22.60252,0.09614 37.65742,0.159997 47.28321,0.201172 l -0.16797,13.197266 -0.45508,0.392578 c -5.18533,4.470312 5.02906,15.146019 10.22851,8.835938 l 1.48438,-1.802735 7.22851,0.0918 0.11329,-9.001953 6.01367,-7.298828 c 2.08347,-2.528523 -1.2952,-8.359958 -4.86719,-7.642578 l 0.0273,-6.328125 c 0,0 -0.89473,-0.0039 -0.90429,-0.0039 l 0.33789,-26.6855474 -18.57813,-0.234375 -0.33984,26.8398434 c -9.64216,-0.04124 -24.78921,-0.104452 -47.5293,-0.201171 -0.051,-3.818484 -0.1009,-8.224038 -0.15234,-11.71875 -0.0559,-3.7964 -0.11198,-6.146847 -0.16797,-9.478516 l 34.76172,0.441406 0.23437,-18.5781249 -35.35351,-0.4472656 c -0.0951,-3.8283835 -0.18584,-6.7506925 -0.35156,-8.2421875 z m -8.185552,29.443359 c 0.04151,2.555827 0.08371,4.186935 0.125,6.992188 0.05066,3.442179 0.100229,7.790088 0.150391,11.548828 -1.938527,-0.0082 -1.957889,-0.0073 -3.91211,-0.01563 l -0.128906,-15.20312 c 1.58228,-0.297019 3.002725,-1.700474 3.765625,-3.322266 z m -3.554687,28.166016 c 1.975345,0.0084 1.996091,0.0093 3.955078,0.01758 0.189684,15.223919 0.373445,31.454498 0.541015,48.226563 0.114116,11.421822 0.18622,20.413502 0.283204,31.130862 l -32.433594,-0.20704 0,-25.703119 c 9.872372,0.09632 16.746761,0.171017 17.611328,0.18164 l 0.21289,0.257813 c 5.752051,6.980726 17.050884,-4.829965 11.314454,-9.775391 l -1.115235,-0.960937 -0.36914,-43.167969 z m -27.654297,88.810545 32.519531,0.20703 c 0.05488,6.22089 0.125518,13.37369 0.171875,18.86524 -2.063951,-0.009 -2.056879,-0.009 -4.126953,-0.0176 -14.055351,-0.0596 -16.020724,-0.0663 -28.564453,-0.11914 l 0,-18.93555 z"
       style="color:#000000;font-style:normal;font-variant:normal;font-weight:normal;font-stretch:normal;font-size:medium;line-height:normal;font-family:sans-serif;text-indent:0;text-align:start;text-decoration:none;text-decoration-line:none;text-decoration-style:solid;text-decoration-color:#000000;letter-spacing:normal;word-spacing:normal;text-transform:none;direction:ltr;block-progression:tb;writing-mode:lr-tb;baseline-shift:baseline;text-anchor:start;white-space:normal;clip-rule:nonzero;display:inline;overflow:visible;visibility:visible;opacity:1;isolation:auto;mix-blend-mode:normal;color-interpolation:sRGB;color-interpolation-filters:linearRGB;solid-color:#000000;solid-opacity:1;fill:#ffffff;fill-opacity:1;fill-rule:evenodd;stroke:#8a8a8a;stroke-width:1;stroke-linecap:butt;stroke-linejoin:round;stroke-miterlimit:4;stroke-dasharray:none;stroke-dashoffset:0;stroke-opacity:1;color-rendering:auto;image-rendering:auto;shape-rendering:auto;text-rendering:auto;enable-background:accumulate" />
    <circle
       style="opacity:1;fill:none;fill-opacity:1;stroke:#ffffff;stroke-width:1;stroke-linecap:round;stroke-linejoin:round;stroke-miterlimit:4;stroke-dasharray:none;stroke-dashoffset:0;stroke-opacity:1"
       id="circle7578-0"
       cx="-900.44202"
       cy="21.015287"
       r="84" />
  </g>
</svg>
