<?xml version="1.0" encoding="UTF-8" standalone="no"?>
<svg
   xmlns:dc="http://purl.org/dc/elements/1.1/"
   xmlns:cc="http://creativecommons.org/ns#"
   xmlns:rdf="http://www.w3.org/1999/02/22-rdf-syntax-ns#"
   xmlns:svg="http://www.w3.org/2000/svg"
   xmlns="http://www.w3.org/2000/svg"
   viewBox="0 0 168 73.833243"
   height="73.833244"
   width="168"
   version="1.1"
   id="svg2">
  <metadata
     id="metadata8">
    <rdf:RDF>
      <cc:Work
         rdf:about="">
        <dc:format>image/svg+xml</dc:format>
        <dc:type
           rdf:resource="http://purl.org/dc/dcmitype/StillImage" />
        <dc:title></dc:title>
      </cc:Work>
    </rdf:RDF>
  </metadata>
  <defs
     id="defs6" />
  <g
     transform="translate(-124.05537,-80.042286)"
     id="layer1" />
  <g
     transform="translate(-124.05537,-80.042286)"
     id="layer2">
    <flowRoot
       transform="translate(4.1135023,2.0567532)"
       style="font-style:normal;font-weight:normal;font-size:40px;line-height:125%;font-family:Sans;letter-spacing:0px;word-spacing:0px;fill:#000000;fill-opacity:1;stroke:none;stroke-width:1px;stroke-linecap:butt;stroke-linejoin:miter;stroke-opacity:1"
       id="flowRoot7656"
       xml:space="preserve"><flowRegion
         id="flowRegion7658"><rect
           y="26.532093"
           x="106.33403"
           height="70.957916"
           width="101.39783"
           id="rect7660" /></flowRegion><flowPara
         id="flowPara7662">COns</flowPara></flowRoot>    <g
       transform="matrix(0.98823529,0,0,0.98823529,1.4594749,1.8103004)"
       id="text7664"
       style="font-style:normal;font-weight:normal;font-size:22.91732407px;line-height:125%;font-family:Sans;text-align:end;letter-spacing:0px;word-spacing:0px;text-anchor:end;fill:#6c5d53;fill-opacity:1;stroke:none;stroke-width:1px;stroke-linecap:butt;stroke-linejoin:miter;stroke-opacity:1">
      <path
         id="path8860"
         style="font-style:normal;font-variant:normal;font-weight:normal;font-stretch:normal;font-family:'Abril Fatface';-inkscape-font-specification:'Abril Fatface';text-align:end;text-anchor:end;fill:#6c5d53;fill-opacity:1"
         d="m 187.25706,80.517179 c 1.97089,0 3.34593,1.947973 4.60638,4.766804 l 0.41251,0 -0.18334,-4.97306 -0.25209,0 c -0.16042,0.297926 -0.25209,0.458347 -0.61877,0.458347 -0.8021,0 -1.90213,-0.710437 -4.28554,-0.710437 -4.69805,0 -7.90647,2.933417 -7.90647,8.47941 0,5.47724 2.97925,8.04398 7.83772,8.04398 2.52091,0 3.78136,-0.710437 4.56055,-0.710437 0.36668,0 0.45835,0.160422 0.61877,0.458347 l 0.25209,0 0.16042,-5.110563 -0.41251,0 c -1.28337,2.979252 -2.773,4.904307 -4.6293,4.904307 -2.49799,0 -3.71261,-2.727162 -3.71261,-6.943949 l 0,-1.810469 c 0,-4.743886 1.23754,-6.85228 3.55219,-6.85228 z" />
      <path
         id="path8862"
         style="font-style:normal;font-variant:normal;font-weight:normal;font-stretch:normal;font-family:'Abril Fatface';-inkscape-font-specification:'Abril Fatface';text-align:end;text-anchor:end;fill:#6c5d53;fill-opacity:1"
         d="m 201.29821,91.838337 c 0,2.979253 -0.0688,4.331375 -1.37503,4.331375 -1.39796,0 -1.4438,-1.7188 -1.4438,-4.377209 l 0,-1.787552 c 0,-2.589657 0.0688,-4.377208 1.46671,-4.377208 1.28337,0 1.35212,1.787551 1.35212,4.262622 l 0,1.947972 z m -7.21895,-0.893775 c 0,3.575102 1.94797,5.637661 5.79808,5.637661 4.07928,0 5.821,-2.085476 5.821,-5.843917 0,-3.712607 -1.83338,-5.523075 -5.6835,-5.523075 -3.68968,0 -5.93558,1.97089 -5.93558,5.729331 z" />
      <path
         id="path8864"
         style="font-style:normal;font-variant:normal;font-weight:normal;font-stretch:normal;font-family:'Abril Fatface';-inkscape-font-specification:'Abril Fatface';text-align:end;text-anchor:end;fill:#6c5d53;fill-opacity:1"
         d="m 206.38514,85.444404 0,0.412512 1.26046,0 0,10.083622 -1.26046,0 0,0.412512 6.50852,0 0,-0.412512 -0.98544,0 0,-6.325181 c 0,-1.856303 0.89378,-3.300095 1.8563,-3.300095 0.57294,0 0.84794,0.229174 0.84794,2.177146 l 0,7.44813 -0.93961,0 0,0.412512 6.48561,0 0,-0.412512 -1.28337,0 0,-6.898114 c 0,-2.772996 -1.42088,-3.827193 -3.55219,-3.827193 -2.26881,0 -3.02509,1.191701 -3.41468,2.337567 l 0,-2.108394 -5.52308,0 z" />
      <path
         id="path8866"
         style="font-style:normal;font-variant:normal;font-weight:normal;font-stretch:normal;font-family:'Abril Fatface';-inkscape-font-specification:'Abril Fatface';text-align:end;text-anchor:end;fill:#6c5d53;fill-opacity:1"
         d="m 220.96594,96.582223 0.275,0 c 0.36668,-0.641685 0.68752,-0.847941 0.98545,-0.847941 0.0917,0 0.29792,0.09167 0.43543,0.183339 0.87086,0.435429 1.65005,0.664602 2.75008,0.664602 2.58965,0 4.28554,-1.306287 4.28554,-3.918862 0,-2.704244 -2.01673,-3.437599 -3.8272,-3.918862 -1.51254,-0.412512 -2.88758,-0.664603 -2.88758,-1.7188 0,-0.710437 0.61877,-1.329204 2.13131,-1.329204 1.62713,0 2.79592,0.870858 3.62094,2.979252 l 0.27501,0 0,-3.506351 -0.25209,0 c -0.29793,0.572933 -0.45835,0.756272 -0.80211,0.756272 -0.27501,0 -0.36668,-0.06875 -0.64169,-0.183339 -0.61876,-0.275008 -1.30628,-0.527098 -2.31465,-0.527098 -2.42923,0 -4.03344,1.53546 -4.03344,3.873028 0,2.543822 2.03964,3.25426 3.87302,3.758441 1.74172,0.481263 2.86467,0.710437 2.86467,1.741716 0,0.870859 -0.64169,1.489626 -2.33757,1.489626 -1.87922,0 -3.27718,-0.802106 -4.12512,-3.59802 l -0.275,0 0,4.102201 z" />
      <path
         id="path8868"
         style="font-style:normal;font-variant:normal;font-weight:normal;font-stretch:normal;font-family:'Abril Fatface';-inkscape-font-specification:'Abril Fatface';text-align:end;text-anchor:end;fill:#6c5d53;fill-opacity:1"
         d="m 237.77794,91.838337 c 0,2.979253 -0.0687,4.331375 -1.37504,4.331375 -1.39796,0 -1.44379,-1.7188 -1.44379,-4.377209 l 0,-1.787552 c 0,-2.589657 0.0687,-4.377208 1.46671,-4.377208 1.28337,0 1.35212,1.787551 1.35212,4.262622 l 0,1.947972 z m -7.21896,-0.893775 c 0,3.575102 1.94797,5.637661 5.79808,5.637661 4.07929,0 5.82101,-2.085476 5.82101,-5.843917 0,-3.712607 -1.83339,-5.523075 -5.6835,-5.523075 -3.68969,0 -5.93559,1.97089 -5.93559,5.729331 z m 4.28554,-7.127288 0.25209,0.160421 3.07092,-2.543823 c 0.48127,-0.435429 0.66461,-0.802106 0.66461,-1.214618 0,-0.59585 -0.43543,-1.237535 -1.46671,-1.008362 l -1.07712,0.229173 -1.44379,4.377209 z" />
      <path
         id="path8870"
         style="font-style:normal;font-variant:normal;font-weight:normal;font-stretch:normal;font-family:'Abril Fatface';-inkscape-font-specification:'Abril Fatface';text-align:end;text-anchor:end;fill:#6c5d53;fill-opacity:1"
         d="m 250.47342,86.086089 c 0.48126,0 0.93961,0.229173 0.48126,1.168784 l -0.82502,0 c -0.48126,1.62713 0.25209,2.589657 1.78755,2.589657 1.23754,0 1.92506,-0.870858 1.92506,-2.177146 0,-1.741716 -1.07712,-2.452153 -2.42924,-2.452153 -1.37504,0 -2.65841,0.802106 -3.07092,2.429236 l 0,-2.200063 -5.52308,0 0,0.412512 1.26046,0 0,10.083622 -1.26046,0 0,0.412512 7.15021,0 0,-0.412512 -1.62713,0 0,-6.141842 c 0,-2.06256 1.03128,-3.712607 2.13131,-3.712607 z" />
      <path
         id="path8872"
         style="font-style:normal;font-variant:normal;font-weight:normal;font-stretch:normal;font-family:'Abril Fatface';-inkscape-font-specification:'Abril Fatface';text-align:end;text-anchor:end;fill:#6c5d53;fill-opacity:1"
         d="m 260.42599,85.627743 c 0.64168,0 1.10003,0.320842 1.10003,1.100031 0,0.229173 -0.0458,0.504181 -0.16042,0.825024 l -0.75628,0 c -0.0917,0.320842 -0.11458,0.618768 -0.11458,0.825023 0,1.283371 0.84794,1.902138 2.03964,1.902138 1.14587,0 1.90214,-0.733354 1.90214,-2.154228 0,-1.718799 -1.39796,-2.9105 -4.19387,-2.9105 -3.78136,0 -6.11893,1.97089 -6.11893,5.821 0,3.575103 1.97089,5.545992 5.50016,5.545992 3.82719,0 4.58346,-2.314649 4.88139,-3.735523 l -0.41251,-0.04583 c -0.25209,1.237536 -1.14587,3.002169 -3.23135,3.002169 -1.78755,0 -2.31465,-1.306287 -2.31465,-4.239704 l 0,-1.191701 c 0,-3.414682 0.55002,-4.743886 1.87923,-4.743886 z" />
      <path
         id="path8874"
         style="font-style:normal;font-variant:normal;font-weight:normal;font-stretch:normal;font-family:'Abril Fatface';-inkscape-font-specification:'Abril Fatface';text-align:end;text-anchor:end;fill:#6c5d53;fill-opacity:1"
         d="m 266.1879,81.731797 c 0,0.962528 0.43543,2.131312 2.29173,2.131312 1.65005,0 2.31465,-0.939611 2.31465,-2.154229 0,-1.397957 -0.84794,-2.108394 -2.26881,-2.108394 -1.7188,0 -2.33757,1.008363 -2.33757,2.131311 z m -1.21462,3.712607 0,0.412512 1.35212,0 0,10.083622 -1.26045,0 0,0.412512 6.80645,0 0,-0.412512 -1.28337,0 0,-10.496134 -5.61475,0 z" />
      <path
         id="path8876"
         style="font-style:normal;font-variant:normal;font-weight:normal;font-stretch:normal;font-family:'Abril Fatface';-inkscape-font-specification:'Abril Fatface';text-align:end;text-anchor:end;fill:#6c5d53;fill-opacity:1"
         d="m 279.71844,91.838337 c 0,2.979253 -0.0687,4.331375 -1.37504,4.331375 -1.39796,0 -1.44379,-1.7188 -1.44379,-4.377209 l 0,-1.787552 c 0,-2.589657 0.0688,-4.377208 1.46671,-4.377208 1.28337,0 1.35212,1.787551 1.35212,4.262622 l 0,1.947972 z m -7.21896,-0.893775 c 0,3.575102 1.94797,5.637661 5.79808,5.637661 4.07929,0 5.821,-2.085476 5.821,-5.843917 0,-3.712607 -1.83338,-5.523075 -5.68349,-5.523075 -3.68969,0 -5.93559,1.97089 -5.93559,5.729331 z" />
      <path
         id="path8878"
         style="font-style:normal;font-variant:normal;font-weight:normal;font-stretch:normal;font-family:'Abril Fatface';-inkscape-font-specification:'Abril Fatface';text-align:end;text-anchor:end;fill:#6c5d53;fill-opacity:1"
         d="m 285.28663,96.582223 0.27501,0 c 0.36667,-0.641685 0.68752,-0.847941 0.98544,-0.847941 0.0917,0 0.29793,0.09167 0.43543,0.183339 0.87086,0.435429 1.65005,0.664602 2.75008,0.664602 2.58966,0 4.28554,-1.306287 4.28554,-3.918862 0,-2.704244 -2.01672,-3.437599 -3.82719,-3.918862 -1.51255,-0.412512 -2.88759,-0.664603 -2.88759,-1.7188 0,-0.710437 0.61877,-1.329204 2.13132,-1.329204 1.62713,0 2.79591,0.870858 3.62093,2.979252 l 0.27501,0 0,-3.506351 -0.25209,0 c -0.29793,0.572933 -0.45835,0.756272 -0.80211,0.756272 -0.275,0 -0.36667,-0.06875 -0.64168,-0.183339 -0.61877,-0.275008 -1.30629,-0.527098 -2.31465,-0.527098 -2.42924,0 -4.03345,1.53546 -4.03345,3.873028 0,2.543822 2.03964,3.25426 3.87303,3.758441 1.74171,0.481263 2.86466,0.710437 2.86466,1.741716 0,0.870859 -0.64168,1.489626 -2.33756,1.489626 -1.87922,0 -3.27718,-0.802106 -4.12512,-3.59802 l -0.27501,0 0,4.102201 z" />
      <path
         id="path8880"
         style="font-style:normal;font-variant:normal;font-weight:normal;font-stretch:normal;font-family:'Abril Fatface';-inkscape-font-specification:'Abril Fatface';text-align:end;text-anchor:end;fill:#6c5d53;fill-opacity:1"
         d="m 124.05537,108.95758 0,0.43543 1.26046,0 0,15.17127 -1.26046,0 0,0.43543 6.98979,0 0,-0.43543 -1.26046,0 0,-15.17127 1.26046,0 0,-0.43543 -6.98979,0 z" />
      <path
         id="path8882"
         style="font-style:normal;font-variant:normal;font-weight:normal;font-stretch:normal;font-family:'Abril Fatface';-inkscape-font-specification:'Abril Fatface';text-align:end;text-anchor:end;fill:#6c5d53;fill-opacity:1"
         d="m 131.90384,114.09106 0,0.41251 1.26045,0 0,10.08362 -1.26045,0 0,0.41252 6.50852,0 0,-0.41252 -0.98544,0 0,-6.32518 c 0,-1.8563 0.89377,-3.30009 1.8563,-3.30009 0.57293,0 0.84794,0.22917 0.84794,2.17714 l 0,7.44813 -0.93961,0 0,0.41252 6.4856,0 0,-0.41252 -1.28337,0 0,-6.89811 c 0,-2.773 -1.42087,-3.82719 -3.55218,-3.82719 -2.26882,0 -3.02509,1.1917 -3.41468,2.33756 l 0,-2.10839 -5.52308,0 z" />
      <path
         id="path8884"
         style="font-style:normal;font-variant:normal;font-weight:normal;font-stretch:normal;font-family:'Abril Fatface';-inkscape-font-specification:'Abril Fatface';text-align:end;text-anchor:end;fill:#6c5d53;fill-opacity:1"
         d="m 146.96912,121.72253 c 0,2.84175 1.62713,3.50635 3.89594,3.50635 2.79592,0 3.55219,-1.65005 3.75844,-3.4376 l -0.38959,-0.0458 c -0.20626,1.55837 -0.89378,2.56674 -1.99381,2.56674 -0.8021,0 -1.00836,-0.73336 -1.00836,-2.08548 l 0,-7.72314 2.97925,0 0,-0.41251 -2.97925,0 0,-4.01053 -4.26262,1.05419 0,2.95634 -1.26046,0 0,0.41251 1.26046,0 0,7.21896 z" />
      <path
         id="path8886"
         style="font-style:normal;font-variant:normal;font-weight:normal;font-stretch:normal;font-family:'Abril Fatface';-inkscape-font-specification:'Abril Fatface';text-align:end;text-anchor:end;fill:#6c5d53;fill-opacity:1"
         d="m 154.97944,119.5683 c 0,3.32301 1.83338,5.66058 5.91267,5.66058 3.25426,0 4.44596,-1.51254 4.97306,-3.48343 l -0.41252,-0.0688 c -0.50418,1.76464 -1.65004,2.84175 -3.34593,2.84175 -2.22298,0 -2.70424,-1.83338 -2.70424,-4.53763 l 0,-0.89377 6.46269,0 c 0.1375,-3.41469 -1.39796,-5.22515 -4.99598,-5.22515 -3.18551,0 -5.88975,1.74171 -5.88975,5.70641 z m 4.44596,-0.93961 0,-1.12295 c 0,-2.42924 0.43543,-3.20843 1.23753,-3.20843 0.93961,0 1.12295,0.80211 1.12295,3.20843 l 0,1.12295 -2.36048,0 z" />
      <path
         id="path8888"
         style="font-style:normal;font-variant:normal;font-weight:normal;font-stretch:normal;font-family:'Abril Fatface';-inkscape-font-specification:'Abril Fatface';text-align:end;text-anchor:end;fill:#6c5d53;fill-opacity:1"
         d="m 174.33598,114.73274 c 0.48127,0 0.93961,0.22918 0.48127,1.16879 l -0.82503,0 c -0.48126,1.62713 0.25209,2.58966 1.78755,2.58966 1.23754,0 1.92506,-0.87086 1.92506,-2.17715 0,-1.74172 -1.07712,-2.45215 -2.42924,-2.45215 -1.37504,0 -2.65841,0.8021 -3.07092,2.42923 l 0,-2.20006 -5.52307,0 0,0.41251 1.26045,0 0,10.08362 -1.26045,0 0,0.41252 7.1502,0 0,-0.41252 -1.62713,0 0,-6.14184 c 0,-2.06256 1.03128,-3.71261 2.13131,-3.71261 z" />
      <path
         id="path8890"
         style="font-style:normal;font-variant:normal;font-weight:normal;font-stretch:normal;font-family:'Abril Fatface';-inkscape-font-specification:'Abril Fatface';text-align:end;text-anchor:end;fill:#6c5d53;fill-opacity:1"
         d="m 178.00598,114.09106 0,0.41251 1.26045,0 0,10.08362 -1.26045,0 0,0.41252 6.3481,0 0,-0.41252 -0.82503,0 0,-6.32518 c 0,-1.8563 0.82503,-3.30009 1.67297,-3.30009 0.41251,0 0.6646,0.22917 0.6646,2.17714 l 0,7.44813 -0.80211,0 0,0.41252 5.88976,0 0,-0.41252 -0.82503,0 0,-6.46268 c 0,-1.92506 0.84794,-3.16259 1.67297,-3.16259 0.41251,0 0.6646,0.22917 0.6646,2.17714 l 0,7.44813 -0.80211,0 0,0.41252 6.3481,0 0,-0.41252 -1.28337,0 0,-6.89811 c 0,-2.773 -1.37504,-3.82719 -3.36884,-3.82719 -2.06256,0 -3.00217,1.3292 -3.36885,2.47507 -0.3896,-1.76464 -1.60421,-2.47507 -3.23134,-2.47507 -2.1084,0 -2.86467,1.1917 -3.23135,2.33756 l 0,-2.10839 -5.52307,0 z" />
      <path
         id="path8892"
         style="font-style:normal;font-variant:normal;font-weight:normal;font-stretch:normal;font-family:'Abril Fatface';-inkscape-font-specification:'Abril Fatface';text-align:end;text-anchor:end;fill:#6c5d53;fill-opacity:1"
         d="m 211.33099,124.99971 0,-0.41252 -1.26046,0 0,-10.49613 -5.31682,0 0,0.41251 1.0542,0 0,7.0127 c 0,1.74172 -0.71044,2.68133 -1.62713,2.68133 -0.57293,0 -0.84794,-0.29793 -0.84794,-2.2459 l 0,-7.86064 -5.54599,0 0,0.41251 1.28337,0 0,6.89812 c 0,2.77299 1.42087,3.82719 3.55218,3.82719 2.06256,0 2.79592,-0.82503 3.23135,-1.90214 l 0.25209,1.67297 5.22515,0 z" />
      <path
         id="path8894"
         style="font-style:normal;font-variant:normal;font-weight:normal;font-stretch:normal;font-family:'Abril Fatface';-inkscape-font-specification:'Abril Fatface';text-align:end;text-anchor:end;fill:#6c5d53;fill-opacity:1"
         d="m 211.84591,114.09106 0,0.41251 1.26045,0 0,10.08362 -1.26045,0 0,0.41252 6.50852,0 0,-0.41252 -0.98544,0 0,-6.32518 c 0,-1.8563 0.89377,-3.30009 1.8563,-3.30009 0.57293,0 0.84794,0.22917 0.84794,2.17714 l 0,7.44813 -0.93961,0 0,0.41252 6.4856,0 0,-0.41252 -1.28337,0 0,-6.89811 c 0,-2.773 -1.42087,-3.82719 -3.55218,-3.82719 -2.26882,0 -3.02509,1.1917 -3.41468,2.33756 l 0,-2.10839 -5.52308,0 z" />
      <path
         id="path8896"
         style="font-style:normal;font-variant:normal;font-weight:normal;font-stretch:normal;font-family:'Abril Fatface';-inkscape-font-specification:'Abril Fatface';text-align:end;text-anchor:end;fill:#6c5d53;fill-opacity:1"
         d="m 227.02255,110.37845 c 0,0.96253 0.43543,2.13131 2.29173,2.13131 1.65005,0 2.31465,-0.93961 2.31465,-2.15422 0,-1.39796 -0.84794,-2.1084 -2.26881,-2.1084 -1.7188,0 -2.33757,1.00836 -2.33757,2.13131 z m -1.21462,3.71261 0,0.41251 1.35212,0 0,10.08362 -1.26045,0 0,0.41252 6.80645,0 0,-0.41252 -1.28337,0 0,-10.49613 -5.61475,0 z" />
      <path
         id="path8898"
         style="font-style:normal;font-variant:normal;font-weight:normal;font-stretch:normal;font-family:'Abril Fatface';-inkscape-font-specification:'Abril Fatface';text-align:end;text-anchor:end;fill:#6c5d53;fill-opacity:1"
         d="m 239.56764,114.2744 c 0.64168,0 1.10003,0.32084 1.10003,1.10003 0,0.22917 -0.0458,0.50418 -0.16042,0.82502 l -0.75628,0 c -0.0917,0.32085 -0.11458,0.61877 -0.11458,0.82503 0,1.28337 0.84794,1.90213 2.03964,1.90213 1.14587,0 1.90214,-0.73335 1.90214,-2.15422 0,-1.7188 -1.39796,-2.9105 -4.19387,-2.9105 -3.78136,0 -6.11893,1.97089 -6.11893,5.821 0,3.5751 1.97089,5.54599 5.50016,5.54599 3.82719,0 4.58346,-2.31465 4.88139,-3.73553 l -0.41251,-0.0458 c -0.25209,1.23754 -1.14587,3.00217 -3.23135,3.00217 -1.78755,0 -2.31465,-1.30629 -2.31465,-4.23971 l 0,-1.1917 c 0,-3.41468 0.55002,-4.74388 1.87923,-4.74388 z" />
      <path
         id="path8900"
         style="font-style:normal;font-variant:normal;font-weight:normal;font-stretch:normal;font-family:'Abril Fatface';-inkscape-font-specification:'Abril Fatface';text-align:end;text-anchor:end;fill:#6c5d53;fill-opacity:1"
         d="m 245.32956,110.37845 c 0,0.96253 0.43543,2.13131 2.29173,2.13131 1.65005,0 2.31465,-0.93961 2.31465,-2.15422 0,-1.39796 -0.84794,-2.1084 -2.26882,-2.1084 -1.71879,0 -2.33756,1.00836 -2.33756,2.13131 z m -1.21462,3.71261 0,0.41251 1.35212,0 0,10.08362 -1.26045,0 0,0.41252 6.80644,0 0,-0.41252 -1.28337,0 0,-10.49613 -5.61474,0 z" />
      <path
         id="path8902"
         style="font-style:normal;font-variant:normal;font-weight:normal;font-stretch:normal;font-family:'Abril Fatface';-inkscape-font-specification:'Abril Fatface';text-align:end;text-anchor:end;fill:#6c5d53;fill-opacity:1"
         d="m 258.76842,114.84733 c 0.77919,0 1.05419,0.75627 1.05419,3.98762 l 0,1.1917 c 0,3.1855 -0.22917,4.53763 -1.35212,4.53763 -1.00836,0 -1.48962,-1.12295 -1.48962,-2.36049 l 0,-4.19387 c 0,-1.99381 0.84794,-3.16259 1.78755,-3.16259 z m -1.83339,-0.75627 -5.4314,0 0,0.41251 1.21461,0 0,15.53795 -1.26045,0 0,0.41251 8.47941,0 0,-0.41251 -2.95633,0 0,-5.93559 c 0.41251,0.71044 0.98544,1.12295 2.54382,1.12295 3.11676,0 4.72097,-1.74172 4.72097,-5.66058 0,-3.89595 -1.5813,-5.70641 -4.14804,-5.70641 -1.78755,0 -2.65841,0.89377 -3.16259,2.03964 l 0,-1.81047 z" />
      <path
         id="path8904"
         style="font-style:normal;font-variant:normal;font-weight:normal;font-stretch:normal;font-family:'Abril Fatface';-inkscape-font-specification:'Abril Fatface';text-align:end;text-anchor:end;fill:#6c5d53;fill-opacity:1"
         d="m 270.43083,119.61413 c -3.27718,0 -5.27099,0.5271 -5.27099,2.84175 0,2.29173 1.78755,2.773 3.39177,2.773 1.60421,0 2.26881,-0.59585 2.63549,-1.69588 0.27501,1.12295 1.30629,1.69588 3.16259,1.69588 1.97089,0 2.81883,-0.77919 2.93342,-3.52927 l -0.34376,-0.0229 c -0.11459,1.92506 -0.50418,2.36049 -0.9167,2.36049 -0.38959,0 -0.6646,-0.25209 -0.6646,-1.1917 l 0,-4.65222 c 0,-3.32301 -1.21462,-4.33137 -4.81264,-4.33137 -3.11675,0 -4.78972,0.89377 -4.78972,2.81883 0,1.12295 0.55002,1.90213 1.97089,1.90213 1.14587,0 2.01673,-0.71043 2.01673,-1.78755 0,-0.43543 -0.0688,-0.73335 -0.18334,-1.03128 l -0.57293,0 c -0.0917,-0.25209 -0.13751,-0.48126 -0.13751,-0.6646 0,-0.73335 0.6646,-0.91669 1.07712,-0.91669 0.91669,0 1.16878,0.75627 1.16878,3.66677 l 0,1.76463 -0.6646,0 z m -0.32085,4.69806 c -0.43542,0 -0.59585,-0.22918 -0.59585,-1.87922 l 0,-0.36668 c 0,-1.39796 0.45835,-2.08548 1.42088,-2.08548 l 0.16042,0 0,2.13131 c 0,1.46671 -0.55002,2.20007 -0.98545,2.20007 z" />
      <path
         id="path8906"
         style="font-style:normal;font-variant:normal;font-weight:normal;font-stretch:normal;font-family:'Abril Fatface';-inkscape-font-specification:'Abril Fatface';text-align:end;text-anchor:end;fill:#6c5d53;fill-opacity:1"
         d="m 278.63129,110.37845 c 0,0.96253 0.43542,2.13131 2.29173,2.13131 1.65004,0 2.31465,-0.93961 2.31465,-2.15422 0,-1.39796 -0.84794,-2.1084 -2.26882,-2.1084 -1.7188,0 -2.33756,1.00836 -2.33756,2.13131 z m -1.21462,3.71261 0,0.41251 1.35212,0 0,10.08362 -1.26045,0 0,0.41252 6.80644,0 0,-0.41252 -1.28337,0 0,-10.49613 -5.61474,0 z" />
      <path
         id="path8908"
         style="font-style:normal;font-variant:normal;font-weight:normal;font-stretch:normal;font-family:'Abril Fatface';-inkscape-font-specification:'Abril Fatface';text-align:end;text-anchor:end;fill:#6c5d53;fill-opacity:1"
         d="m 285.28662,125.22888 0.27501,0 c 0.36668,-0.64169 0.68752,-0.84794 0.98545,-0.84794 0.0917,0 0.29792,0.0917 0.43543,0.18334 0.87086,0.43543 1.65004,0.6646 2.75008,0.6646 2.58965,0 4.28554,-1.30629 4.28554,-3.91886 0,-2.70425 -2.01673,-3.4376 -3.8272,-3.91887 -1.51254,-0.41251 -2.88758,-0.6646 -2.88758,-1.7188 0,-0.71043 0.61877,-1.3292 2.13131,-1.3292 1.62713,0 2.79591,0.87086 3.62094,2.97925 l 0.27501,0 0,-3.50635 -0.25209,0 c -0.29793,0.57293 -0.45835,0.75627 -0.80211,0.75627 -0.27501,0 -0.36668,-0.0688 -0.64169,-0.18334 -0.61876,-0.275 -1.30628,-0.52709 -2.31465,-0.52709 -2.42923,0 -4.03345,1.53546 -4.03345,3.87302 0,2.54383 2.03965,3.25426 3.87303,3.75844 1.74172,0.48127 2.86467,0.71044 2.86467,1.74172 0,0.87086 -0.64169,1.48963 -2.33757,1.48963 -1.87922,0 -3.27718,-0.80211 -4.12512,-3.59802 l -0.27501,0 0,4.1022 z" />
      <path
         id="path8910"
         style="font-style:normal;font-variant:normal;font-weight:normal;font-stretch:normal;font-family:'Abril Fatface';-inkscape-font-specification:'Abril Fatface';text-align:end;text-anchor:end;fill:#6c5d53;fill-opacity:1"
         d="m 138.7554,152.89009 c -0.98544,0 -1.26045,-0.75627 -1.26045,-3.98762 l 0,-1.1917 c 0,-3.1855 0.22918,-4.53763 1.35212,-4.53763 1.00837,0 1.48963,1.12295 1.48963,2.36049 l 0,4.99597 c 0,1.7188 -0.91669,2.36049 -1.5813,2.36049 z m 1.87923,0.75627 5.08764,0 0,-0.41251 -1.12295,0 0,-16.77548 -5.72933,0 0,0.41251 1.39796,0 0,6.76061 c -0.41251,-0.71044 -1.23754,-1.12295 -2.65841,-1.12295 -2.93342,0 -4.53763,1.83339 -4.53763,5.70641 0,3.85012 1.60421,5.66058 4.14803,5.66058 1.78756,0 2.68133,-0.68752 3.16259,-1.83338 l 0.2521,1.60421 z" />
      <path
         id="path8912"
         style="font-style:normal;font-variant:normal;font-weight:normal;font-stretch:normal;font-family:'Abril Fatface';-inkscape-font-specification:'Abril Fatface';text-align:end;text-anchor:end;fill:#6c5d53;fill-opacity:1"
         d="m 146.4302,148.21495 c 0,3.32302 1.83339,5.66058 5.91267,5.66058 3.25426,0 4.44596,-1.51254 4.97306,-3.48343 l -0.41251,-0.0687 c -0.50418,1.76463 -1.65005,2.84175 -3.34593,2.84175 -2.22298,0 -2.70424,-1.83339 -2.70424,-4.53763 l 0,-0.89378 6.46268,0 c 0.1375,-3.41468 -1.39796,-5.22515 -4.99598,-5.22515 -3.1855,0 -5.88975,1.74172 -5.88975,5.70641 z m 4.44596,-0.93961 0,-1.12294 c 0,-2.42924 0.43543,-3.20843 1.23754,-3.20843 0.93961,0 1.12295,0.80211 1.12295,3.20843 l 0,1.12294 -2.36049,0 z" />
      <path
         id="path8914"
         style="font-style:normal;font-variant:normal;font-weight:normal;font-stretch:normal;font-family:'Abril Fatface';-inkscape-font-specification:'Abril Fatface';text-align:end;text-anchor:end;fill:#6c5d53;fill-opacity:1"
         d="m 169.46927,153.39427 c -2.5209,0 -4.74388,-2.68133 -5.88975,-4.97306 l -0.38959,0 0.22917,5.45432 0.32084,0 c 0.18334,-0.43543 0.32085,-0.68752 0.68752,-0.68752 0.64169,0 2.56674,0.68752 4.78972,0.68752 3.36885,0 5.61475,-2.17714 5.61475,-5.47724 0,-3.80427 -2.81883,-4.67513 -5.36266,-5.36265 -2.31465,-0.61877 -3.87302,-1.1917 -3.87302,-2.88758 0,-1.35213 1.14586,-2.31465 2.79591,-2.31465 2.36048,0 3.91886,2.29173 5.08765,4.40012 l 0.36667,0 -0.16042,-4.6293 -0.25209,0 c -0.16042,0.29793 -0.27501,0.45835 -0.6646,0.45835 -0.77919,0 -1.97089,-0.71044 -4.07929,-0.71044 -3.52926,0 -5.4314,2.40632 -5.4314,4.97306 0,3.46052 2.10839,4.56055 4.88139,5.33974 2.81883,0.80211 4.2397,1.42087 4.2397,3.32301 0,1.67297 -1.53546,2.40632 -2.9105,2.40632 z" />
      <path
         id="path8916"
         style="font-style:normal;font-variant:normal;font-weight:normal;font-stretch:normal;font-family:'Abril Fatface';-inkscape-font-specification:'Abril Fatface';text-align:end;text-anchor:end;fill:#6c5d53;fill-opacity:1"
         d="m 181.49192,148.26079 c -3.27718,0 -5.27099,0.5271 -5.27099,2.84175 0,2.29173 1.78755,2.77299 3.39177,2.77299 1.60421,0 2.26881,-0.59585 2.63549,-1.69588 0.27501,1.12295 1.30629,1.69588 3.16259,1.69588 1.97089,0 2.81883,-0.77919 2.93342,-3.52926 l -0.34376,-0.0229 c -0.11459,1.92505 -0.50418,2.36048 -0.9167,2.36048 -0.38959,0 -0.6646,-0.25209 -0.6646,-1.1917 l 0,-4.65221 c 0,-3.32302 -1.21462,-4.33138 -4.81264,-4.33138 -3.11675,0 -4.78972,0.89378 -4.78972,2.81883 0,1.12295 0.55002,1.90214 1.97089,1.90214 1.14587,0 2.01673,-0.71044 2.01673,-1.78755 0,-0.43543 -0.0687,-0.73336 -0.18334,-1.03128 l -0.57293,0 c -0.0917,-0.25209 -0.13751,-0.48127 -0.13751,-0.6646 0,-0.73336 0.6646,-0.9167 1.07712,-0.9167 0.91669,0 1.16878,0.75628 1.16878,3.66678 l 0,1.76463 -0.6646,0 z m -0.32084,4.69805 c -0.43543,0 -0.59586,-0.22917 -0.59586,-1.87922 l 0,-0.36668 c 0,-1.39795 0.45835,-2.08547 1.42088,-2.08547 l 0.16042,0 0,2.13131 c 0,1.46671 -0.55002,2.20006 -0.98544,2.20006 z" />
      <path
         id="path8918"
         style="font-style:normal;font-variant:normal;font-weight:normal;font-stretch:normal;font-family:'Abril Fatface';-inkscape-font-specification:'Abril Fatface';text-align:end;text-anchor:end;fill:#6c5d53;fill-opacity:1"
         d="m 188.61527,142.73771 0,0.41252 1.26045,0 0,10.08362 -1.26045,0 0,0.41251 6.50852,0 0,-0.41251 -0.98545,0 0,-6.32518 c 0,-1.85631 0.89378,-3.3001 1.8563,-3.3001 0.57294,0 0.84795,0.22918 0.84795,2.17715 l 0,7.44813 -0.93962,0 0,0.41251 6.48561,0 0,-0.41251 -1.28337,0 0,-6.89812 c 0,-2.77299 -1.42088,-3.82719 -3.55219,-3.82719 -2.26881,0 -3.02508,1.1917 -3.41468,2.33757 l 0,-2.1084 -5.52307,0 z" />
      <path
         id="path8920"
         style="font-style:normal;font-variant:normal;font-weight:normal;font-stretch:normal;font-family:'Abril Fatface';-inkscape-font-specification:'Abril Fatface';text-align:end;text-anchor:end;fill:#6c5d53;fill-opacity:1"
         d="m 202.78355,148.21495 c 0,3.32302 1.83338,5.66058 5.91267,5.66058 3.25426,0 4.44596,-1.51254 4.97306,-3.48343 l -0.41252,-0.0687 c -0.50418,1.76463 -1.65004,2.84175 -3.34593,2.84175 -2.22298,0 -2.70424,-1.83339 -2.70424,-4.53763 l 0,-0.89378 6.46269,0 c 0.1375,-3.41468 -1.39796,-5.22515 -4.99598,-5.22515 -3.18551,0 -5.88975,1.74172 -5.88975,5.70641 z m 4.44596,-0.93961 0,-1.12294 c 0,-2.42924 0.43543,-3.20843 1.23753,-3.20843 0.93961,0 1.12295,0.80211 1.12295,3.20843 l 0,1.12294 -2.36048,0 z" />
      <path
         id="path8922"
         style="font-style:normal;font-variant:normal;font-weight:normal;font-stretch:normal;font-family:'Abril Fatface';-inkscape-font-specification:'Abril Fatface';text-align:end;text-anchor:end;fill:#6c5d53;fill-opacity:1"
         d="m 219.98586,148.26079 c -3.27718,0 -5.27098,0.5271 -5.27098,2.84175 0,2.29173 1.78755,2.77299 3.39176,2.77299 1.60421,0 2.26881,-0.59585 2.63549,-1.69588 0.27501,1.12295 1.30629,1.69588 3.16259,1.69588 1.97089,0 2.81883,-0.77919 2.93342,-3.52926 l -0.34376,-0.0229 c -0.11459,1.92505 -0.50418,2.36048 -0.91669,2.36048 -0.3896,0 -0.66461,-0.25209 -0.66461,-1.1917 l 0,-4.65221 c 0,-3.32302 -1.21461,-4.33138 -4.81263,-4.33138 -3.11676,0 -4.78972,0.89378 -4.78972,2.81883 0,1.12295 0.55001,1.90214 1.97089,1.90214 1.14586,0 2.01672,-0.71044 2.01672,-1.78755 0,-0.43543 -0.0687,-0.73336 -0.18334,-1.03128 l -0.57293,0 c -0.0917,-0.25209 -0.13751,-0.48127 -0.13751,-0.6646 0,-0.73336 0.66461,-0.9167 1.07712,-0.9167 0.91669,0 1.16878,0.75628 1.16878,3.66678 l 0,1.76463 -0.6646,0 z m -0.32084,4.69805 c -0.43543,0 -0.59585,-0.22917 -0.59585,-1.87922 l 0,-0.36668 c 0,-1.39795 0.45834,-2.08547 1.42087,-2.08547 l 0.16042,0 0,2.13131 c 0,1.46671 -0.55001,2.20006 -0.98544,2.20006 z" />
      <path
         id="path8924"
         style="font-style:normal;font-variant:normal;font-weight:normal;font-stretch:normal;font-family:'Abril Fatface';-inkscape-font-specification:'Abril Fatface';text-align:end;text-anchor:end;fill:#6c5d53;fill-opacity:1"
         d="m 227.06338,142.73771 0,0.41252 1.26045,0 0,10.08362 -1.26045,0 0,0.41251 6.3481,0 0,-0.41251 -0.82503,0 0,-6.32518 c 0,-1.85631 0.82503,-3.3001 1.67297,-3.3001 0.41251,0 0.6646,0.22918 0.6646,2.17715 l 0,7.44813 -0.80211,0 0,0.41251 5.88976,0 0,-0.41251 -0.82503,0 0,-6.46269 c 0,-1.92505 0.84794,-3.16259 1.67297,-3.16259 0.41251,0 0.6646,0.22918 0.6646,2.17715 l 0,7.44813 -0.80211,0 0,0.41251 6.3481,0 0,-0.41251 -1.28337,0 0,-6.89812 c 0,-2.77299 -1.37504,-3.82719 -3.36885,-3.82719 -2.06255,0 -3.00217,1.32921 -3.36884,2.47507 -0.3896,-1.76463 -1.60421,-2.47507 -3.23135,-2.47507 -2.10839,0 -2.86466,1.1917 -3.23134,2.33757 l 0,-2.1084 -5.52307,0 z" />
      <path
         id="path8926"
         style="font-style:normal;font-variant:normal;font-weight:normal;font-stretch:normal;font-family:'Abril Fatface';-inkscape-font-specification:'Abril Fatface';text-align:end;text-anchor:end;fill:#6c5d53;fill-opacity:1"
         d="m 247.54395,148.21495 c 0,3.32302 1.83338,5.66058 5.91267,5.66058 3.25426,0 4.44596,-1.51254 4.97305,-3.48343 l -0.41251,-0.0687 c -0.50418,1.76463 -1.65004,2.84175 -3.34593,2.84175 -2.22298,0 -2.70424,-1.83339 -2.70424,-4.53763 l 0,-0.89378 6.46268,0 c 0.13751,-3.41468 -1.39795,-5.22515 -4.99597,-5.22515 -3.18551,0 -5.88975,1.74172 -5.88975,5.70641 z m 4.44596,-0.93961 0,-1.12294 c 0,-2.42924 0.43543,-3.20843 1.23753,-3.20843 0.93961,0 1.12295,0.80211 1.12295,3.20843 l 0,1.12294 -2.36048,0 z" />
      <path
         id="path8928"
         style="font-style:normal;font-variant:normal;font-weight:normal;font-stretch:normal;font-family:'Abril Fatface';-inkscape-font-specification:'Abril Fatface';text-align:end;text-anchor:end;fill:#6c5d53;fill-opacity:1"
         d="m 259.29194,142.73771 0,0.41252 1.26045,0 0,10.08362 -1.26045,0 0,0.41251 6.50852,0 0,-0.41251 -0.98545,0 0,-6.32518 c 0,-1.85631 0.89378,-3.3001 1.8563,-3.3001 0.57294,0 0.84795,0.22918 0.84795,2.17715 l 0,7.44813 -0.93962,0 0,0.41251 6.48561,0 0,-0.41251 -1.28337,0 0,-6.89812 c 0,-2.77299 -1.42088,-3.82719 -3.55219,-3.82719 -2.26881,0 -3.02508,1.1917 -3.41468,2.33757 l 0,-2.1084 -5.52307,0 z" />
      <path
         id="path8930"
         style="font-style:normal;font-variant:normal;font-weight:normal;font-stretch:normal;font-family:'Abril Fatface';-inkscape-font-specification:'Abril Fatface';text-align:end;text-anchor:end;fill:#6c5d53;fill-opacity:1"
         d="m 274.35721,150.36918 c 0,2.84175 1.62713,3.50635 3.89594,3.50635 2.79592,0 3.55219,-1.65004 3.75844,-3.43759 l -0.38959,-0.0458 c -0.20626,1.55838 -0.89378,2.56674 -1.99381,2.56674 -0.8021,0 -1.00836,-0.73335 -1.00836,-2.08548 l 0,-7.72313 2.97925,0 0,-0.41252 -2.97925,0 0,-4.01053 -4.26262,1.0542 0,2.95633 -1.26045,0 0,0.41252 1.26045,0 0,7.21895 z" />
      <path
         id="path8932"
         style="font-style:normal;font-variant:normal;font-weight:normal;font-stretch:normal;font-family:'Abril Fatface';-inkscape-font-specification:'Abril Fatface';text-align:end;text-anchor:end;fill:#6c5d53;fill-opacity:1"
         d="m 289.65525,149.13165 c 0,2.97925 -0.0688,4.33137 -1.37504,4.33137 -1.39796,0 -1.44379,-1.7188 -1.44379,-4.37721 l 0,-1.78755 c 0,-2.58966 0.0688,-4.37721 1.46671,-4.37721 1.28337,0 1.35212,1.78755 1.35212,4.26263 l 0,1.94797 z m -7.21896,-0.89378 c 0,3.5751 1.94797,5.63766 5.79808,5.63766 4.07929,0 5.821,-2.08547 5.821,-5.84391 0,-3.71261 -1.83338,-5.52308 -5.68349,-5.52308 -3.68969,0 -5.93559,1.97089 -5.93559,5.72933 z" />
    </g>
  </g>
</svg>
